<mxfile host="app.diagrams.net" agent="Mozilla/5.0 (Windows NT 10.0; Win64; x64) AppleWebKit/537.36 (KHTML, like Gecko) Chrome/131.0.0.0 Safari/537.36" version="26.0.4">
  <diagram name="Page-1" id="k2yNLmEZRWlZqtDNwLpp">
    <mxGraphModel dx="968" dy="655" grid="1" gridSize="10" guides="1" tooltips="1" connect="1" arrows="1" fold="1" page="1" pageScale="1" pageWidth="850" pageHeight="1100" math="0" shadow="0">
      <root>
        <mxCell id="0" />
        <mxCell id="1" parent="0" />
        <mxCell id="-j06Ovp1fmt5AjjepnFO-1" value="(c) shingaridavesh@gmail.com" style="text;html=1;align=center;verticalAlign=middle;whiteSpace=wrap;rounded=0;fontSize=36;fontColor=#f2eeee;rotation=-42;" vertex="1" parent="1">
          <mxGeometry x="135" y="510" width="870" height="30" as="geometry" />
        </mxCell>
        <mxCell id="-j06Ovp1fmt5AjjepnFO-2" value="" style="endArrow=classic;html=1;rounded=0;strokeColor=#0a0a0a;strokeWidth=3;endFill=1;" edge="1" parent="1">
          <mxGeometry width="50" height="50" relative="1" as="geometry">
            <mxPoint x="175" y="290" as="sourcePoint" />
            <mxPoint x="195" y="250" as="targetPoint" />
          </mxGeometry>
        </mxCell>
        <mxCell id="-j06Ovp1fmt5AjjepnFO-3" value="" style="endArrow=none;html=1;rounded=0;strokeColor=#0a0a0a;strokeWidth=3;" edge="1" parent="1">
          <mxGeometry width="50" height="50" relative="1" as="geometry">
            <mxPoint x="195" y="250" as="sourcePoint" />
            <mxPoint x="235" y="250" as="targetPoint" />
          </mxGeometry>
        </mxCell>
        <mxCell id="-j06Ovp1fmt5AjjepnFO-4" value="" style="endArrow=none;html=1;rounded=0;strokeColor=#0a0a0a;strokeWidth=3;" edge="1" parent="1">
          <mxGeometry width="50" height="50" relative="1" as="geometry">
            <mxPoint x="255" y="290" as="sourcePoint" />
            <mxPoint x="235" y="250" as="targetPoint" />
          </mxGeometry>
        </mxCell>
        <mxCell id="-j06Ovp1fmt5AjjepnFO-5" value="" style="endArrow=none;html=1;rounded=0;strokeColor=#0a0a0a;strokeWidth=3;" edge="1" parent="1">
          <mxGeometry width="50" height="50" relative="1" as="geometry">
            <mxPoint x="255" y="290" as="sourcePoint" />
            <mxPoint x="295" y="290" as="targetPoint" />
          </mxGeometry>
        </mxCell>
        <mxCell id="-j06Ovp1fmt5AjjepnFO-6" value="" style="endArrow=classic;html=1;rounded=0;strokeColor=#0a0a0a;strokeWidth=3;endFill=1;" edge="1" parent="1">
          <mxGeometry width="50" height="50" relative="1" as="geometry">
            <mxPoint x="295" y="290" as="sourcePoint" />
            <mxPoint x="315" y="250" as="targetPoint" />
          </mxGeometry>
        </mxCell>
        <mxCell id="-j06Ovp1fmt5AjjepnFO-7" value="" style="endArrow=none;html=1;rounded=0;strokeColor=#0a0a0a;strokeWidth=3;" edge="1" parent="1">
          <mxGeometry width="50" height="50" relative="1" as="geometry">
            <mxPoint x="315" y="250" as="sourcePoint" />
            <mxPoint x="355" y="250" as="targetPoint" />
          </mxGeometry>
        </mxCell>
        <mxCell id="-j06Ovp1fmt5AjjepnFO-8" value="" style="endArrow=none;html=1;rounded=0;strokeColor=#0a0a0a;strokeWidth=3;" edge="1" parent="1">
          <mxGeometry width="50" height="50" relative="1" as="geometry">
            <mxPoint x="375" y="290" as="sourcePoint" />
            <mxPoint x="355" y="250" as="targetPoint" />
          </mxGeometry>
        </mxCell>
        <mxCell id="-j06Ovp1fmt5AjjepnFO-9" value="" style="endArrow=none;html=1;rounded=0;strokeColor=#0a0a0a;strokeWidth=3;" edge="1" parent="1">
          <mxGeometry width="50" height="50" relative="1" as="geometry">
            <mxPoint x="375" y="290" as="sourcePoint" />
            <mxPoint x="415" y="290" as="targetPoint" />
          </mxGeometry>
        </mxCell>
        <mxCell id="-j06Ovp1fmt5AjjepnFO-10" value="" style="endArrow=classic;html=1;rounded=0;strokeColor=#0a0a0a;strokeWidth=3;endFill=1;" edge="1" parent="1">
          <mxGeometry width="50" height="50" relative="1" as="geometry">
            <mxPoint x="415" y="290" as="sourcePoint" />
            <mxPoint x="435" y="250" as="targetPoint" />
          </mxGeometry>
        </mxCell>
        <mxCell id="-j06Ovp1fmt5AjjepnFO-11" value="" style="endArrow=none;html=1;rounded=0;strokeColor=#0a0a0a;strokeWidth=3;" edge="1" parent="1">
          <mxGeometry width="50" height="50" relative="1" as="geometry">
            <mxPoint x="435" y="250" as="sourcePoint" />
            <mxPoint x="475" y="250" as="targetPoint" />
          </mxGeometry>
        </mxCell>
        <mxCell id="-j06Ovp1fmt5AjjepnFO-12" value="" style="endArrow=none;html=1;rounded=0;strokeColor=#0a0a0a;strokeWidth=3;" edge="1" parent="1">
          <mxGeometry width="50" height="50" relative="1" as="geometry">
            <mxPoint x="495" y="290" as="sourcePoint" />
            <mxPoint x="475" y="250" as="targetPoint" />
          </mxGeometry>
        </mxCell>
        <mxCell id="-j06Ovp1fmt5AjjepnFO-13" value="" style="endArrow=none;html=1;rounded=0;strokeColor=#0a0a0a;strokeWidth=3;" edge="1" parent="1">
          <mxGeometry width="50" height="50" relative="1" as="geometry">
            <mxPoint x="495" y="290" as="sourcePoint" />
            <mxPoint x="535" y="290" as="targetPoint" />
          </mxGeometry>
        </mxCell>
        <mxCell id="-j06Ovp1fmt5AjjepnFO-14" value="" style="endArrow=classic;html=1;rounded=0;strokeColor=#0a0a0a;strokeWidth=3;endFill=1;" edge="1" parent="1">
          <mxGeometry width="50" height="50" relative="1" as="geometry">
            <mxPoint x="535" y="290" as="sourcePoint" />
            <mxPoint x="555" y="250" as="targetPoint" />
          </mxGeometry>
        </mxCell>
        <mxCell id="-j06Ovp1fmt5AjjepnFO-15" value="" style="endArrow=none;html=1;rounded=0;strokeColor=#0a0a0a;strokeWidth=3;" edge="1" parent="1">
          <mxGeometry width="50" height="50" relative="1" as="geometry">
            <mxPoint x="555" y="250" as="sourcePoint" />
            <mxPoint x="595" y="250" as="targetPoint" />
          </mxGeometry>
        </mxCell>
        <mxCell id="-j06Ovp1fmt5AjjepnFO-16" value="" style="endArrow=none;html=1;rounded=0;strokeColor=#0a0a0a;strokeWidth=3;" edge="1" parent="1">
          <mxGeometry width="50" height="50" relative="1" as="geometry">
            <mxPoint x="615" y="290" as="sourcePoint" />
            <mxPoint x="595" y="250" as="targetPoint" />
          </mxGeometry>
        </mxCell>
        <mxCell id="-j06Ovp1fmt5AjjepnFO-17" value="" style="endArrow=none;html=1;rounded=0;strokeColor=#0a0a0a;strokeWidth=3;" edge="1" parent="1">
          <mxGeometry width="50" height="50" relative="1" as="geometry">
            <mxPoint x="615" y="290" as="sourcePoint" />
            <mxPoint x="655" y="290" as="targetPoint" />
          </mxGeometry>
        </mxCell>
        <mxCell id="-j06Ovp1fmt5AjjepnFO-18" value="" style="endArrow=classic;html=1;rounded=0;strokeColor=#0a0a0a;strokeWidth=3;endFill=1;" edge="1" parent="1">
          <mxGeometry width="50" height="50" relative="1" as="geometry">
            <mxPoint x="655" y="290" as="sourcePoint" />
            <mxPoint x="675" y="250" as="targetPoint" />
          </mxGeometry>
        </mxCell>
        <mxCell id="-j06Ovp1fmt5AjjepnFO-19" value="" style="endArrow=none;html=1;rounded=0;strokeColor=#0a0a0a;strokeWidth=3;" edge="1" parent="1">
          <mxGeometry width="50" height="50" relative="1" as="geometry">
            <mxPoint x="135" y="290" as="sourcePoint" />
            <mxPoint x="175" y="290" as="targetPoint" />
          </mxGeometry>
        </mxCell>
        <mxCell id="-j06Ovp1fmt5AjjepnFO-20" value="" style="endArrow=none;html=1;rounded=0;strokeColor=#0a0a0a;strokeWidth=3;dashed=1;" edge="1" parent="1">
          <mxGeometry width="50" height="50" relative="1" as="geometry">
            <mxPoint x="136" y="250" as="sourcePoint" />
            <mxPoint x="176" y="250" as="targetPoint" />
          </mxGeometry>
        </mxCell>
        <mxCell id="-j06Ovp1fmt5AjjepnFO-21" value="" style="endArrow=none;html=1;rounded=0;strokeColor=#0a0a0a;strokeWidth=3;dashed=1;" edge="1" parent="1">
          <mxGeometry width="50" height="50" relative="1" as="geometry">
            <mxPoint x="196" y="290" as="sourcePoint" />
            <mxPoint x="176" y="250" as="targetPoint" />
          </mxGeometry>
        </mxCell>
        <mxCell id="-j06Ovp1fmt5AjjepnFO-22" value="" style="endArrow=none;html=1;rounded=0;strokeColor=#0a0a0a;strokeWidth=3;dashed=1;" edge="1" parent="1">
          <mxGeometry width="50" height="50" relative="1" as="geometry">
            <mxPoint x="196" y="290" as="sourcePoint" />
            <mxPoint x="236" y="290" as="targetPoint" />
          </mxGeometry>
        </mxCell>
        <mxCell id="-j06Ovp1fmt5AjjepnFO-23" value="" style="endArrow=none;html=1;rounded=0;strokeColor=#0a0a0a;strokeWidth=3;dashed=1;" edge="1" parent="1">
          <mxGeometry width="50" height="50" relative="1" as="geometry">
            <mxPoint x="236" y="290" as="sourcePoint" />
            <mxPoint x="256" y="250" as="targetPoint" />
          </mxGeometry>
        </mxCell>
        <mxCell id="-j06Ovp1fmt5AjjepnFO-24" value="" style="endArrow=none;html=1;rounded=0;strokeColor=#0a0a0a;strokeWidth=3;dashed=1;" edge="1" parent="1">
          <mxGeometry width="50" height="50" relative="1" as="geometry">
            <mxPoint x="256" y="250" as="sourcePoint" />
            <mxPoint x="296" y="250" as="targetPoint" />
          </mxGeometry>
        </mxCell>
        <mxCell id="-j06Ovp1fmt5AjjepnFO-25" value="" style="endArrow=none;html=1;rounded=0;strokeColor=#0a0a0a;strokeWidth=3;dashed=1;" edge="1" parent="1">
          <mxGeometry width="50" height="50" relative="1" as="geometry">
            <mxPoint x="316" y="290" as="sourcePoint" />
            <mxPoint x="296" y="250" as="targetPoint" />
          </mxGeometry>
        </mxCell>
        <mxCell id="-j06Ovp1fmt5AjjepnFO-26" value="" style="endArrow=none;html=1;rounded=0;strokeColor=#0a0a0a;strokeWidth=3;dashed=1;" edge="1" parent="1">
          <mxGeometry width="50" height="50" relative="1" as="geometry">
            <mxPoint x="316" y="290" as="sourcePoint" />
            <mxPoint x="356" y="290" as="targetPoint" />
          </mxGeometry>
        </mxCell>
        <mxCell id="-j06Ovp1fmt5AjjepnFO-27" value="" style="endArrow=none;html=1;rounded=0;strokeColor=#0a0a0a;strokeWidth=3;dashed=1;" edge="1" parent="1">
          <mxGeometry width="50" height="50" relative="1" as="geometry">
            <mxPoint x="356" y="290" as="sourcePoint" />
            <mxPoint x="376" y="250" as="targetPoint" />
          </mxGeometry>
        </mxCell>
        <mxCell id="-j06Ovp1fmt5AjjepnFO-28" value="" style="endArrow=none;html=1;rounded=0;strokeColor=#0a0a0a;strokeWidth=3;dashed=1;" edge="1" parent="1">
          <mxGeometry width="50" height="50" relative="1" as="geometry">
            <mxPoint x="376" y="250" as="sourcePoint" />
            <mxPoint x="416" y="250" as="targetPoint" />
          </mxGeometry>
        </mxCell>
        <mxCell id="-j06Ovp1fmt5AjjepnFO-29" value="" style="endArrow=none;html=1;rounded=0;strokeColor=#0a0a0a;strokeWidth=3;dashed=1;" edge="1" parent="1">
          <mxGeometry width="50" height="50" relative="1" as="geometry">
            <mxPoint x="436" y="290" as="sourcePoint" />
            <mxPoint x="416" y="250" as="targetPoint" />
          </mxGeometry>
        </mxCell>
        <mxCell id="-j06Ovp1fmt5AjjepnFO-30" value="" style="endArrow=none;html=1;rounded=0;strokeColor=#0a0a0a;strokeWidth=3;dashed=1;" edge="1" parent="1">
          <mxGeometry width="50" height="50" relative="1" as="geometry">
            <mxPoint x="436" y="290" as="sourcePoint" />
            <mxPoint x="476" y="290" as="targetPoint" />
          </mxGeometry>
        </mxCell>
        <mxCell id="-j06Ovp1fmt5AjjepnFO-31" value="" style="endArrow=none;html=1;rounded=0;strokeColor=#0a0a0a;strokeWidth=3;dashed=1;" edge="1" parent="1">
          <mxGeometry width="50" height="50" relative="1" as="geometry">
            <mxPoint x="476" y="290" as="sourcePoint" />
            <mxPoint x="496" y="250" as="targetPoint" />
          </mxGeometry>
        </mxCell>
        <mxCell id="-j06Ovp1fmt5AjjepnFO-32" value="" style="endArrow=none;html=1;rounded=0;strokeColor=#0a0a0a;strokeWidth=3;dashed=1;" edge="1" parent="1">
          <mxGeometry width="50" height="50" relative="1" as="geometry">
            <mxPoint x="496" y="250" as="sourcePoint" />
            <mxPoint x="536" y="250" as="targetPoint" />
          </mxGeometry>
        </mxCell>
        <mxCell id="-j06Ovp1fmt5AjjepnFO-33" value="" style="endArrow=none;html=1;rounded=0;strokeColor=#0a0a0a;strokeWidth=3;dashed=1;" edge="1" parent="1">
          <mxGeometry width="50" height="50" relative="1" as="geometry">
            <mxPoint x="556" y="290" as="sourcePoint" />
            <mxPoint x="536" y="250" as="targetPoint" />
          </mxGeometry>
        </mxCell>
        <mxCell id="-j06Ovp1fmt5AjjepnFO-34" value="" style="endArrow=none;html=1;rounded=0;strokeColor=#0a0a0a;strokeWidth=3;dashed=1;" edge="1" parent="1">
          <mxGeometry width="50" height="50" relative="1" as="geometry">
            <mxPoint x="556" y="290" as="sourcePoint" />
            <mxPoint x="596" y="290" as="targetPoint" />
          </mxGeometry>
        </mxCell>
        <mxCell id="-j06Ovp1fmt5AjjepnFO-35" value="" style="endArrow=none;html=1;rounded=0;strokeColor=#0a0a0a;strokeWidth=3;dashed=1;" edge="1" parent="1">
          <mxGeometry width="50" height="50" relative="1" as="geometry">
            <mxPoint x="596" y="290" as="sourcePoint" />
            <mxPoint x="616" y="250" as="targetPoint" />
          </mxGeometry>
        </mxCell>
        <mxCell id="-j06Ovp1fmt5AjjepnFO-36" value="" style="endArrow=none;html=1;rounded=0;strokeColor=#0a0a0a;strokeWidth=3;dashed=1;" edge="1" parent="1">
          <mxGeometry width="50" height="50" relative="1" as="geometry">
            <mxPoint x="615" y="250" as="sourcePoint" />
            <mxPoint x="655" y="250" as="targetPoint" />
          </mxGeometry>
        </mxCell>
        <mxCell id="-j06Ovp1fmt5AjjepnFO-37" value="" style="endArrow=none;html=1;rounded=0;strokeColor=#0a0a0a;strokeWidth=3;dashed=1;" edge="1" parent="1">
          <mxGeometry width="50" height="50" relative="1" as="geometry">
            <mxPoint x="675" y="290" as="sourcePoint" />
            <mxPoint x="655" y="250" as="targetPoint" />
          </mxGeometry>
        </mxCell>
        <mxCell id="-j06Ovp1fmt5AjjepnFO-38" value="" style="endArrow=none;html=1;rounded=0;strokeColor=light-dark(#fac72c, #ebd9ff);strokeWidth=3;" edge="1" parent="1">
          <mxGeometry width="50" height="50" relative="1" as="geometry">
            <mxPoint x="164" y="350" as="sourcePoint" />
            <mxPoint x="144" y="310" as="targetPoint" />
          </mxGeometry>
        </mxCell>
        <mxCell id="-j06Ovp1fmt5AjjepnFO-39" value="" style="endArrow=none;html=1;rounded=0;strokeColor=light-dark(#fac72c, #ebd9ff);strokeWidth=3;" edge="1" parent="1">
          <mxGeometry width="50" height="50" relative="1" as="geometry">
            <mxPoint x="164" y="350" as="sourcePoint" />
            <mxPoint x="204" y="350" as="targetPoint" />
          </mxGeometry>
        </mxCell>
        <mxCell id="-j06Ovp1fmt5AjjepnFO-40" value="" style="endArrow=none;html=1;rounded=0;strokeColor=light-dark(#fac72c, #ebd9ff);strokeWidth=3;" edge="1" parent="1">
          <mxGeometry width="50" height="50" relative="1" as="geometry">
            <mxPoint x="204" y="350" as="sourcePoint" />
            <mxPoint x="224" y="310" as="targetPoint" />
          </mxGeometry>
        </mxCell>
        <mxCell id="-j06Ovp1fmt5AjjepnFO-41" value="" style="endArrow=none;html=1;rounded=0;strokeColor=light-dark(#fac72c, #ebd9ff);strokeWidth=3;" edge="1" parent="1">
          <mxGeometry width="50" height="50" relative="1" as="geometry">
            <mxPoint x="224" y="310" as="sourcePoint" />
            <mxPoint x="264" y="310" as="targetPoint" />
          </mxGeometry>
        </mxCell>
        <mxCell id="-j06Ovp1fmt5AjjepnFO-42" value="" style="endArrow=none;html=1;rounded=0;strokeColor=light-dark(#fac72c, #ebd9ff);strokeWidth=3;" edge="1" parent="1">
          <mxGeometry width="50" height="50" relative="1" as="geometry">
            <mxPoint x="284" y="350" as="sourcePoint" />
            <mxPoint x="264" y="310" as="targetPoint" />
          </mxGeometry>
        </mxCell>
        <mxCell id="-j06Ovp1fmt5AjjepnFO-43" value="" style="endArrow=none;html=1;rounded=0;strokeColor=light-dark(#fac72c, #ebd9ff);strokeWidth=3;" edge="1" parent="1">
          <mxGeometry width="50" height="50" relative="1" as="geometry">
            <mxPoint x="284" y="350" as="sourcePoint" />
            <mxPoint x="324" y="350" as="targetPoint" />
          </mxGeometry>
        </mxCell>
        <mxCell id="-j06Ovp1fmt5AjjepnFO-44" value="" style="endArrow=none;html=1;rounded=0;strokeColor=light-dark(#fac72c, #ebd9ff);strokeWidth=3;" edge="1" parent="1">
          <mxGeometry width="50" height="50" relative="1" as="geometry">
            <mxPoint x="324" y="350" as="sourcePoint" />
            <mxPoint x="344" y="310" as="targetPoint" />
          </mxGeometry>
        </mxCell>
        <mxCell id="-j06Ovp1fmt5AjjepnFO-45" value="" style="endArrow=none;html=1;rounded=0;strokeColor=light-dark(#fac72c, #ebd9ff);strokeWidth=3;" edge="1" parent="1">
          <mxGeometry width="50" height="50" relative="1" as="geometry">
            <mxPoint x="344" y="310" as="sourcePoint" />
            <mxPoint x="384" y="310" as="targetPoint" />
          </mxGeometry>
        </mxCell>
        <mxCell id="-j06Ovp1fmt5AjjepnFO-46" value="" style="endArrow=none;html=1;rounded=0;strokeColor=light-dark(#fac72c, #ebd9ff);strokeWidth=3;" edge="1" parent="1">
          <mxGeometry width="50" height="50" relative="1" as="geometry">
            <mxPoint x="404" y="350" as="sourcePoint" />
            <mxPoint x="384" y="310" as="targetPoint" />
          </mxGeometry>
        </mxCell>
        <mxCell id="-j06Ovp1fmt5AjjepnFO-47" value="" style="endArrow=none;html=1;rounded=0;strokeColor=light-dark(#fac72c, #ebd9ff);strokeWidth=3;" edge="1" parent="1">
          <mxGeometry width="50" height="50" relative="1" as="geometry">
            <mxPoint x="404" y="350" as="sourcePoint" />
            <mxPoint x="444" y="350" as="targetPoint" />
          </mxGeometry>
        </mxCell>
        <mxCell id="-j06Ovp1fmt5AjjepnFO-48" value="" style="endArrow=none;html=1;rounded=0;strokeColor=light-dark(#fac72c, #ebd9ff);strokeWidth=3;" edge="1" parent="1">
          <mxGeometry width="50" height="50" relative="1" as="geometry">
            <mxPoint x="444" y="350" as="sourcePoint" />
            <mxPoint x="464" y="310" as="targetPoint" />
          </mxGeometry>
        </mxCell>
        <mxCell id="-j06Ovp1fmt5AjjepnFO-49" value="" style="endArrow=none;html=1;rounded=0;strokeColor=light-dark(#fac72c, #ebd9ff);strokeWidth=3;" edge="1" parent="1">
          <mxGeometry width="50" height="50" relative="1" as="geometry">
            <mxPoint x="464" y="310" as="sourcePoint" />
            <mxPoint x="504" y="310" as="targetPoint" />
          </mxGeometry>
        </mxCell>
        <mxCell id="-j06Ovp1fmt5AjjepnFO-50" value="" style="endArrow=none;html=1;rounded=0;strokeColor=light-dark(#fac72c, #ebd9ff);strokeWidth=3;" edge="1" parent="1">
          <mxGeometry width="50" height="50" relative="1" as="geometry">
            <mxPoint x="145" y="350" as="sourcePoint" />
            <mxPoint x="165" y="310" as="targetPoint" />
          </mxGeometry>
        </mxCell>
        <mxCell id="-j06Ovp1fmt5AjjepnFO-51" value="" style="endArrow=none;html=1;rounded=0;strokeColor=light-dark(#fac72c, #ebd9ff);strokeWidth=3;" edge="1" parent="1">
          <mxGeometry width="50" height="50" relative="1" as="geometry">
            <mxPoint x="165" y="310" as="sourcePoint" />
            <mxPoint x="205" y="310" as="targetPoint" />
          </mxGeometry>
        </mxCell>
        <mxCell id="-j06Ovp1fmt5AjjepnFO-52" value="" style="endArrow=none;html=1;rounded=0;strokeColor=light-dark(#fac72c, #ebd9ff);strokeWidth=3;" edge="1" parent="1">
          <mxGeometry width="50" height="50" relative="1" as="geometry">
            <mxPoint x="225" y="350" as="sourcePoint" />
            <mxPoint x="205" y="310" as="targetPoint" />
          </mxGeometry>
        </mxCell>
        <mxCell id="-j06Ovp1fmt5AjjepnFO-53" value="" style="endArrow=none;html=1;rounded=0;strokeColor=light-dark(#fac72c, #ebd9ff);strokeWidth=3;" edge="1" parent="1">
          <mxGeometry width="50" height="50" relative="1" as="geometry">
            <mxPoint x="225" y="350" as="sourcePoint" />
            <mxPoint x="265" y="350" as="targetPoint" />
          </mxGeometry>
        </mxCell>
        <mxCell id="-j06Ovp1fmt5AjjepnFO-54" value="" style="endArrow=none;html=1;rounded=0;strokeColor=light-dark(#fac72c, #ebd9ff);strokeWidth=3;" edge="1" parent="1">
          <mxGeometry width="50" height="50" relative="1" as="geometry">
            <mxPoint x="265" y="350" as="sourcePoint" />
            <mxPoint x="285" y="310" as="targetPoint" />
          </mxGeometry>
        </mxCell>
        <mxCell id="-j06Ovp1fmt5AjjepnFO-55" value="" style="endArrow=none;html=1;rounded=0;strokeColor=light-dark(#fac72c, #ebd9ff);strokeWidth=3;" edge="1" parent="1">
          <mxGeometry width="50" height="50" relative="1" as="geometry">
            <mxPoint x="285" y="310" as="sourcePoint" />
            <mxPoint x="325" y="310" as="targetPoint" />
          </mxGeometry>
        </mxCell>
        <mxCell id="-j06Ovp1fmt5AjjepnFO-56" value="" style="endArrow=none;html=1;rounded=0;strokeColor=light-dark(#fac72c, #ebd9ff);strokeWidth=3;" edge="1" parent="1">
          <mxGeometry width="50" height="50" relative="1" as="geometry">
            <mxPoint x="345" y="350" as="sourcePoint" />
            <mxPoint x="325" y="310" as="targetPoint" />
          </mxGeometry>
        </mxCell>
        <mxCell id="-j06Ovp1fmt5AjjepnFO-57" value="" style="endArrow=none;html=1;rounded=0;strokeColor=light-dark(#fac72c, #ebd9ff);strokeWidth=3;" edge="1" parent="1">
          <mxGeometry width="50" height="50" relative="1" as="geometry">
            <mxPoint x="345" y="350" as="sourcePoint" />
            <mxPoint x="385" y="350" as="targetPoint" />
          </mxGeometry>
        </mxCell>
        <mxCell id="-j06Ovp1fmt5AjjepnFO-58" value="" style="endArrow=none;html=1;rounded=0;strokeColor=light-dark(#fac72c, #ebd9ff);strokeWidth=3;" edge="1" parent="1">
          <mxGeometry width="50" height="50" relative="1" as="geometry">
            <mxPoint x="385" y="350" as="sourcePoint" />
            <mxPoint x="405" y="310" as="targetPoint" />
          </mxGeometry>
        </mxCell>
        <mxCell id="-j06Ovp1fmt5AjjepnFO-59" value="" style="endArrow=none;html=1;rounded=0;strokeColor=light-dark(#fac72c, #ebd9ff);strokeWidth=3;" edge="1" parent="1">
          <mxGeometry width="50" height="50" relative="1" as="geometry">
            <mxPoint x="405" y="310" as="sourcePoint" />
            <mxPoint x="445" y="310" as="targetPoint" />
          </mxGeometry>
        </mxCell>
        <mxCell id="-j06Ovp1fmt5AjjepnFO-60" value="" style="endArrow=none;html=1;rounded=0;strokeColor=light-dark(#fac72c, #ebd9ff);strokeWidth=3;" edge="1" parent="1">
          <mxGeometry width="50" height="50" relative="1" as="geometry">
            <mxPoint x="465" y="350" as="sourcePoint" />
            <mxPoint x="445" y="310" as="targetPoint" />
          </mxGeometry>
        </mxCell>
        <mxCell id="-j06Ovp1fmt5AjjepnFO-61" value="" style="endArrow=none;html=1;rounded=0;strokeColor=light-dark(#fac72c, #ebd9ff);strokeWidth=3;" edge="1" parent="1">
          <mxGeometry width="50" height="50" relative="1" as="geometry">
            <mxPoint x="465" y="350" as="sourcePoint" />
            <mxPoint x="505" y="350" as="targetPoint" />
          </mxGeometry>
        </mxCell>
        <mxCell id="-j06Ovp1fmt5AjjepnFO-62" value="" style="endArrow=none;html=1;rounded=0;strokeColor=light-dark(#fac72c, #ebd9ff);strokeWidth=3;" edge="1" parent="1">
          <mxGeometry width="50" height="50" relative="1" as="geometry">
            <mxPoint x="523" y="350" as="sourcePoint" />
            <mxPoint x="503" y="310" as="targetPoint" />
          </mxGeometry>
        </mxCell>
        <mxCell id="-j06Ovp1fmt5AjjepnFO-63" value="" style="endArrow=none;html=1;rounded=0;strokeColor=light-dark(#fac72c, #ebd9ff);strokeWidth=3;" edge="1" parent="1">
          <mxGeometry width="50" height="50" relative="1" as="geometry">
            <mxPoint x="523" y="350" as="sourcePoint" />
            <mxPoint x="563" y="350" as="targetPoint" />
          </mxGeometry>
        </mxCell>
        <mxCell id="-j06Ovp1fmt5AjjepnFO-64" value="" style="endArrow=none;html=1;rounded=0;strokeColor=light-dark(#fac72c, #ebd9ff);strokeWidth=3;" edge="1" parent="1">
          <mxGeometry width="50" height="50" relative="1" as="geometry">
            <mxPoint x="563" y="350" as="sourcePoint" />
            <mxPoint x="583" y="310" as="targetPoint" />
          </mxGeometry>
        </mxCell>
        <mxCell id="-j06Ovp1fmt5AjjepnFO-65" value="" style="endArrow=none;html=1;rounded=0;strokeColor=light-dark(#fac72c, #ebd9ff);strokeWidth=3;" edge="1" parent="1">
          <mxGeometry width="50" height="50" relative="1" as="geometry">
            <mxPoint x="583" y="310" as="sourcePoint" />
            <mxPoint x="623" y="310" as="targetPoint" />
          </mxGeometry>
        </mxCell>
        <mxCell id="-j06Ovp1fmt5AjjepnFO-66" value="" style="endArrow=none;html=1;rounded=0;strokeColor=light-dark(#fac72c, #ebd9ff);strokeWidth=3;" edge="1" parent="1">
          <mxGeometry width="50" height="50" relative="1" as="geometry">
            <mxPoint x="643" y="350" as="sourcePoint" />
            <mxPoint x="623" y="310" as="targetPoint" />
          </mxGeometry>
        </mxCell>
        <mxCell id="-j06Ovp1fmt5AjjepnFO-67" value="" style="endArrow=none;html=1;rounded=0;strokeColor=light-dark(#fac72c, #ebd9ff);strokeWidth=3;" edge="1" parent="1">
          <mxGeometry width="50" height="50" relative="1" as="geometry">
            <mxPoint x="643" y="350" as="sourcePoint" />
            <mxPoint x="683" y="350" as="targetPoint" />
          </mxGeometry>
        </mxCell>
        <mxCell id="-j06Ovp1fmt5AjjepnFO-68" value="" style="endArrow=none;html=1;rounded=0;strokeColor=light-dark(#fac72c, #ebd9ff);strokeWidth=3;" edge="1" parent="1">
          <mxGeometry width="50" height="50" relative="1" as="geometry">
            <mxPoint x="683" y="350" as="sourcePoint" />
            <mxPoint x="703" y="310" as="targetPoint" />
          </mxGeometry>
        </mxCell>
        <mxCell id="-j06Ovp1fmt5AjjepnFO-69" value="" style="endArrow=none;html=1;rounded=0;strokeColor=light-dark(#fac72c, #ebd9ff);strokeWidth=3;" edge="1" parent="1">
          <mxGeometry width="50" height="50" relative="1" as="geometry">
            <mxPoint x="703" y="310" as="sourcePoint" />
            <mxPoint x="743" y="310" as="targetPoint" />
          </mxGeometry>
        </mxCell>
        <mxCell id="-j06Ovp1fmt5AjjepnFO-70" value="" style="endArrow=none;html=1;rounded=0;strokeColor=light-dark(#fac72c, #ebd9ff);strokeWidth=3;" edge="1" parent="1">
          <mxGeometry width="50" height="50" relative="1" as="geometry">
            <mxPoint x="763" y="350" as="sourcePoint" />
            <mxPoint x="743" y="310" as="targetPoint" />
          </mxGeometry>
        </mxCell>
        <mxCell id="-j06Ovp1fmt5AjjepnFO-71" value="" style="endArrow=none;html=1;rounded=0;strokeColor=light-dark(#fac72c, #ebd9ff);strokeWidth=3;" edge="1" parent="1">
          <mxGeometry width="50" height="50" relative="1" as="geometry">
            <mxPoint x="763" y="350" as="sourcePoint" />
            <mxPoint x="803" y="350" as="targetPoint" />
          </mxGeometry>
        </mxCell>
        <mxCell id="-j06Ovp1fmt5AjjepnFO-72" value="" style="endArrow=none;html=1;rounded=0;strokeColor=light-dark(#fac72c, #ebd9ff);strokeWidth=3;" edge="1" parent="1">
          <mxGeometry width="50" height="50" relative="1" as="geometry">
            <mxPoint x="803" y="350" as="sourcePoint" />
            <mxPoint x="823" y="310" as="targetPoint" />
          </mxGeometry>
        </mxCell>
        <mxCell id="-j06Ovp1fmt5AjjepnFO-73" value="" style="endArrow=none;html=1;rounded=0;strokeColor=light-dark(#fac72c, #ebd9ff);strokeWidth=3;" edge="1" parent="1">
          <mxGeometry width="50" height="50" relative="1" as="geometry">
            <mxPoint x="823" y="310" as="sourcePoint" />
            <mxPoint x="863" y="310" as="targetPoint" />
          </mxGeometry>
        </mxCell>
        <mxCell id="-j06Ovp1fmt5AjjepnFO-74" value="" style="endArrow=none;html=1;rounded=0;strokeColor=light-dark(#fac72c, #ebd9ff);strokeWidth=3;" edge="1" parent="1">
          <mxGeometry width="50" height="50" relative="1" as="geometry">
            <mxPoint x="504" y="350" as="sourcePoint" />
            <mxPoint x="524" y="310" as="targetPoint" />
          </mxGeometry>
        </mxCell>
        <mxCell id="-j06Ovp1fmt5AjjepnFO-75" value="" style="endArrow=none;html=1;rounded=0;strokeColor=light-dark(#fac72c, #ebd9ff);strokeWidth=3;" edge="1" parent="1">
          <mxGeometry width="50" height="50" relative="1" as="geometry">
            <mxPoint x="524" y="310" as="sourcePoint" />
            <mxPoint x="564" y="310" as="targetPoint" />
          </mxGeometry>
        </mxCell>
        <mxCell id="-j06Ovp1fmt5AjjepnFO-76" value="" style="endArrow=none;html=1;rounded=0;strokeColor=light-dark(#fac72c, #ebd9ff);strokeWidth=3;" edge="1" parent="1">
          <mxGeometry width="50" height="50" relative="1" as="geometry">
            <mxPoint x="584" y="350" as="sourcePoint" />
            <mxPoint x="564" y="310" as="targetPoint" />
          </mxGeometry>
        </mxCell>
        <mxCell id="-j06Ovp1fmt5AjjepnFO-77" value="" style="endArrow=none;html=1;rounded=0;strokeColor=light-dark(#fac72c, #ebd9ff);strokeWidth=3;" edge="1" parent="1">
          <mxGeometry width="50" height="50" relative="1" as="geometry">
            <mxPoint x="584" y="350" as="sourcePoint" />
            <mxPoint x="624" y="350" as="targetPoint" />
          </mxGeometry>
        </mxCell>
        <mxCell id="-j06Ovp1fmt5AjjepnFO-78" value="" style="endArrow=none;html=1;rounded=0;strokeColor=light-dark(#fac72c, #ebd9ff);strokeWidth=3;" edge="1" parent="1">
          <mxGeometry width="50" height="50" relative="1" as="geometry">
            <mxPoint x="624" y="350" as="sourcePoint" />
            <mxPoint x="644" y="310" as="targetPoint" />
          </mxGeometry>
        </mxCell>
        <mxCell id="-j06Ovp1fmt5AjjepnFO-79" value="" style="endArrow=none;html=1;rounded=0;strokeColor=light-dark(#fac72c, #ebd9ff);strokeWidth=3;" edge="1" parent="1">
          <mxGeometry width="50" height="50" relative="1" as="geometry">
            <mxPoint x="644" y="310" as="sourcePoint" />
            <mxPoint x="684" y="310" as="targetPoint" />
          </mxGeometry>
        </mxCell>
        <mxCell id="-j06Ovp1fmt5AjjepnFO-80" value="" style="endArrow=none;html=1;rounded=0;strokeColor=light-dark(#fac72c, #ebd9ff);strokeWidth=3;" edge="1" parent="1">
          <mxGeometry width="50" height="50" relative="1" as="geometry">
            <mxPoint x="704" y="350" as="sourcePoint" />
            <mxPoint x="684" y="310" as="targetPoint" />
          </mxGeometry>
        </mxCell>
        <mxCell id="-j06Ovp1fmt5AjjepnFO-81" value="" style="endArrow=none;html=1;rounded=0;strokeColor=light-dark(#fac72c, #ebd9ff);strokeWidth=3;" edge="1" parent="1">
          <mxGeometry width="50" height="50" relative="1" as="geometry">
            <mxPoint x="704" y="350" as="sourcePoint" />
            <mxPoint x="744" y="350" as="targetPoint" />
          </mxGeometry>
        </mxCell>
        <mxCell id="-j06Ovp1fmt5AjjepnFO-82" value="" style="endArrow=none;html=1;rounded=0;strokeColor=light-dark(#fac72c, #ebd9ff);strokeWidth=3;" edge="1" parent="1">
          <mxGeometry width="50" height="50" relative="1" as="geometry">
            <mxPoint x="744" y="350" as="sourcePoint" />
            <mxPoint x="764" y="310" as="targetPoint" />
          </mxGeometry>
        </mxCell>
        <mxCell id="-j06Ovp1fmt5AjjepnFO-83" value="" style="endArrow=none;html=1;rounded=0;strokeColor=light-dark(#fac72c, #ebd9ff);strokeWidth=3;" edge="1" parent="1">
          <mxGeometry width="50" height="50" relative="1" as="geometry">
            <mxPoint x="764" y="310" as="sourcePoint" />
            <mxPoint x="804" y="310" as="targetPoint" />
          </mxGeometry>
        </mxCell>
        <mxCell id="-j06Ovp1fmt5AjjepnFO-84" value="" style="endArrow=none;html=1;rounded=0;strokeColor=light-dark(#fac72c, #ebd9ff);strokeWidth=3;" edge="1" parent="1">
          <mxGeometry width="50" height="50" relative="1" as="geometry">
            <mxPoint x="824" y="350" as="sourcePoint" />
            <mxPoint x="804" y="310" as="targetPoint" />
          </mxGeometry>
        </mxCell>
        <mxCell id="-j06Ovp1fmt5AjjepnFO-85" value="" style="endArrow=none;html=1;rounded=0;strokeColor=light-dark(#fac72c, #ebd9ff);strokeWidth=3;" edge="1" parent="1">
          <mxGeometry width="50" height="50" relative="1" as="geometry">
            <mxPoint x="824" y="350" as="sourcePoint" />
            <mxPoint x="864" y="350" as="targetPoint" />
          </mxGeometry>
        </mxCell>
        <mxCell id="-j06Ovp1fmt5AjjepnFO-86" value="" style="endArrow=none;html=1;rounded=0;strokeColor=#0a0a0a;strokeWidth=3;" edge="1" parent="1">
          <mxGeometry width="50" height="50" relative="1" as="geometry">
            <mxPoint x="675" y="250" as="sourcePoint" />
            <mxPoint x="715" y="250" as="targetPoint" />
          </mxGeometry>
        </mxCell>
        <mxCell id="-j06Ovp1fmt5AjjepnFO-87" value="" style="endArrow=none;html=1;rounded=0;strokeColor=#0a0a0a;strokeWidth=3;" edge="1" parent="1">
          <mxGeometry width="50" height="50" relative="1" as="geometry">
            <mxPoint x="735" y="290" as="sourcePoint" />
            <mxPoint x="715" y="250" as="targetPoint" />
          </mxGeometry>
        </mxCell>
        <mxCell id="-j06Ovp1fmt5AjjepnFO-88" value="" style="endArrow=none;html=1;rounded=0;strokeColor=#0a0a0a;strokeWidth=3;" edge="1" parent="1">
          <mxGeometry width="50" height="50" relative="1" as="geometry">
            <mxPoint x="735" y="290" as="sourcePoint" />
            <mxPoint x="775" y="290" as="targetPoint" />
          </mxGeometry>
        </mxCell>
        <mxCell id="-j06Ovp1fmt5AjjepnFO-89" value="" style="endArrow=classic;html=1;rounded=0;strokeColor=#0a0a0a;strokeWidth=3;endFill=1;" edge="1" parent="1">
          <mxGeometry width="50" height="50" relative="1" as="geometry">
            <mxPoint x="775" y="290" as="sourcePoint" />
            <mxPoint x="795" y="250" as="targetPoint" />
          </mxGeometry>
        </mxCell>
        <mxCell id="-j06Ovp1fmt5AjjepnFO-90" value="" style="endArrow=none;html=1;rounded=0;strokeColor=#0a0a0a;strokeWidth=3;" edge="1" parent="1">
          <mxGeometry width="50" height="50" relative="1" as="geometry">
            <mxPoint x="795" y="250" as="sourcePoint" />
            <mxPoint x="835" y="250" as="targetPoint" />
          </mxGeometry>
        </mxCell>
        <mxCell id="-j06Ovp1fmt5AjjepnFO-91" value="" style="endArrow=none;html=1;rounded=0;strokeColor=#0a0a0a;strokeWidth=3;" edge="1" parent="1">
          <mxGeometry width="50" height="50" relative="1" as="geometry">
            <mxPoint x="855" y="290" as="sourcePoint" />
            <mxPoint x="835" y="250" as="targetPoint" />
          </mxGeometry>
        </mxCell>
        <mxCell id="-j06Ovp1fmt5AjjepnFO-92" value="" style="endArrow=none;html=1;rounded=0;strokeColor=#0a0a0a;strokeWidth=3;" edge="1" parent="1">
          <mxGeometry width="50" height="50" relative="1" as="geometry">
            <mxPoint x="855" y="290" as="sourcePoint" />
            <mxPoint x="895" y="290" as="targetPoint" />
          </mxGeometry>
        </mxCell>
        <mxCell id="-j06Ovp1fmt5AjjepnFO-93" value="" style="endArrow=classic;html=1;rounded=0;strokeColor=#0a0a0a;strokeWidth=3;endFill=1;" edge="1" parent="1">
          <mxGeometry width="50" height="50" relative="1" as="geometry">
            <mxPoint x="895" y="290" as="sourcePoint" />
            <mxPoint x="915" y="250" as="targetPoint" />
          </mxGeometry>
        </mxCell>
        <mxCell id="-j06Ovp1fmt5AjjepnFO-94" value="" style="endArrow=none;html=1;rounded=0;strokeColor=#0a0a0a;strokeWidth=3;" edge="1" parent="1">
          <mxGeometry width="50" height="50" relative="1" as="geometry">
            <mxPoint x="915" y="250" as="sourcePoint" />
            <mxPoint x="955" y="250" as="targetPoint" />
          </mxGeometry>
        </mxCell>
        <mxCell id="-j06Ovp1fmt5AjjepnFO-95" value="" style="endArrow=none;html=1;rounded=0;strokeColor=#0a0a0a;strokeWidth=3;" edge="1" parent="1">
          <mxGeometry width="50" height="50" relative="1" as="geometry">
            <mxPoint x="975" y="290" as="sourcePoint" />
            <mxPoint x="955" y="250" as="targetPoint" />
          </mxGeometry>
        </mxCell>
        <mxCell id="-j06Ovp1fmt5AjjepnFO-96" value="" style="endArrow=none;html=1;rounded=0;strokeColor=#0a0a0a;strokeWidth=3;" edge="1" parent="1">
          <mxGeometry width="50" height="50" relative="1" as="geometry">
            <mxPoint x="975" y="290" as="sourcePoint" />
            <mxPoint x="1015" y="290" as="targetPoint" />
          </mxGeometry>
        </mxCell>
        <mxCell id="-j06Ovp1fmt5AjjepnFO-97" value="" style="endArrow=none;html=1;rounded=0;strokeColor=#0a0a0a;strokeWidth=3;dashed=1;" edge="1" parent="1">
          <mxGeometry width="50" height="50" relative="1" as="geometry">
            <mxPoint x="676" y="290" as="sourcePoint" />
            <mxPoint x="716" y="290" as="targetPoint" />
          </mxGeometry>
        </mxCell>
        <mxCell id="-j06Ovp1fmt5AjjepnFO-98" value="" style="endArrow=none;html=1;rounded=0;strokeColor=#0a0a0a;strokeWidth=3;dashed=1;" edge="1" parent="1">
          <mxGeometry width="50" height="50" relative="1" as="geometry">
            <mxPoint x="716" y="290" as="sourcePoint" />
            <mxPoint x="736" y="250" as="targetPoint" />
          </mxGeometry>
        </mxCell>
        <mxCell id="-j06Ovp1fmt5AjjepnFO-99" value="" style="endArrow=none;html=1;rounded=0;strokeColor=#0a0a0a;strokeWidth=3;dashed=1;" edge="1" parent="1">
          <mxGeometry width="50" height="50" relative="1" as="geometry">
            <mxPoint x="736" y="250" as="sourcePoint" />
            <mxPoint x="776" y="250" as="targetPoint" />
          </mxGeometry>
        </mxCell>
        <mxCell id="-j06Ovp1fmt5AjjepnFO-100" value="" style="endArrow=none;html=1;rounded=0;strokeColor=#0a0a0a;strokeWidth=3;dashed=1;" edge="1" parent="1">
          <mxGeometry width="50" height="50" relative="1" as="geometry">
            <mxPoint x="796" y="290" as="sourcePoint" />
            <mxPoint x="776" y="250" as="targetPoint" />
          </mxGeometry>
        </mxCell>
        <mxCell id="-j06Ovp1fmt5AjjepnFO-101" value="" style="endArrow=none;html=1;rounded=0;strokeColor=#0a0a0a;strokeWidth=3;dashed=1;" edge="1" parent="1">
          <mxGeometry width="50" height="50" relative="1" as="geometry">
            <mxPoint x="796" y="290" as="sourcePoint" />
            <mxPoint x="836" y="290" as="targetPoint" />
          </mxGeometry>
        </mxCell>
        <mxCell id="-j06Ovp1fmt5AjjepnFO-102" value="" style="endArrow=none;html=1;rounded=0;strokeColor=#0a0a0a;strokeWidth=3;dashed=1;" edge="1" parent="1">
          <mxGeometry width="50" height="50" relative="1" as="geometry">
            <mxPoint x="836" y="290" as="sourcePoint" />
            <mxPoint x="856" y="250" as="targetPoint" />
          </mxGeometry>
        </mxCell>
        <mxCell id="-j06Ovp1fmt5AjjepnFO-103" value="" style="endArrow=none;html=1;rounded=0;strokeColor=#0a0a0a;strokeWidth=3;dashed=1;" edge="1" parent="1">
          <mxGeometry width="50" height="50" relative="1" as="geometry">
            <mxPoint x="856" y="250" as="sourcePoint" />
            <mxPoint x="896" y="250" as="targetPoint" />
          </mxGeometry>
        </mxCell>
        <mxCell id="-j06Ovp1fmt5AjjepnFO-104" value="" style="endArrow=none;html=1;rounded=0;strokeColor=#0a0a0a;strokeWidth=3;dashed=1;" edge="1" parent="1">
          <mxGeometry width="50" height="50" relative="1" as="geometry">
            <mxPoint x="916" y="290" as="sourcePoint" />
            <mxPoint x="896" y="250" as="targetPoint" />
          </mxGeometry>
        </mxCell>
        <mxCell id="-j06Ovp1fmt5AjjepnFO-105" value="" style="endArrow=none;html=1;rounded=0;strokeColor=#0a0a0a;strokeWidth=3;dashed=1;" edge="1" parent="1">
          <mxGeometry width="50" height="50" relative="1" as="geometry">
            <mxPoint x="916" y="290" as="sourcePoint" />
            <mxPoint x="956" y="290" as="targetPoint" />
          </mxGeometry>
        </mxCell>
        <mxCell id="-j06Ovp1fmt5AjjepnFO-106" value="" style="endArrow=none;html=1;rounded=0;strokeColor=#0a0a0a;strokeWidth=3;dashed=1;" edge="1" parent="1">
          <mxGeometry width="50" height="50" relative="1" as="geometry">
            <mxPoint x="956" y="290" as="sourcePoint" />
            <mxPoint x="976" y="250" as="targetPoint" />
          </mxGeometry>
        </mxCell>
        <mxCell id="-j06Ovp1fmt5AjjepnFO-107" value="" style="endArrow=none;html=1;rounded=0;strokeColor=#0a0a0a;strokeWidth=3;dashed=1;" edge="1" parent="1">
          <mxGeometry width="50" height="50" relative="1" as="geometry">
            <mxPoint x="976" y="250" as="sourcePoint" />
            <mxPoint x="1016" y="250" as="targetPoint" />
          </mxGeometry>
        </mxCell>
        <mxCell id="-j06Ovp1fmt5AjjepnFO-108" value="DQS_c" style="text;html=1;align=center;verticalAlign=middle;whiteSpace=wrap;rounded=0;fontStyle=1" vertex="1" parent="1">
          <mxGeometry x="75" y="240" width="60" height="20" as="geometry" />
        </mxCell>
        <mxCell id="-j06Ovp1fmt5AjjepnFO-109" value="DQS_t" style="text;html=1;align=center;verticalAlign=middle;whiteSpace=wrap;rounded=0;fontStyle=1" vertex="1" parent="1">
          <mxGeometry x="75" y="280" width="60" height="20" as="geometry" />
        </mxCell>
        <mxCell id="-j06Ovp1fmt5AjjepnFO-110" value="DQ0" style="text;html=1;align=center;verticalAlign=middle;whiteSpace=wrap;rounded=0;fontColor=light-dark(#fac72c, #ebd9ff);fontStyle=1" vertex="1" parent="1">
          <mxGeometry x="75" y="320" width="60" height="20" as="geometry" />
        </mxCell>
        <mxCell id="-j06Ovp1fmt5AjjepnFO-111" value="" style="endArrow=none;dashed=1;html=1;rounded=0;" edge="1" parent="1" source="-j06Ovp1fmt5AjjepnFO-262">
          <mxGeometry width="50" height="50" relative="1" as="geometry">
            <mxPoint x="185" y="850" as="sourcePoint" />
            <mxPoint x="185" y="210" as="targetPoint" />
          </mxGeometry>
        </mxCell>
        <mxCell id="-j06Ovp1fmt5AjjepnFO-112" value="" style="endArrow=none;dashed=1;html=1;rounded=0;" edge="1" parent="1" source="-j06Ovp1fmt5AjjepnFO-264">
          <mxGeometry width="50" height="50" relative="1" as="geometry">
            <mxPoint x="245" y="850" as="sourcePoint" />
            <mxPoint x="245" y="210" as="targetPoint" />
          </mxGeometry>
        </mxCell>
        <mxCell id="-j06Ovp1fmt5AjjepnFO-113" value="" style="endArrow=none;dashed=1;html=1;rounded=0;" edge="1" parent="1">
          <mxGeometry width="50" height="50" relative="1" as="geometry">
            <mxPoint x="305" y="620" as="sourcePoint" />
            <mxPoint x="305" y="210" as="targetPoint" />
          </mxGeometry>
        </mxCell>
        <mxCell id="-j06Ovp1fmt5AjjepnFO-114" value="" style="endArrow=none;dashed=1;html=1;rounded=0;" edge="1" parent="1">
          <mxGeometry width="50" height="50" relative="1" as="geometry">
            <mxPoint x="365" y="680" as="sourcePoint" />
            <mxPoint x="365" y="210" as="targetPoint" />
          </mxGeometry>
        </mxCell>
        <mxCell id="-j06Ovp1fmt5AjjepnFO-115" value="" style="endArrow=none;dashed=1;html=1;rounded=0;" edge="1" parent="1">
          <mxGeometry width="50" height="50" relative="1" as="geometry">
            <mxPoint x="425" y="850" as="sourcePoint" />
            <mxPoint x="425" y="200" as="targetPoint" />
          </mxGeometry>
        </mxCell>
        <mxCell id="-j06Ovp1fmt5AjjepnFO-116" value="" style="endArrow=none;dashed=1;html=1;rounded=0;" edge="1" parent="1">
          <mxGeometry width="50" height="50" relative="1" as="geometry">
            <mxPoint x="485" y="850" as="sourcePoint" />
            <mxPoint x="485" y="200" as="targetPoint" />
          </mxGeometry>
        </mxCell>
        <mxCell id="-j06Ovp1fmt5AjjepnFO-117" value="" style="endArrow=none;dashed=1;html=1;rounded=0;" edge="1" parent="1">
          <mxGeometry width="50" height="50" relative="1" as="geometry">
            <mxPoint x="545" y="840" as="sourcePoint" />
            <mxPoint x="545" y="200" as="targetPoint" />
          </mxGeometry>
        </mxCell>
        <mxCell id="-j06Ovp1fmt5AjjepnFO-118" value="" style="endArrow=none;dashed=1;html=1;rounded=0;" edge="1" parent="1">
          <mxGeometry width="50" height="50" relative="1" as="geometry">
            <mxPoint x="605" y="680" as="sourcePoint" />
            <mxPoint x="605" y="200" as="targetPoint" />
          </mxGeometry>
        </mxCell>
        <mxCell id="-j06Ovp1fmt5AjjepnFO-119" value="" style="endArrow=none;dashed=1;html=1;rounded=0;" edge="1" parent="1">
          <mxGeometry width="50" height="50" relative="1" as="geometry">
            <mxPoint x="665" y="740" as="sourcePoint" />
            <mxPoint x="665" y="200" as="targetPoint" />
          </mxGeometry>
        </mxCell>
        <mxCell id="-j06Ovp1fmt5AjjepnFO-120" value="" style="endArrow=none;dashed=1;html=1;rounded=0;" edge="1" parent="1">
          <mxGeometry width="50" height="50" relative="1" as="geometry">
            <mxPoint x="725" y="800" as="sourcePoint" />
            <mxPoint x="725" y="200" as="targetPoint" />
          </mxGeometry>
        </mxCell>
        <mxCell id="-j06Ovp1fmt5AjjepnFO-121" value="" style="endArrow=none;dashed=1;html=1;rounded=0;" edge="1" parent="1">
          <mxGeometry width="50" height="50" relative="1" as="geometry">
            <mxPoint x="785" y="850" as="sourcePoint" />
            <mxPoint x="785" y="200" as="targetPoint" />
          </mxGeometry>
        </mxCell>
        <mxCell id="-j06Ovp1fmt5AjjepnFO-122" value="" style="endArrow=none;dashed=1;html=1;rounded=0;" edge="1" parent="1">
          <mxGeometry width="50" height="50" relative="1" as="geometry">
            <mxPoint x="845" y="850" as="sourcePoint" />
            <mxPoint x="845" y="200" as="targetPoint" />
          </mxGeometry>
        </mxCell>
        <mxCell id="-j06Ovp1fmt5AjjepnFO-123" value="" style="endArrow=none;html=1;rounded=0;strokeColor=light-dark(#fac72c, #ebd9ff);strokeWidth=3;" edge="1" parent="1">
          <mxGeometry width="50" height="50" relative="1" as="geometry">
            <mxPoint x="862" y="349.71000000000004" as="sourcePoint" />
            <mxPoint x="882" y="309.71000000000004" as="targetPoint" />
          </mxGeometry>
        </mxCell>
        <mxCell id="-j06Ovp1fmt5AjjepnFO-124" value="" style="endArrow=none;html=1;rounded=0;strokeColor=light-dark(#fac72c, #ebd9ff);strokeWidth=3;" edge="1" parent="1">
          <mxGeometry width="50" height="50" relative="1" as="geometry">
            <mxPoint x="882" y="309.71000000000004" as="sourcePoint" />
            <mxPoint x="922" y="309.71000000000004" as="targetPoint" />
          </mxGeometry>
        </mxCell>
        <mxCell id="-j06Ovp1fmt5AjjepnFO-125" value="" style="endArrow=none;html=1;rounded=0;strokeColor=light-dark(#fac72c, #ebd9ff);strokeWidth=3;" edge="1" parent="1">
          <mxGeometry width="50" height="50" relative="1" as="geometry">
            <mxPoint x="942" y="349.71000000000004" as="sourcePoint" />
            <mxPoint x="922" y="309.71000000000004" as="targetPoint" />
          </mxGeometry>
        </mxCell>
        <mxCell id="-j06Ovp1fmt5AjjepnFO-126" value="" style="endArrow=none;html=1;rounded=0;strokeColor=light-dark(#fac72c, #ebd9ff);strokeWidth=3;" edge="1" parent="1">
          <mxGeometry width="50" height="50" relative="1" as="geometry">
            <mxPoint x="942" y="349.71000000000004" as="sourcePoint" />
            <mxPoint x="982" y="349.71000000000004" as="targetPoint" />
          </mxGeometry>
        </mxCell>
        <mxCell id="-j06Ovp1fmt5AjjepnFO-127" value="" style="endArrow=none;html=1;rounded=0;strokeColor=light-dark(#fac72c, #ebd9ff);strokeWidth=3;" edge="1" parent="1">
          <mxGeometry width="50" height="50" relative="1" as="geometry">
            <mxPoint x="982" y="349.71000000000004" as="sourcePoint" />
            <mxPoint x="1002" y="309.71000000000004" as="targetPoint" />
          </mxGeometry>
        </mxCell>
        <mxCell id="-j06Ovp1fmt5AjjepnFO-128" value="" style="endArrow=none;html=1;rounded=0;strokeColor=light-dark(#fac72c, #ebd9ff);strokeWidth=3;" edge="1" parent="1">
          <mxGeometry width="50" height="50" relative="1" as="geometry">
            <mxPoint x="883" y="349.71000000000004" as="sourcePoint" />
            <mxPoint x="863" y="309.71000000000004" as="targetPoint" />
          </mxGeometry>
        </mxCell>
        <mxCell id="-j06Ovp1fmt5AjjepnFO-129" value="" style="endArrow=none;html=1;rounded=0;strokeColor=light-dark(#fac72c, #ebd9ff);strokeWidth=3;" edge="1" parent="1">
          <mxGeometry width="50" height="50" relative="1" as="geometry">
            <mxPoint x="883" y="349.71000000000004" as="sourcePoint" />
            <mxPoint x="923" y="349.71000000000004" as="targetPoint" />
          </mxGeometry>
        </mxCell>
        <mxCell id="-j06Ovp1fmt5AjjepnFO-130" value="" style="endArrow=none;html=1;rounded=0;strokeColor=light-dark(#fac72c, #ebd9ff);strokeWidth=3;" edge="1" parent="1">
          <mxGeometry width="50" height="50" relative="1" as="geometry">
            <mxPoint x="923" y="349.71000000000004" as="sourcePoint" />
            <mxPoint x="943" y="309.71000000000004" as="targetPoint" />
          </mxGeometry>
        </mxCell>
        <mxCell id="-j06Ovp1fmt5AjjepnFO-131" value="" style="endArrow=none;html=1;rounded=0;strokeColor=light-dark(#fac72c, #ebd9ff);strokeWidth=3;" edge="1" parent="1">
          <mxGeometry width="50" height="50" relative="1" as="geometry">
            <mxPoint x="943" y="309.71000000000004" as="sourcePoint" />
            <mxPoint x="983" y="309.71000000000004" as="targetPoint" />
          </mxGeometry>
        </mxCell>
        <mxCell id="-j06Ovp1fmt5AjjepnFO-132" value="" style="endArrow=none;html=1;rounded=0;strokeColor=light-dark(#fac72c, #ebd9ff);strokeWidth=3;" edge="1" parent="1">
          <mxGeometry width="50" height="50" relative="1" as="geometry">
            <mxPoint x="1003" y="349.71000000000004" as="sourcePoint" />
            <mxPoint x="983" y="309.71000000000004" as="targetPoint" />
          </mxGeometry>
        </mxCell>
        <mxCell id="-j06Ovp1fmt5AjjepnFO-249" value="" style="endArrow=none;html=1;rounded=0;strokeColor=light-dark(#fac72c, #ebd9ff);strokeWidth=3;" edge="1" parent="1">
          <mxGeometry width="50" height="50" relative="1" as="geometry">
            <mxPoint x="1120" y="349.58000000000004" as="sourcePoint" />
            <mxPoint x="1160" y="350" as="targetPoint" />
          </mxGeometry>
        </mxCell>
        <mxCell id="-j06Ovp1fmt5AjjepnFO-250" value="" style="endArrow=none;html=1;rounded=0;strokeColor=light-dark(#fac72c, #ebd9ff);strokeWidth=3;" edge="1" parent="1">
          <mxGeometry width="50" height="50" relative="1" as="geometry">
            <mxPoint x="1121" y="309.58000000000004" as="sourcePoint" />
            <mxPoint x="1145" y="310" as="targetPoint" />
          </mxGeometry>
        </mxCell>
        <mxCell id="-j06Ovp1fmt5AjjepnFO-251" value="" style="endArrow=classic;html=1;rounded=0;strokeColor=#0a0a0a;strokeWidth=3;endFill=1;" edge="1" parent="1">
          <mxGeometry width="50" height="50" relative="1" as="geometry">
            <mxPoint x="1015" y="290" as="sourcePoint" />
            <mxPoint x="1035" y="250" as="targetPoint" />
          </mxGeometry>
        </mxCell>
        <mxCell id="-j06Ovp1fmt5AjjepnFO-252" value="" style="endArrow=none;html=1;rounded=0;strokeColor=#0a0a0a;strokeWidth=3;dashed=1;" edge="1" parent="1">
          <mxGeometry width="50" height="50" relative="1" as="geometry">
            <mxPoint x="1036" y="290" as="sourcePoint" />
            <mxPoint x="1016" y="250" as="targetPoint" />
          </mxGeometry>
        </mxCell>
        <mxCell id="-j06Ovp1fmt5AjjepnFO-261" value="" style="endArrow=none;dashed=1;html=1;rounded=0;" edge="1" parent="1" target="-j06Ovp1fmt5AjjepnFO-262">
          <mxGeometry width="50" height="50" relative="1" as="geometry">
            <mxPoint x="185" y="850" as="sourcePoint" />
            <mxPoint x="185" y="210" as="targetPoint" />
          </mxGeometry>
        </mxCell>
        <mxCell id="-j06Ovp1fmt5AjjepnFO-262" value="D0" style="text;html=1;align=center;verticalAlign=middle;whiteSpace=wrap;rounded=0;fontColor=#0a0a0a;fontStyle=1;strokeColor=light-dark(#fac72c, #ebd9ff);" vertex="1" parent="1">
          <mxGeometry x="165" y="320" width="40" height="20" as="geometry" />
        </mxCell>
        <mxCell id="-j06Ovp1fmt5AjjepnFO-263" value="" style="endArrow=none;dashed=1;html=1;rounded=0;" edge="1" parent="1" target="-j06Ovp1fmt5AjjepnFO-264">
          <mxGeometry width="50" height="50" relative="1" as="geometry">
            <mxPoint x="245" y="850" as="sourcePoint" />
            <mxPoint x="245" y="210" as="targetPoint" />
          </mxGeometry>
        </mxCell>
        <mxCell id="-j06Ovp1fmt5AjjepnFO-264" value="D4" style="text;html=1;align=center;verticalAlign=middle;whiteSpace=wrap;rounded=0;fontColor=#0a0a0a;fontStyle=1;strokeColor=light-dark(#fac72c, #ebd9ff);" vertex="1" parent="1">
          <mxGeometry x="225" y="320" width="40" height="20" as="geometry" />
        </mxCell>
        <mxCell id="-j06Ovp1fmt5AjjepnFO-265" value="D8" style="text;html=1;align=center;verticalAlign=middle;whiteSpace=wrap;rounded=0;fontColor=#0a0a0a;fontStyle=1;strokeColor=light-dark(#fac72c, #ebd9ff);" vertex="1" parent="1">
          <mxGeometry x="285" y="320" width="40" height="20" as="geometry" />
        </mxCell>
        <mxCell id="-j06Ovp1fmt5AjjepnFO-266" value="D12" style="text;html=1;align=center;verticalAlign=middle;whiteSpace=wrap;rounded=0;fontColor=#0a0a0a;fontStyle=1;strokeColor=light-dark(#fac72c, #ebd9ff);" vertex="1" parent="1">
          <mxGeometry x="345" y="320" width="40" height="20" as="geometry" />
        </mxCell>
        <mxCell id="-j06Ovp1fmt5AjjepnFO-267" value="D16" style="text;html=1;align=center;verticalAlign=middle;whiteSpace=wrap;rounded=0;fontColor=#0a0a0a;fontStyle=1;strokeColor=light-dark(#fac72c, #ebd9ff);" vertex="1" parent="1">
          <mxGeometry x="405" y="320" width="40" height="20" as="geometry" />
        </mxCell>
        <mxCell id="-j06Ovp1fmt5AjjepnFO-268" value="D20" style="text;html=1;align=center;verticalAlign=middle;whiteSpace=wrap;rounded=0;fontColor=#0a0a0a;fontStyle=1;strokeColor=light-dark(#fac72c, #ebd9ff);" vertex="1" parent="1">
          <mxGeometry x="465" y="320" width="40" height="20" as="geometry" />
        </mxCell>
        <mxCell id="-j06Ovp1fmt5AjjepnFO-269" value="D24" style="text;html=1;align=center;verticalAlign=middle;whiteSpace=wrap;rounded=0;fontColor=#0a0a0a;fontStyle=1;strokeColor=light-dark(#fac72c, #ebd9ff);" vertex="1" parent="1">
          <mxGeometry x="525" y="320" width="40" height="20" as="geometry" />
        </mxCell>
        <mxCell id="-j06Ovp1fmt5AjjepnFO-270" value="D28" style="text;html=1;align=center;verticalAlign=middle;whiteSpace=wrap;rounded=0;fontColor=#0a0a0a;fontStyle=1;strokeColor=light-dark(#fac72c, #ebd9ff);" vertex="1" parent="1">
          <mxGeometry x="585" y="320" width="40" height="20" as="geometry" />
        </mxCell>
        <mxCell id="-j06Ovp1fmt5AjjepnFO-271" value="D32" style="text;html=1;align=center;verticalAlign=middle;whiteSpace=wrap;rounded=0;fontColor=#0a0a0a;fontStyle=1;strokeColor=light-dark(#fac72c, #ebd9ff);" vertex="1" parent="1">
          <mxGeometry x="645" y="320" width="40" height="20" as="geometry" />
        </mxCell>
        <mxCell id="-j06Ovp1fmt5AjjepnFO-272" value="D36" style="text;html=1;align=center;verticalAlign=middle;whiteSpace=wrap;rounded=0;fontColor=#0a0a0a;fontStyle=1;strokeColor=light-dark(#fac72c, #ebd9ff);" vertex="1" parent="1">
          <mxGeometry x="705" y="320" width="40" height="20" as="geometry" />
        </mxCell>
        <mxCell id="-j06Ovp1fmt5AjjepnFO-273" value="D40" style="text;html=1;align=center;verticalAlign=middle;whiteSpace=wrap;rounded=0;fontColor=#0a0a0a;fontStyle=1;strokeColor=light-dark(#fac72c, #ebd9ff);" vertex="1" parent="1">
          <mxGeometry x="765" y="320" width="40" height="20" as="geometry" />
        </mxCell>
        <mxCell id="-j06Ovp1fmt5AjjepnFO-274" value="D44" style="text;html=1;align=center;verticalAlign=middle;whiteSpace=wrap;rounded=0;fontColor=#0a0a0a;fontStyle=1;strokeColor=light-dark(#fac72c, #ebd9ff);" vertex="1" parent="1">
          <mxGeometry x="825" y="320" width="40" height="20" as="geometry" />
        </mxCell>
        <mxCell id="-j06Ovp1fmt5AjjepnFO-275" value="D48" style="text;html=1;align=center;verticalAlign=middle;whiteSpace=wrap;rounded=0;fontColor=#0a0a0a;fontStyle=1;strokeColor=light-dark(#fac72c, #ebd9ff);" vertex="1" parent="1">
          <mxGeometry x="885" y="320" width="40" height="20" as="geometry" />
        </mxCell>
        <mxCell id="-j06Ovp1fmt5AjjepnFO-276" value="D52" style="text;html=1;align=center;verticalAlign=middle;whiteSpace=wrap;rounded=0;fontColor=#0a0a0a;fontStyle=1;strokeColor=light-dark(#fac72c, #ebd9ff);" vertex="1" parent="1">
          <mxGeometry x="945" y="320" width="40" height="20" as="geometry" />
        </mxCell>
        <mxCell id="-j06Ovp1fmt5AjjepnFO-290" value="" style="endArrow=none;dashed=1;html=1;rounded=0;" edge="1" parent="1">
          <mxGeometry width="50" height="50" relative="1" as="geometry">
            <mxPoint x="904.5" y="850" as="sourcePoint" />
            <mxPoint x="904.5" y="200" as="targetPoint" />
          </mxGeometry>
        </mxCell>
        <mxCell id="-j06Ovp1fmt5AjjepnFO-291" value="" style="endArrow=none;dashed=1;html=1;rounded=0;" edge="1" parent="1">
          <mxGeometry width="50" height="50" relative="1" as="geometry">
            <mxPoint x="964.5" y="850" as="sourcePoint" />
            <mxPoint x="964.5" y="200" as="targetPoint" />
          </mxGeometry>
        </mxCell>
        <mxCell id="-j06Ovp1fmt5AjjepnFO-292" value="" style="endArrow=none;html=1;rounded=0;strokeColor=#0a0a0a;strokeWidth=3;" edge="1" parent="1">
          <mxGeometry width="50" height="50" relative="1" as="geometry">
            <mxPoint x="1034" y="250" as="sourcePoint" />
            <mxPoint x="1074" y="250" as="targetPoint" />
          </mxGeometry>
        </mxCell>
        <mxCell id="-j06Ovp1fmt5AjjepnFO-293" value="" style="endArrow=none;html=1;rounded=0;strokeColor=#0a0a0a;strokeWidth=3;" edge="1" parent="1">
          <mxGeometry width="50" height="50" relative="1" as="geometry">
            <mxPoint x="1094" y="290" as="sourcePoint" />
            <mxPoint x="1074" y="250" as="targetPoint" />
          </mxGeometry>
        </mxCell>
        <mxCell id="-j06Ovp1fmt5AjjepnFO-294" value="" style="endArrow=none;html=1;rounded=0;strokeColor=#0a0a0a;strokeWidth=3;" edge="1" parent="1">
          <mxGeometry width="50" height="50" relative="1" as="geometry">
            <mxPoint x="1094" y="290" as="sourcePoint" />
            <mxPoint x="1134" y="290" as="targetPoint" />
          </mxGeometry>
        </mxCell>
        <mxCell id="-j06Ovp1fmt5AjjepnFO-295" value="" style="endArrow=classic;html=1;rounded=0;strokeColor=#0a0a0a;strokeWidth=3;endFill=1;" edge="1" parent="1">
          <mxGeometry width="50" height="50" relative="1" as="geometry">
            <mxPoint x="1134" y="290" as="sourcePoint" />
            <mxPoint x="1154" y="250" as="targetPoint" />
          </mxGeometry>
        </mxCell>
        <mxCell id="-j06Ovp1fmt5AjjepnFO-296" value="" style="endArrow=none;html=1;rounded=0;strokeColor=#0a0a0a;strokeWidth=3;" edge="1" parent="1">
          <mxGeometry width="50" height="50" relative="1" as="geometry">
            <mxPoint x="1154" y="250" as="sourcePoint" />
            <mxPoint x="1194" y="250" as="targetPoint" />
          </mxGeometry>
        </mxCell>
        <mxCell id="-j06Ovp1fmt5AjjepnFO-297" value="" style="endArrow=none;html=1;rounded=0;strokeColor=#0a0a0a;strokeWidth=3;" edge="1" parent="1">
          <mxGeometry width="50" height="50" relative="1" as="geometry">
            <mxPoint x="1214" y="290" as="sourcePoint" />
            <mxPoint x="1194" y="250" as="targetPoint" />
          </mxGeometry>
        </mxCell>
        <mxCell id="-j06Ovp1fmt5AjjepnFO-298" value="" style="endArrow=none;html=1;rounded=0;strokeColor=#0a0a0a;strokeWidth=3;" edge="1" parent="1">
          <mxGeometry width="50" height="50" relative="1" as="geometry">
            <mxPoint x="1214" y="290" as="sourcePoint" />
            <mxPoint x="1254" y="290" as="targetPoint" />
          </mxGeometry>
        </mxCell>
        <mxCell id="-j06Ovp1fmt5AjjepnFO-299" value="" style="endArrow=none;html=1;rounded=0;strokeColor=#0a0a0a;strokeWidth=3;dashed=1;" edge="1" parent="1">
          <mxGeometry width="50" height="50" relative="1" as="geometry">
            <mxPoint x="1035" y="290" as="sourcePoint" />
            <mxPoint x="1075" y="290" as="targetPoint" />
          </mxGeometry>
        </mxCell>
        <mxCell id="-j06Ovp1fmt5AjjepnFO-300" value="" style="endArrow=none;html=1;rounded=0;strokeColor=#0a0a0a;strokeWidth=3;dashed=1;" edge="1" parent="1">
          <mxGeometry width="50" height="50" relative="1" as="geometry">
            <mxPoint x="1075" y="290" as="sourcePoint" />
            <mxPoint x="1095" y="250" as="targetPoint" />
          </mxGeometry>
        </mxCell>
        <mxCell id="-j06Ovp1fmt5AjjepnFO-301" value="" style="endArrow=none;html=1;rounded=0;strokeColor=#0a0a0a;strokeWidth=3;dashed=1;" edge="1" parent="1">
          <mxGeometry width="50" height="50" relative="1" as="geometry">
            <mxPoint x="1095" y="250" as="sourcePoint" />
            <mxPoint x="1135" y="250" as="targetPoint" />
          </mxGeometry>
        </mxCell>
        <mxCell id="-j06Ovp1fmt5AjjepnFO-302" value="" style="endArrow=none;html=1;rounded=0;strokeColor=#0a0a0a;strokeWidth=3;dashed=1;" edge="1" parent="1">
          <mxGeometry width="50" height="50" relative="1" as="geometry">
            <mxPoint x="1155" y="290" as="sourcePoint" />
            <mxPoint x="1135" y="250" as="targetPoint" />
          </mxGeometry>
        </mxCell>
        <mxCell id="-j06Ovp1fmt5AjjepnFO-303" value="" style="endArrow=none;html=1;rounded=0;strokeColor=#0a0a0a;strokeWidth=3;dashed=1;" edge="1" parent="1">
          <mxGeometry width="50" height="50" relative="1" as="geometry">
            <mxPoint x="1155" y="290" as="sourcePoint" />
            <mxPoint x="1195" y="290" as="targetPoint" />
          </mxGeometry>
        </mxCell>
        <mxCell id="-j06Ovp1fmt5AjjepnFO-304" value="" style="endArrow=none;html=1;rounded=0;strokeColor=#0a0a0a;strokeWidth=3;dashed=1;" edge="1" parent="1">
          <mxGeometry width="50" height="50" relative="1" as="geometry">
            <mxPoint x="1195" y="290" as="sourcePoint" />
            <mxPoint x="1215" y="250" as="targetPoint" />
          </mxGeometry>
        </mxCell>
        <mxCell id="-j06Ovp1fmt5AjjepnFO-305" value="" style="endArrow=none;html=1;rounded=0;strokeColor=#0a0a0a;strokeWidth=3;dashed=1;" edge="1" parent="1">
          <mxGeometry width="50" height="50" relative="1" as="geometry">
            <mxPoint x="1215" y="250" as="sourcePoint" />
            <mxPoint x="1255" y="250" as="targetPoint" />
          </mxGeometry>
        </mxCell>
        <mxCell id="-j06Ovp1fmt5AjjepnFO-306" value="" style="endArrow=classic;html=1;rounded=0;strokeColor=#0a0a0a;strokeWidth=3;endFill=1;" edge="1" parent="1">
          <mxGeometry width="50" height="50" relative="1" as="geometry">
            <mxPoint x="1254" y="290" as="sourcePoint" />
            <mxPoint x="1274" y="250" as="targetPoint" />
          </mxGeometry>
        </mxCell>
        <mxCell id="-j06Ovp1fmt5AjjepnFO-307" value="" style="endArrow=none;html=1;rounded=0;strokeColor=#0a0a0a;strokeWidth=3;dashed=1;" edge="1" parent="1">
          <mxGeometry width="50" height="50" relative="1" as="geometry">
            <mxPoint x="1275" y="290" as="sourcePoint" />
            <mxPoint x="1255" y="250" as="targetPoint" />
          </mxGeometry>
        </mxCell>
        <mxCell id="-j06Ovp1fmt5AjjepnFO-308" value="" style="endArrow=none;dashed=1;html=1;rounded=0;" edge="1" parent="1">
          <mxGeometry width="50" height="50" relative="1" as="geometry">
            <mxPoint x="1025" y="835" as="sourcePoint" />
            <mxPoint x="1025" y="185" as="targetPoint" />
          </mxGeometry>
        </mxCell>
        <mxCell id="-j06Ovp1fmt5AjjepnFO-309" value="" style="endArrow=none;dashed=1;html=1;rounded=0;" edge="1" parent="1">
          <mxGeometry width="50" height="50" relative="1" as="geometry">
            <mxPoint x="1085" y="835" as="sourcePoint" />
            <mxPoint x="1085" y="185" as="targetPoint" />
          </mxGeometry>
        </mxCell>
        <mxCell id="-j06Ovp1fmt5AjjepnFO-310" value="" style="endArrow=none;dashed=1;html=1;rounded=0;" edge="1" parent="1">
          <mxGeometry width="50" height="50" relative="1" as="geometry">
            <mxPoint x="1144.5" y="835" as="sourcePoint" />
            <mxPoint x="1144.5" y="185" as="targetPoint" />
          </mxGeometry>
        </mxCell>
        <mxCell id="-j06Ovp1fmt5AjjepnFO-311" value="" style="endArrow=none;dashed=1;html=1;rounded=0;" edge="1" parent="1">
          <mxGeometry width="50" height="50" relative="1" as="geometry">
            <mxPoint x="1204.5" y="835" as="sourcePoint" />
            <mxPoint x="1204.5" y="185" as="targetPoint" />
          </mxGeometry>
        </mxCell>
        <mxCell id="-j06Ovp1fmt5AjjepnFO-312" value="" style="endArrow=none;html=1;rounded=0;strokeColor=light-dark(#fac72c, #ebd9ff);strokeWidth=3;" edge="1" parent="1">
          <mxGeometry width="50" height="50" relative="1" as="geometry">
            <mxPoint x="1001" y="349.71000000000004" as="sourcePoint" />
            <mxPoint x="1041" y="349.71000000000004" as="targetPoint" />
          </mxGeometry>
        </mxCell>
        <mxCell id="-j06Ovp1fmt5AjjepnFO-313" value="" style="endArrow=none;html=1;rounded=0;strokeColor=light-dark(#fac72c, #ebd9ff);strokeWidth=3;" edge="1" parent="1">
          <mxGeometry width="50" height="50" relative="1" as="geometry">
            <mxPoint x="1041" y="349.71000000000004" as="sourcePoint" />
            <mxPoint x="1061" y="309.71000000000004" as="targetPoint" />
          </mxGeometry>
        </mxCell>
        <mxCell id="-j06Ovp1fmt5AjjepnFO-314" value="" style="endArrow=none;html=1;rounded=0;strokeColor=light-dark(#fac72c, #ebd9ff);strokeWidth=3;" edge="1" parent="1">
          <mxGeometry width="50" height="50" relative="1" as="geometry">
            <mxPoint x="1002" y="309.71000000000004" as="sourcePoint" />
            <mxPoint x="1042" y="309.71000000000004" as="targetPoint" />
          </mxGeometry>
        </mxCell>
        <mxCell id="-j06Ovp1fmt5AjjepnFO-315" value="" style="endArrow=none;html=1;rounded=0;strokeColor=light-dark(#fac72c, #ebd9ff);strokeWidth=3;" edge="1" parent="1">
          <mxGeometry width="50" height="50" relative="1" as="geometry">
            <mxPoint x="1062" y="349.71000000000004" as="sourcePoint" />
            <mxPoint x="1042" y="309.71000000000004" as="targetPoint" />
          </mxGeometry>
        </mxCell>
        <mxCell id="-j06Ovp1fmt5AjjepnFO-316" value="D56" style="text;html=1;align=center;verticalAlign=middle;whiteSpace=wrap;rounded=0;fontColor=#0a0a0a;fontStyle=1;strokeColor=light-dark(#fac72c, #ebd9ff);" vertex="1" parent="1">
          <mxGeometry x="1004" y="320" width="40" height="20" as="geometry" />
        </mxCell>
        <mxCell id="-j06Ovp1fmt5AjjepnFO-317" value="" style="endArrow=none;html=1;rounded=0;strokeColor=light-dark(#fac72c, #ebd9ff);strokeWidth=3;" edge="1" parent="1">
          <mxGeometry width="50" height="50" relative="1" as="geometry">
            <mxPoint x="1060" y="349.71000000000004" as="sourcePoint" />
            <mxPoint x="1100" y="349.71000000000004" as="targetPoint" />
          </mxGeometry>
        </mxCell>
        <mxCell id="-j06Ovp1fmt5AjjepnFO-318" value="" style="endArrow=none;html=1;rounded=0;strokeColor=light-dark(#fac72c, #ebd9ff);strokeWidth=3;" edge="1" parent="1">
          <mxGeometry width="50" height="50" relative="1" as="geometry">
            <mxPoint x="1100" y="349.71000000000004" as="sourcePoint" />
            <mxPoint x="1120" y="309.71000000000004" as="targetPoint" />
          </mxGeometry>
        </mxCell>
        <mxCell id="-j06Ovp1fmt5AjjepnFO-319" value="" style="endArrow=none;html=1;rounded=0;strokeColor=light-dark(#fac72c, #ebd9ff);strokeWidth=3;" edge="1" parent="1">
          <mxGeometry width="50" height="50" relative="1" as="geometry">
            <mxPoint x="1061" y="309.71000000000004" as="sourcePoint" />
            <mxPoint x="1101" y="309.71000000000004" as="targetPoint" />
          </mxGeometry>
        </mxCell>
        <mxCell id="-j06Ovp1fmt5AjjepnFO-320" value="" style="endArrow=none;html=1;rounded=0;strokeColor=light-dark(#fac72c, #ebd9ff);strokeWidth=3;" edge="1" parent="1">
          <mxGeometry width="50" height="50" relative="1" as="geometry">
            <mxPoint x="1121" y="349.71000000000004" as="sourcePoint" />
            <mxPoint x="1101" y="309.71000000000004" as="targetPoint" />
          </mxGeometry>
        </mxCell>
        <mxCell id="-j06Ovp1fmt5AjjepnFO-321" value="D60" style="text;html=1;align=center;verticalAlign=middle;whiteSpace=wrap;rounded=0;fontColor=#0a0a0a;fontStyle=1;strokeColor=light-dark(#fac72c, #ebd9ff);" vertex="1" parent="1">
          <mxGeometry x="1063" y="320" width="40" height="20" as="geometry" />
        </mxCell>
        <mxCell id="-j06Ovp1fmt5AjjepnFO-322" value="" style="endArrow=none;html=1;rounded=0;strokeColor=light-dark(#fac72c, #ebd9ff);strokeWidth=3;" edge="1" parent="1">
          <mxGeometry width="50" height="50" relative="1" as="geometry">
            <mxPoint x="1237" y="349.58000000000004" as="sourcePoint" />
            <mxPoint x="1262" y="350" as="targetPoint" />
          </mxGeometry>
        </mxCell>
        <mxCell id="-j06Ovp1fmt5AjjepnFO-323" value="" style="endArrow=none;html=1;rounded=0;strokeColor=light-dark(#fac72c, #ebd9ff);strokeWidth=3;" edge="1" parent="1">
          <mxGeometry width="50" height="50" relative="1" as="geometry">
            <mxPoint x="1238" y="309.58000000000004" as="sourcePoint" />
            <mxPoint x="1262" y="310" as="targetPoint" />
          </mxGeometry>
        </mxCell>
        <mxCell id="-j06Ovp1fmt5AjjepnFO-324" value="" style="endArrow=none;html=1;rounded=0;strokeColor=light-dark(#fac72c, #ebd9ff);strokeWidth=3;" edge="1" parent="1">
          <mxGeometry width="50" height="50" relative="1" as="geometry">
            <mxPoint x="1158" y="349.71000000000004" as="sourcePoint" />
            <mxPoint x="1178" y="309.71000000000004" as="targetPoint" />
          </mxGeometry>
        </mxCell>
        <mxCell id="-j06Ovp1fmt5AjjepnFO-325" value="" style="endArrow=none;html=1;rounded=0;strokeColor=light-dark(#fac72c, #ebd9ff);strokeWidth=3;" edge="1" parent="1">
          <mxGeometry width="50" height="50" relative="1" as="geometry">
            <mxPoint x="1119" y="309.71000000000004" as="sourcePoint" />
            <mxPoint x="1159" y="309.71000000000004" as="targetPoint" />
          </mxGeometry>
        </mxCell>
        <mxCell id="-j06Ovp1fmt5AjjepnFO-326" value="" style="endArrow=none;html=1;rounded=0;strokeColor=light-dark(#fac72c, #ebd9ff);strokeWidth=3;" edge="1" parent="1">
          <mxGeometry width="50" height="50" relative="1" as="geometry">
            <mxPoint x="1179" y="349.71000000000004" as="sourcePoint" />
            <mxPoint x="1159" y="309.71000000000004" as="targetPoint" />
          </mxGeometry>
        </mxCell>
        <mxCell id="-j06Ovp1fmt5AjjepnFO-327" value="CRC0" style="text;html=1;align=center;verticalAlign=middle;whiteSpace=wrap;rounded=0;fontColor=#0a0a0a;fontStyle=1;strokeColor=light-dark(#fac72c, #ebd9ff);" vertex="1" parent="1">
          <mxGeometry x="1121" y="320" width="40" height="20" as="geometry" />
        </mxCell>
        <mxCell id="-j06Ovp1fmt5AjjepnFO-328" value="" style="endArrow=none;html=1;rounded=0;strokeColor=light-dark(#fac72c, #ebd9ff);strokeWidth=3;" edge="1" parent="1">
          <mxGeometry width="50" height="50" relative="1" as="geometry">
            <mxPoint x="1177" y="349.71000000000004" as="sourcePoint" />
            <mxPoint x="1217" y="349.71000000000004" as="targetPoint" />
          </mxGeometry>
        </mxCell>
        <mxCell id="-j06Ovp1fmt5AjjepnFO-329" value="" style="endArrow=none;html=1;rounded=0;strokeColor=light-dark(#fac72c, #ebd9ff);strokeWidth=3;" edge="1" parent="1">
          <mxGeometry width="50" height="50" relative="1" as="geometry">
            <mxPoint x="1217" y="349.71000000000004" as="sourcePoint" />
            <mxPoint x="1237" y="309.71000000000004" as="targetPoint" />
          </mxGeometry>
        </mxCell>
        <mxCell id="-j06Ovp1fmt5AjjepnFO-330" value="" style="endArrow=none;html=1;rounded=0;strokeColor=light-dark(#fac72c, #ebd9ff);strokeWidth=3;" edge="1" parent="1">
          <mxGeometry width="50" height="50" relative="1" as="geometry">
            <mxPoint x="1178" y="309.71000000000004" as="sourcePoint" />
            <mxPoint x="1218" y="309.71000000000004" as="targetPoint" />
          </mxGeometry>
        </mxCell>
        <mxCell id="-j06Ovp1fmt5AjjepnFO-331" value="" style="endArrow=none;html=1;rounded=0;strokeColor=light-dark(#fac72c, #ebd9ff);strokeWidth=3;" edge="1" parent="1">
          <mxGeometry width="50" height="50" relative="1" as="geometry">
            <mxPoint x="1238" y="349.71000000000004" as="sourcePoint" />
            <mxPoint x="1218" y="309.71000000000004" as="targetPoint" />
          </mxGeometry>
        </mxCell>
        <mxCell id="-j06Ovp1fmt5AjjepnFO-332" value="CRC4" style="text;html=1;align=center;verticalAlign=middle;whiteSpace=wrap;rounded=0;fontColor=#0a0a0a;fontStyle=1;strokeColor=light-dark(#fac72c, #ebd9ff);" vertex="1" parent="1">
          <mxGeometry x="1180" y="320" width="40" height="20" as="geometry" />
        </mxCell>
        <mxCell id="-j06Ovp1fmt5AjjepnFO-333" value="" style="endArrow=none;html=1;rounded=0;strokeColor=light-dark(#82b366, #ebd9ff);strokeWidth=3;" edge="1" parent="1">
          <mxGeometry width="50" height="50" relative="1" as="geometry">
            <mxPoint x="164" y="412" as="sourcePoint" />
            <mxPoint x="144" y="372" as="targetPoint" />
          </mxGeometry>
        </mxCell>
        <mxCell id="-j06Ovp1fmt5AjjepnFO-334" value="" style="endArrow=none;html=1;rounded=0;strokeColor=light-dark(#82b366, #ebd9ff);strokeWidth=3;" edge="1" parent="1">
          <mxGeometry width="50" height="50" relative="1" as="geometry">
            <mxPoint x="164" y="412" as="sourcePoint" />
            <mxPoint x="204" y="412" as="targetPoint" />
          </mxGeometry>
        </mxCell>
        <mxCell id="-j06Ovp1fmt5AjjepnFO-335" value="" style="endArrow=none;html=1;rounded=0;strokeColor=light-dark(#82b366, #ebd9ff);strokeWidth=3;" edge="1" parent="1">
          <mxGeometry width="50" height="50" relative="1" as="geometry">
            <mxPoint x="204" y="412" as="sourcePoint" />
            <mxPoint x="224" y="372" as="targetPoint" />
          </mxGeometry>
        </mxCell>
        <mxCell id="-j06Ovp1fmt5AjjepnFO-336" value="" style="endArrow=none;html=1;rounded=0;strokeColor=light-dark(#82b366, #ebd9ff);strokeWidth=3;" edge="1" parent="1">
          <mxGeometry width="50" height="50" relative="1" as="geometry">
            <mxPoint x="224" y="372" as="sourcePoint" />
            <mxPoint x="264" y="372" as="targetPoint" />
          </mxGeometry>
        </mxCell>
        <mxCell id="-j06Ovp1fmt5AjjepnFO-337" value="" style="endArrow=none;html=1;rounded=0;strokeColor=light-dark(#82b366, #ebd9ff);strokeWidth=3;" edge="1" parent="1">
          <mxGeometry width="50" height="50" relative="1" as="geometry">
            <mxPoint x="284" y="412" as="sourcePoint" />
            <mxPoint x="264" y="372" as="targetPoint" />
          </mxGeometry>
        </mxCell>
        <mxCell id="-j06Ovp1fmt5AjjepnFO-338" value="" style="endArrow=none;html=1;rounded=0;strokeColor=light-dark(#82b366, #ebd9ff);strokeWidth=3;" edge="1" parent="1">
          <mxGeometry width="50" height="50" relative="1" as="geometry">
            <mxPoint x="284" y="412" as="sourcePoint" />
            <mxPoint x="324" y="412" as="targetPoint" />
          </mxGeometry>
        </mxCell>
        <mxCell id="-j06Ovp1fmt5AjjepnFO-339" value="" style="endArrow=none;html=1;rounded=0;strokeColor=light-dark(#82b366, #ebd9ff);strokeWidth=3;" edge="1" parent="1">
          <mxGeometry width="50" height="50" relative="1" as="geometry">
            <mxPoint x="324" y="412" as="sourcePoint" />
            <mxPoint x="344" y="372" as="targetPoint" />
          </mxGeometry>
        </mxCell>
        <mxCell id="-j06Ovp1fmt5AjjepnFO-340" value="" style="endArrow=none;html=1;rounded=0;strokeColor=light-dark(#82b366, #ebd9ff);strokeWidth=3;" edge="1" parent="1">
          <mxGeometry width="50" height="50" relative="1" as="geometry">
            <mxPoint x="344" y="372" as="sourcePoint" />
            <mxPoint x="384" y="372" as="targetPoint" />
          </mxGeometry>
        </mxCell>
        <mxCell id="-j06Ovp1fmt5AjjepnFO-341" value="" style="endArrow=none;html=1;rounded=0;strokeColor=light-dark(#82b366, #ebd9ff);strokeWidth=3;" edge="1" parent="1">
          <mxGeometry width="50" height="50" relative="1" as="geometry">
            <mxPoint x="404" y="412" as="sourcePoint" />
            <mxPoint x="384" y="372" as="targetPoint" />
          </mxGeometry>
        </mxCell>
        <mxCell id="-j06Ovp1fmt5AjjepnFO-342" value="" style="endArrow=none;html=1;rounded=0;strokeColor=light-dark(#82b366, #ebd9ff);strokeWidth=3;" edge="1" parent="1">
          <mxGeometry width="50" height="50" relative="1" as="geometry">
            <mxPoint x="404" y="412" as="sourcePoint" />
            <mxPoint x="444" y="412" as="targetPoint" />
          </mxGeometry>
        </mxCell>
        <mxCell id="-j06Ovp1fmt5AjjepnFO-343" value="" style="endArrow=none;html=1;rounded=0;strokeColor=light-dark(#82b366, #ebd9ff);strokeWidth=3;" edge="1" parent="1">
          <mxGeometry width="50" height="50" relative="1" as="geometry">
            <mxPoint x="444" y="412" as="sourcePoint" />
            <mxPoint x="464" y="372" as="targetPoint" />
          </mxGeometry>
        </mxCell>
        <mxCell id="-j06Ovp1fmt5AjjepnFO-344" value="" style="endArrow=none;html=1;rounded=0;strokeColor=light-dark(#82b366, #ebd9ff);strokeWidth=3;" edge="1" parent="1">
          <mxGeometry width="50" height="50" relative="1" as="geometry">
            <mxPoint x="464" y="372" as="sourcePoint" />
            <mxPoint x="504" y="372" as="targetPoint" />
          </mxGeometry>
        </mxCell>
        <mxCell id="-j06Ovp1fmt5AjjepnFO-345" value="" style="endArrow=none;html=1;rounded=0;strokeColor=light-dark(#82b366, #ebd9ff);strokeWidth=3;" edge="1" parent="1">
          <mxGeometry width="50" height="50" relative="1" as="geometry">
            <mxPoint x="145" y="412" as="sourcePoint" />
            <mxPoint x="165" y="372" as="targetPoint" />
          </mxGeometry>
        </mxCell>
        <mxCell id="-j06Ovp1fmt5AjjepnFO-346" value="" style="endArrow=none;html=1;rounded=0;strokeColor=light-dark(#82b366, #ebd9ff);strokeWidth=3;" edge="1" parent="1">
          <mxGeometry width="50" height="50" relative="1" as="geometry">
            <mxPoint x="165" y="372" as="sourcePoint" />
            <mxPoint x="205" y="372" as="targetPoint" />
          </mxGeometry>
        </mxCell>
        <mxCell id="-j06Ovp1fmt5AjjepnFO-347" value="" style="endArrow=none;html=1;rounded=0;strokeColor=light-dark(#82b366, #ebd9ff);strokeWidth=3;" edge="1" parent="1">
          <mxGeometry width="50" height="50" relative="1" as="geometry">
            <mxPoint x="225" y="412" as="sourcePoint" />
            <mxPoint x="205" y="372" as="targetPoint" />
          </mxGeometry>
        </mxCell>
        <mxCell id="-j06Ovp1fmt5AjjepnFO-348" value="" style="endArrow=none;html=1;rounded=0;strokeColor=light-dark(#82b366, #ebd9ff);strokeWidth=3;" edge="1" parent="1">
          <mxGeometry width="50" height="50" relative="1" as="geometry">
            <mxPoint x="225" y="412" as="sourcePoint" />
            <mxPoint x="265" y="412" as="targetPoint" />
          </mxGeometry>
        </mxCell>
        <mxCell id="-j06Ovp1fmt5AjjepnFO-349" value="" style="endArrow=none;html=1;rounded=0;strokeColor=light-dark(#82b366, #ebd9ff);strokeWidth=3;" edge="1" parent="1">
          <mxGeometry width="50" height="50" relative="1" as="geometry">
            <mxPoint x="265" y="412" as="sourcePoint" />
            <mxPoint x="285" y="372" as="targetPoint" />
          </mxGeometry>
        </mxCell>
        <mxCell id="-j06Ovp1fmt5AjjepnFO-350" value="" style="endArrow=none;html=1;rounded=0;strokeColor=light-dark(#82b366, #ebd9ff);strokeWidth=3;" edge="1" parent="1">
          <mxGeometry width="50" height="50" relative="1" as="geometry">
            <mxPoint x="285" y="372" as="sourcePoint" />
            <mxPoint x="325" y="372" as="targetPoint" />
          </mxGeometry>
        </mxCell>
        <mxCell id="-j06Ovp1fmt5AjjepnFO-351" value="" style="endArrow=none;html=1;rounded=0;strokeColor=light-dark(#82b366, #ebd9ff);strokeWidth=3;" edge="1" parent="1">
          <mxGeometry width="50" height="50" relative="1" as="geometry">
            <mxPoint x="345" y="412" as="sourcePoint" />
            <mxPoint x="325" y="372" as="targetPoint" />
          </mxGeometry>
        </mxCell>
        <mxCell id="-j06Ovp1fmt5AjjepnFO-352" value="" style="endArrow=none;html=1;rounded=0;strokeColor=light-dark(#82b366, #ebd9ff);strokeWidth=3;" edge="1" parent="1">
          <mxGeometry width="50" height="50" relative="1" as="geometry">
            <mxPoint x="345" y="412" as="sourcePoint" />
            <mxPoint x="385" y="412" as="targetPoint" />
          </mxGeometry>
        </mxCell>
        <mxCell id="-j06Ovp1fmt5AjjepnFO-353" value="" style="endArrow=none;html=1;rounded=0;strokeColor=light-dark(#82b366, #ebd9ff);strokeWidth=3;" edge="1" parent="1">
          <mxGeometry width="50" height="50" relative="1" as="geometry">
            <mxPoint x="385" y="412" as="sourcePoint" />
            <mxPoint x="405" y="372" as="targetPoint" />
          </mxGeometry>
        </mxCell>
        <mxCell id="-j06Ovp1fmt5AjjepnFO-354" value="" style="endArrow=none;html=1;rounded=0;strokeColor=light-dark(#82b366, #ebd9ff);strokeWidth=3;" edge="1" parent="1">
          <mxGeometry width="50" height="50" relative="1" as="geometry">
            <mxPoint x="405" y="372" as="sourcePoint" />
            <mxPoint x="445" y="372" as="targetPoint" />
          </mxGeometry>
        </mxCell>
        <mxCell id="-j06Ovp1fmt5AjjepnFO-355" value="" style="endArrow=none;html=1;rounded=0;strokeColor=light-dark(#82b366, #ebd9ff);strokeWidth=3;" edge="1" parent="1">
          <mxGeometry width="50" height="50" relative="1" as="geometry">
            <mxPoint x="465" y="412" as="sourcePoint" />
            <mxPoint x="445" y="372" as="targetPoint" />
          </mxGeometry>
        </mxCell>
        <mxCell id="-j06Ovp1fmt5AjjepnFO-356" value="" style="endArrow=none;html=1;rounded=0;strokeColor=light-dark(#82b366, #ebd9ff);strokeWidth=3;" edge="1" parent="1">
          <mxGeometry width="50" height="50" relative="1" as="geometry">
            <mxPoint x="465" y="412" as="sourcePoint" />
            <mxPoint x="505" y="412" as="targetPoint" />
          </mxGeometry>
        </mxCell>
        <mxCell id="-j06Ovp1fmt5AjjepnFO-357" value="" style="endArrow=none;html=1;rounded=0;strokeColor=light-dark(#82b366, #ebd9ff);strokeWidth=3;" edge="1" parent="1">
          <mxGeometry width="50" height="50" relative="1" as="geometry">
            <mxPoint x="523" y="412" as="sourcePoint" />
            <mxPoint x="503" y="372" as="targetPoint" />
          </mxGeometry>
        </mxCell>
        <mxCell id="-j06Ovp1fmt5AjjepnFO-358" value="" style="endArrow=none;html=1;rounded=0;strokeColor=light-dark(#82b366, #ebd9ff);strokeWidth=3;" edge="1" parent="1">
          <mxGeometry width="50" height="50" relative="1" as="geometry">
            <mxPoint x="523" y="412" as="sourcePoint" />
            <mxPoint x="563" y="412" as="targetPoint" />
          </mxGeometry>
        </mxCell>
        <mxCell id="-j06Ovp1fmt5AjjepnFO-359" value="" style="endArrow=none;html=1;rounded=0;strokeColor=light-dark(#82b366, #ebd9ff);strokeWidth=3;" edge="1" parent="1">
          <mxGeometry width="50" height="50" relative="1" as="geometry">
            <mxPoint x="563" y="412" as="sourcePoint" />
            <mxPoint x="583" y="372" as="targetPoint" />
          </mxGeometry>
        </mxCell>
        <mxCell id="-j06Ovp1fmt5AjjepnFO-360" value="" style="endArrow=none;html=1;rounded=0;strokeColor=light-dark(#82b366, #ebd9ff);strokeWidth=3;" edge="1" parent="1">
          <mxGeometry width="50" height="50" relative="1" as="geometry">
            <mxPoint x="583" y="372" as="sourcePoint" />
            <mxPoint x="623" y="372" as="targetPoint" />
          </mxGeometry>
        </mxCell>
        <mxCell id="-j06Ovp1fmt5AjjepnFO-361" value="" style="endArrow=none;html=1;rounded=0;strokeColor=light-dark(#82b366, #ebd9ff);strokeWidth=3;" edge="1" parent="1">
          <mxGeometry width="50" height="50" relative="1" as="geometry">
            <mxPoint x="643" y="412" as="sourcePoint" />
            <mxPoint x="623" y="372" as="targetPoint" />
          </mxGeometry>
        </mxCell>
        <mxCell id="-j06Ovp1fmt5AjjepnFO-362" value="" style="endArrow=none;html=1;rounded=0;strokeColor=light-dark(#82b366, #ebd9ff);strokeWidth=3;" edge="1" parent="1">
          <mxGeometry width="50" height="50" relative="1" as="geometry">
            <mxPoint x="643" y="412" as="sourcePoint" />
            <mxPoint x="683" y="412" as="targetPoint" />
          </mxGeometry>
        </mxCell>
        <mxCell id="-j06Ovp1fmt5AjjepnFO-363" value="" style="endArrow=none;html=1;rounded=0;strokeColor=light-dark(#82b366, #ebd9ff);strokeWidth=3;" edge="1" parent="1">
          <mxGeometry width="50" height="50" relative="1" as="geometry">
            <mxPoint x="683" y="412" as="sourcePoint" />
            <mxPoint x="703" y="372" as="targetPoint" />
          </mxGeometry>
        </mxCell>
        <mxCell id="-j06Ovp1fmt5AjjepnFO-364" value="" style="endArrow=none;html=1;rounded=0;strokeColor=light-dark(#82b366, #ebd9ff);strokeWidth=3;" edge="1" parent="1">
          <mxGeometry width="50" height="50" relative="1" as="geometry">
            <mxPoint x="703" y="372" as="sourcePoint" />
            <mxPoint x="743" y="372" as="targetPoint" />
          </mxGeometry>
        </mxCell>
        <mxCell id="-j06Ovp1fmt5AjjepnFO-365" value="" style="endArrow=none;html=1;rounded=0;strokeColor=light-dark(#82b366, #ebd9ff);strokeWidth=3;" edge="1" parent="1">
          <mxGeometry width="50" height="50" relative="1" as="geometry">
            <mxPoint x="763" y="412" as="sourcePoint" />
            <mxPoint x="743" y="372" as="targetPoint" />
          </mxGeometry>
        </mxCell>
        <mxCell id="-j06Ovp1fmt5AjjepnFO-366" value="" style="endArrow=none;html=1;rounded=0;strokeColor=light-dark(#82b366, #ebd9ff);strokeWidth=3;" edge="1" parent="1">
          <mxGeometry width="50" height="50" relative="1" as="geometry">
            <mxPoint x="763" y="412" as="sourcePoint" />
            <mxPoint x="803" y="412" as="targetPoint" />
          </mxGeometry>
        </mxCell>
        <mxCell id="-j06Ovp1fmt5AjjepnFO-367" value="" style="endArrow=none;html=1;rounded=0;strokeColor=light-dark(#82b366, #ebd9ff);strokeWidth=3;" edge="1" parent="1">
          <mxGeometry width="50" height="50" relative="1" as="geometry">
            <mxPoint x="803" y="412" as="sourcePoint" />
            <mxPoint x="823" y="372" as="targetPoint" />
          </mxGeometry>
        </mxCell>
        <mxCell id="-j06Ovp1fmt5AjjepnFO-368" value="" style="endArrow=none;html=1;rounded=0;strokeColor=light-dark(#82b366, #ebd9ff);strokeWidth=3;" edge="1" parent="1">
          <mxGeometry width="50" height="50" relative="1" as="geometry">
            <mxPoint x="823" y="372" as="sourcePoint" />
            <mxPoint x="863" y="372" as="targetPoint" />
          </mxGeometry>
        </mxCell>
        <mxCell id="-j06Ovp1fmt5AjjepnFO-369" value="" style="endArrow=none;html=1;rounded=0;strokeColor=light-dark(#82b366, #ebd9ff);strokeWidth=3;" edge="1" parent="1">
          <mxGeometry width="50" height="50" relative="1" as="geometry">
            <mxPoint x="504" y="412" as="sourcePoint" />
            <mxPoint x="524" y="372" as="targetPoint" />
          </mxGeometry>
        </mxCell>
        <mxCell id="-j06Ovp1fmt5AjjepnFO-370" value="" style="endArrow=none;html=1;rounded=0;strokeColor=light-dark(#82b366, #ebd9ff);strokeWidth=3;" edge="1" parent="1">
          <mxGeometry width="50" height="50" relative="1" as="geometry">
            <mxPoint x="524" y="372" as="sourcePoint" />
            <mxPoint x="564" y="372" as="targetPoint" />
          </mxGeometry>
        </mxCell>
        <mxCell id="-j06Ovp1fmt5AjjepnFO-371" value="" style="endArrow=none;html=1;rounded=0;strokeColor=light-dark(#82b366, #ebd9ff);strokeWidth=3;" edge="1" parent="1">
          <mxGeometry width="50" height="50" relative="1" as="geometry">
            <mxPoint x="584" y="412" as="sourcePoint" />
            <mxPoint x="564" y="372" as="targetPoint" />
          </mxGeometry>
        </mxCell>
        <mxCell id="-j06Ovp1fmt5AjjepnFO-372" value="" style="endArrow=none;html=1;rounded=0;strokeColor=light-dark(#82b366, #ebd9ff);strokeWidth=3;" edge="1" parent="1">
          <mxGeometry width="50" height="50" relative="1" as="geometry">
            <mxPoint x="584" y="412" as="sourcePoint" />
            <mxPoint x="624" y="412" as="targetPoint" />
          </mxGeometry>
        </mxCell>
        <mxCell id="-j06Ovp1fmt5AjjepnFO-373" value="" style="endArrow=none;html=1;rounded=0;strokeColor=light-dark(#82b366, #ebd9ff);strokeWidth=3;" edge="1" parent="1">
          <mxGeometry width="50" height="50" relative="1" as="geometry">
            <mxPoint x="624" y="412" as="sourcePoint" />
            <mxPoint x="644" y="372" as="targetPoint" />
          </mxGeometry>
        </mxCell>
        <mxCell id="-j06Ovp1fmt5AjjepnFO-374" value="" style="endArrow=none;html=1;rounded=0;strokeColor=light-dark(#82b366, #ebd9ff);strokeWidth=3;" edge="1" parent="1">
          <mxGeometry width="50" height="50" relative="1" as="geometry">
            <mxPoint x="644" y="372" as="sourcePoint" />
            <mxPoint x="684" y="372" as="targetPoint" />
          </mxGeometry>
        </mxCell>
        <mxCell id="-j06Ovp1fmt5AjjepnFO-375" value="" style="endArrow=none;html=1;rounded=0;strokeColor=light-dark(#82b366, #ebd9ff);strokeWidth=3;" edge="1" parent="1">
          <mxGeometry width="50" height="50" relative="1" as="geometry">
            <mxPoint x="704" y="412" as="sourcePoint" />
            <mxPoint x="684" y="372" as="targetPoint" />
          </mxGeometry>
        </mxCell>
        <mxCell id="-j06Ovp1fmt5AjjepnFO-376" value="" style="endArrow=none;html=1;rounded=0;strokeColor=light-dark(#82b366, #ebd9ff);strokeWidth=3;" edge="1" parent="1">
          <mxGeometry width="50" height="50" relative="1" as="geometry">
            <mxPoint x="704" y="412" as="sourcePoint" />
            <mxPoint x="744" y="412" as="targetPoint" />
          </mxGeometry>
        </mxCell>
        <mxCell id="-j06Ovp1fmt5AjjepnFO-377" value="" style="endArrow=none;html=1;rounded=0;strokeColor=light-dark(#82b366, #ebd9ff);strokeWidth=3;" edge="1" parent="1">
          <mxGeometry width="50" height="50" relative="1" as="geometry">
            <mxPoint x="744" y="412" as="sourcePoint" />
            <mxPoint x="764" y="372" as="targetPoint" />
          </mxGeometry>
        </mxCell>
        <mxCell id="-j06Ovp1fmt5AjjepnFO-378" value="" style="endArrow=none;html=1;rounded=0;strokeColor=light-dark(#82b366, #ebd9ff);strokeWidth=3;" edge="1" parent="1">
          <mxGeometry width="50" height="50" relative="1" as="geometry">
            <mxPoint x="764" y="372" as="sourcePoint" />
            <mxPoint x="804" y="372" as="targetPoint" />
          </mxGeometry>
        </mxCell>
        <mxCell id="-j06Ovp1fmt5AjjepnFO-379" value="" style="endArrow=none;html=1;rounded=0;strokeColor=light-dark(#82b366, #ebd9ff);strokeWidth=3;" edge="1" parent="1">
          <mxGeometry width="50" height="50" relative="1" as="geometry">
            <mxPoint x="824" y="412" as="sourcePoint" />
            <mxPoint x="804" y="372" as="targetPoint" />
          </mxGeometry>
        </mxCell>
        <mxCell id="-j06Ovp1fmt5AjjepnFO-380" value="" style="endArrow=none;html=1;rounded=0;strokeColor=light-dark(#82b366, #ebd9ff);strokeWidth=3;" edge="1" parent="1">
          <mxGeometry width="50" height="50" relative="1" as="geometry">
            <mxPoint x="824" y="412" as="sourcePoint" />
            <mxPoint x="864" y="412" as="targetPoint" />
          </mxGeometry>
        </mxCell>
        <mxCell id="-j06Ovp1fmt5AjjepnFO-381" value="DQ0" style="text;html=1;align=center;verticalAlign=middle;whiteSpace=wrap;rounded=0;fontColor=light-dark(#82b366, #ebd9ff);fontStyle=1" vertex="1" parent="1">
          <mxGeometry x="75" y="382" width="60" height="20" as="geometry" />
        </mxCell>
        <mxCell id="-j06Ovp1fmt5AjjepnFO-382" value="" style="endArrow=none;html=1;rounded=0;strokeColor=light-dark(#82b366, #ebd9ff);strokeWidth=3;" edge="1" parent="1">
          <mxGeometry width="50" height="50" relative="1" as="geometry">
            <mxPoint x="862" y="411.71000000000004" as="sourcePoint" />
            <mxPoint x="882" y="371.71000000000004" as="targetPoint" />
          </mxGeometry>
        </mxCell>
        <mxCell id="-j06Ovp1fmt5AjjepnFO-383" value="" style="endArrow=none;html=1;rounded=0;strokeColor=light-dark(#82b366, #ebd9ff);strokeWidth=3;" edge="1" parent="1">
          <mxGeometry width="50" height="50" relative="1" as="geometry">
            <mxPoint x="882" y="371.71000000000004" as="sourcePoint" />
            <mxPoint x="922" y="371.71000000000004" as="targetPoint" />
          </mxGeometry>
        </mxCell>
        <mxCell id="-j06Ovp1fmt5AjjepnFO-384" value="" style="endArrow=none;html=1;rounded=0;strokeColor=light-dark(#82b366, #ebd9ff);strokeWidth=3;" edge="1" parent="1">
          <mxGeometry width="50" height="50" relative="1" as="geometry">
            <mxPoint x="942" y="411.71000000000004" as="sourcePoint" />
            <mxPoint x="922" y="371.71000000000004" as="targetPoint" />
          </mxGeometry>
        </mxCell>
        <mxCell id="-j06Ovp1fmt5AjjepnFO-385" value="" style="endArrow=none;html=1;rounded=0;strokeColor=light-dark(#82b366, #ebd9ff);strokeWidth=3;" edge="1" parent="1">
          <mxGeometry width="50" height="50" relative="1" as="geometry">
            <mxPoint x="942" y="411.71000000000004" as="sourcePoint" />
            <mxPoint x="982" y="411.71000000000004" as="targetPoint" />
          </mxGeometry>
        </mxCell>
        <mxCell id="-j06Ovp1fmt5AjjepnFO-386" value="" style="endArrow=none;html=1;rounded=0;strokeColor=light-dark(#82b366, #ebd9ff);strokeWidth=3;" edge="1" parent="1">
          <mxGeometry width="50" height="50" relative="1" as="geometry">
            <mxPoint x="982" y="411.71000000000004" as="sourcePoint" />
            <mxPoint x="1002" y="371.71000000000004" as="targetPoint" />
          </mxGeometry>
        </mxCell>
        <mxCell id="-j06Ovp1fmt5AjjepnFO-387" value="" style="endArrow=none;html=1;rounded=0;strokeColor=light-dark(#82b366, #ebd9ff);strokeWidth=3;" edge="1" parent="1">
          <mxGeometry width="50" height="50" relative="1" as="geometry">
            <mxPoint x="883" y="411.71000000000004" as="sourcePoint" />
            <mxPoint x="863" y="371.71000000000004" as="targetPoint" />
          </mxGeometry>
        </mxCell>
        <mxCell id="-j06Ovp1fmt5AjjepnFO-388" value="" style="endArrow=none;html=1;rounded=0;strokeColor=light-dark(#82b366, #ebd9ff);strokeWidth=3;" edge="1" parent="1">
          <mxGeometry width="50" height="50" relative="1" as="geometry">
            <mxPoint x="883" y="411.71000000000004" as="sourcePoint" />
            <mxPoint x="923" y="411.71000000000004" as="targetPoint" />
          </mxGeometry>
        </mxCell>
        <mxCell id="-j06Ovp1fmt5AjjepnFO-389" value="" style="endArrow=none;html=1;rounded=0;strokeColor=light-dark(#82b366, #ebd9ff);strokeWidth=3;" edge="1" parent="1">
          <mxGeometry width="50" height="50" relative="1" as="geometry">
            <mxPoint x="923" y="411.71000000000004" as="sourcePoint" />
            <mxPoint x="943" y="371.71000000000004" as="targetPoint" />
          </mxGeometry>
        </mxCell>
        <mxCell id="-j06Ovp1fmt5AjjepnFO-390" value="" style="endArrow=none;html=1;rounded=0;strokeColor=light-dark(#82b366, #ebd9ff);strokeWidth=3;" edge="1" parent="1">
          <mxGeometry width="50" height="50" relative="1" as="geometry">
            <mxPoint x="943" y="371.71000000000004" as="sourcePoint" />
            <mxPoint x="983" y="371.71000000000004" as="targetPoint" />
          </mxGeometry>
        </mxCell>
        <mxCell id="-j06Ovp1fmt5AjjepnFO-391" value="" style="endArrow=none;html=1;rounded=0;strokeColor=light-dark(#82b366, #ebd9ff);strokeWidth=3;" edge="1" parent="1">
          <mxGeometry width="50" height="50" relative="1" as="geometry">
            <mxPoint x="1003" y="411.71000000000004" as="sourcePoint" />
            <mxPoint x="983" y="371.71000000000004" as="targetPoint" />
          </mxGeometry>
        </mxCell>
        <mxCell id="-j06Ovp1fmt5AjjepnFO-392" value="" style="endArrow=none;html=1;rounded=0;strokeColor=light-dark(#82b366, #ebd9ff);strokeWidth=3;" edge="1" parent="1">
          <mxGeometry width="50" height="50" relative="1" as="geometry">
            <mxPoint x="1120" y="411.58000000000004" as="sourcePoint" />
            <mxPoint x="1160" y="412" as="targetPoint" />
          </mxGeometry>
        </mxCell>
        <mxCell id="-j06Ovp1fmt5AjjepnFO-393" value="" style="endArrow=none;html=1;rounded=0;strokeColor=light-dark(#82b366, #ebd9ff);strokeWidth=3;" edge="1" parent="1">
          <mxGeometry width="50" height="50" relative="1" as="geometry">
            <mxPoint x="1121" y="371.58000000000004" as="sourcePoint" />
            <mxPoint x="1145" y="372" as="targetPoint" />
          </mxGeometry>
        </mxCell>
        <mxCell id="-j06Ovp1fmt5AjjepnFO-394" value="D0" style="text;html=1;align=center;verticalAlign=middle;whiteSpace=wrap;rounded=0;fontColor=#0a0a0a;fontStyle=1;strokeColor=light-dark(#82b366, #ebd9ff);" vertex="1" parent="1">
          <mxGeometry x="165" y="382" width="40" height="20" as="geometry" />
        </mxCell>
        <mxCell id="-j06Ovp1fmt5AjjepnFO-395" value="D4" style="text;html=1;align=center;verticalAlign=middle;whiteSpace=wrap;rounded=0;fontColor=#0a0a0a;fontStyle=1;strokeColor=light-dark(#82b366, #ebd9ff);" vertex="1" parent="1">
          <mxGeometry x="225" y="382" width="40" height="20" as="geometry" />
        </mxCell>
        <mxCell id="-j06Ovp1fmt5AjjepnFO-396" value="D8" style="text;html=1;align=center;verticalAlign=middle;whiteSpace=wrap;rounded=0;fontColor=#0a0a0a;fontStyle=1;strokeColor=light-dark(#82b366, #ebd9ff);" vertex="1" parent="1">
          <mxGeometry x="285" y="382" width="40" height="20" as="geometry" />
        </mxCell>
        <mxCell id="-j06Ovp1fmt5AjjepnFO-397" value="D12" style="text;html=1;align=center;verticalAlign=middle;whiteSpace=wrap;rounded=0;fontColor=#0a0a0a;fontStyle=1;strokeColor=light-dark(#82b366, #ebd9ff);" vertex="1" parent="1">
          <mxGeometry x="345" y="382" width="40" height="20" as="geometry" />
        </mxCell>
        <mxCell id="-j06Ovp1fmt5AjjepnFO-398" value="D16" style="text;html=1;align=center;verticalAlign=middle;whiteSpace=wrap;rounded=0;fontColor=#0a0a0a;fontStyle=1;strokeColor=light-dark(#82b366, #ebd9ff);" vertex="1" parent="1">
          <mxGeometry x="405" y="382" width="40" height="20" as="geometry" />
        </mxCell>
        <mxCell id="-j06Ovp1fmt5AjjepnFO-399" value="D20" style="text;html=1;align=center;verticalAlign=middle;whiteSpace=wrap;rounded=0;fontColor=#0a0a0a;fontStyle=1;strokeColor=light-dark(#82b366, #ebd9ff);" vertex="1" parent="1">
          <mxGeometry x="465" y="382" width="40" height="20" as="geometry" />
        </mxCell>
        <mxCell id="-j06Ovp1fmt5AjjepnFO-400" value="D24" style="text;html=1;align=center;verticalAlign=middle;whiteSpace=wrap;rounded=0;fontColor=#0a0a0a;fontStyle=1;strokeColor=light-dark(#82b366, #ebd9ff);" vertex="1" parent="1">
          <mxGeometry x="525" y="382" width="40" height="20" as="geometry" />
        </mxCell>
        <mxCell id="-j06Ovp1fmt5AjjepnFO-401" value="D28" style="text;html=1;align=center;verticalAlign=middle;whiteSpace=wrap;rounded=0;fontColor=#0a0a0a;fontStyle=1;strokeColor=light-dark(#82b366, #ebd9ff);" vertex="1" parent="1">
          <mxGeometry x="585" y="382" width="40" height="20" as="geometry" />
        </mxCell>
        <mxCell id="-j06Ovp1fmt5AjjepnFO-402" value="D32" style="text;html=1;align=center;verticalAlign=middle;whiteSpace=wrap;rounded=0;fontColor=#0a0a0a;fontStyle=1;strokeColor=light-dark(#82b366, #ebd9ff);" vertex="1" parent="1">
          <mxGeometry x="645" y="382" width="40" height="20" as="geometry" />
        </mxCell>
        <mxCell id="-j06Ovp1fmt5AjjepnFO-403" value="D36" style="text;html=1;align=center;verticalAlign=middle;whiteSpace=wrap;rounded=0;fontColor=#0a0a0a;fontStyle=1;strokeColor=light-dark(#82b366, #ebd9ff);" vertex="1" parent="1">
          <mxGeometry x="705" y="382" width="40" height="20" as="geometry" />
        </mxCell>
        <mxCell id="-j06Ovp1fmt5AjjepnFO-404" value="D40" style="text;html=1;align=center;verticalAlign=middle;whiteSpace=wrap;rounded=0;fontColor=#0a0a0a;fontStyle=1;strokeColor=light-dark(#82b366, #ebd9ff);" vertex="1" parent="1">
          <mxGeometry x="765" y="382" width="40" height="20" as="geometry" />
        </mxCell>
        <mxCell id="-j06Ovp1fmt5AjjepnFO-405" value="D44" style="text;html=1;align=center;verticalAlign=middle;whiteSpace=wrap;rounded=0;fontColor=#0a0a0a;fontStyle=1;strokeColor=light-dark(#82b366, #ebd9ff);" vertex="1" parent="1">
          <mxGeometry x="825" y="382" width="40" height="20" as="geometry" />
        </mxCell>
        <mxCell id="-j06Ovp1fmt5AjjepnFO-406" value="D48" style="text;html=1;align=center;verticalAlign=middle;whiteSpace=wrap;rounded=0;fontColor=#0a0a0a;fontStyle=1;strokeColor=light-dark(#82b366, #ebd9ff);" vertex="1" parent="1">
          <mxGeometry x="885" y="382" width="40" height="20" as="geometry" />
        </mxCell>
        <mxCell id="-j06Ovp1fmt5AjjepnFO-407" value="D52" style="text;html=1;align=center;verticalAlign=middle;whiteSpace=wrap;rounded=0;fontColor=#0a0a0a;fontStyle=1;strokeColor=light-dark(#82b366, #ebd9ff);" vertex="1" parent="1">
          <mxGeometry x="945" y="382" width="40" height="20" as="geometry" />
        </mxCell>
        <mxCell id="-j06Ovp1fmt5AjjepnFO-408" value="" style="endArrow=none;html=1;rounded=0;strokeColor=light-dark(#82b366, #ebd9ff);strokeWidth=3;" edge="1" parent="1">
          <mxGeometry width="50" height="50" relative="1" as="geometry">
            <mxPoint x="1001" y="411.71000000000004" as="sourcePoint" />
            <mxPoint x="1041" y="411.71000000000004" as="targetPoint" />
          </mxGeometry>
        </mxCell>
        <mxCell id="-j06Ovp1fmt5AjjepnFO-409" value="" style="endArrow=none;html=1;rounded=0;strokeColor=light-dark(#82b366, #ebd9ff);strokeWidth=3;" edge="1" parent="1">
          <mxGeometry width="50" height="50" relative="1" as="geometry">
            <mxPoint x="1041" y="411.71000000000004" as="sourcePoint" />
            <mxPoint x="1061" y="371.71000000000004" as="targetPoint" />
          </mxGeometry>
        </mxCell>
        <mxCell id="-j06Ovp1fmt5AjjepnFO-410" value="" style="endArrow=none;html=1;rounded=0;strokeColor=light-dark(#82b366, #ebd9ff);strokeWidth=3;" edge="1" parent="1">
          <mxGeometry width="50" height="50" relative="1" as="geometry">
            <mxPoint x="1002" y="371.71000000000004" as="sourcePoint" />
            <mxPoint x="1042" y="371.71000000000004" as="targetPoint" />
          </mxGeometry>
        </mxCell>
        <mxCell id="-j06Ovp1fmt5AjjepnFO-411" value="" style="endArrow=none;html=1;rounded=0;strokeColor=light-dark(#82b366, #ebd9ff);strokeWidth=3;" edge="1" parent="1">
          <mxGeometry width="50" height="50" relative="1" as="geometry">
            <mxPoint x="1062" y="411.71000000000004" as="sourcePoint" />
            <mxPoint x="1042" y="371.71000000000004" as="targetPoint" />
          </mxGeometry>
        </mxCell>
        <mxCell id="-j06Ovp1fmt5AjjepnFO-412" value="D56" style="text;html=1;align=center;verticalAlign=middle;whiteSpace=wrap;rounded=0;fontColor=#0a0a0a;fontStyle=1;strokeColor=light-dark(#82b366, #ebd9ff);" vertex="1" parent="1">
          <mxGeometry x="1004" y="382" width="40" height="20" as="geometry" />
        </mxCell>
        <mxCell id="-j06Ovp1fmt5AjjepnFO-413" value="" style="endArrow=none;html=1;rounded=0;strokeColor=light-dark(#82b366, #ebd9ff);strokeWidth=3;" edge="1" parent="1">
          <mxGeometry width="50" height="50" relative="1" as="geometry">
            <mxPoint x="1060" y="411.71000000000004" as="sourcePoint" />
            <mxPoint x="1100" y="411.71000000000004" as="targetPoint" />
          </mxGeometry>
        </mxCell>
        <mxCell id="-j06Ovp1fmt5AjjepnFO-414" value="" style="endArrow=none;html=1;rounded=0;strokeColor=light-dark(#82b366, #ebd9ff);strokeWidth=3;" edge="1" parent="1">
          <mxGeometry width="50" height="50" relative="1" as="geometry">
            <mxPoint x="1100" y="411.71000000000004" as="sourcePoint" />
            <mxPoint x="1120" y="371.71000000000004" as="targetPoint" />
          </mxGeometry>
        </mxCell>
        <mxCell id="-j06Ovp1fmt5AjjepnFO-415" value="" style="endArrow=none;html=1;rounded=0;strokeColor=light-dark(#82b366, #ebd9ff);strokeWidth=3;" edge="1" parent="1">
          <mxGeometry width="50" height="50" relative="1" as="geometry">
            <mxPoint x="1061" y="371.71000000000004" as="sourcePoint" />
            <mxPoint x="1101" y="371.71000000000004" as="targetPoint" />
          </mxGeometry>
        </mxCell>
        <mxCell id="-j06Ovp1fmt5AjjepnFO-416" value="" style="endArrow=none;html=1;rounded=0;strokeColor=light-dark(#82b366, #ebd9ff);strokeWidth=3;" edge="1" parent="1">
          <mxGeometry width="50" height="50" relative="1" as="geometry">
            <mxPoint x="1121" y="411.71000000000004" as="sourcePoint" />
            <mxPoint x="1101" y="371.71000000000004" as="targetPoint" />
          </mxGeometry>
        </mxCell>
        <mxCell id="-j06Ovp1fmt5AjjepnFO-417" value="D60" style="text;html=1;align=center;verticalAlign=middle;whiteSpace=wrap;rounded=0;fontColor=#0a0a0a;fontStyle=1;strokeColor=light-dark(#82b366, #ebd9ff);" vertex="1" parent="1">
          <mxGeometry x="1063" y="382" width="40" height="20" as="geometry" />
        </mxCell>
        <mxCell id="-j06Ovp1fmt5AjjepnFO-418" value="" style="endArrow=none;html=1;rounded=0;strokeColor=light-dark(#82b366, #ebd9ff);strokeWidth=3;" edge="1" parent="1">
          <mxGeometry width="50" height="50" relative="1" as="geometry">
            <mxPoint x="1237" y="411.58000000000004" as="sourcePoint" />
            <mxPoint x="1262" y="412" as="targetPoint" />
          </mxGeometry>
        </mxCell>
        <mxCell id="-j06Ovp1fmt5AjjepnFO-419" value="" style="endArrow=none;html=1;rounded=0;strokeColor=light-dark(#82b366, #ebd9ff);strokeWidth=3;" edge="1" parent="1">
          <mxGeometry width="50" height="50" relative="1" as="geometry">
            <mxPoint x="1238" y="371.58000000000004" as="sourcePoint" />
            <mxPoint x="1262" y="372" as="targetPoint" />
          </mxGeometry>
        </mxCell>
        <mxCell id="-j06Ovp1fmt5AjjepnFO-420" value="" style="endArrow=none;html=1;rounded=0;strokeColor=light-dark(#82b366, #ebd9ff);strokeWidth=3;" edge="1" parent="1">
          <mxGeometry width="50" height="50" relative="1" as="geometry">
            <mxPoint x="1158" y="411.71000000000004" as="sourcePoint" />
            <mxPoint x="1178" y="371.71000000000004" as="targetPoint" />
          </mxGeometry>
        </mxCell>
        <mxCell id="-j06Ovp1fmt5AjjepnFO-421" value="" style="endArrow=none;html=1;rounded=0;strokeColor=light-dark(#82b366, #ebd9ff);strokeWidth=3;" edge="1" parent="1">
          <mxGeometry width="50" height="50" relative="1" as="geometry">
            <mxPoint x="1119" y="371.71000000000004" as="sourcePoint" />
            <mxPoint x="1159" y="371.71000000000004" as="targetPoint" />
          </mxGeometry>
        </mxCell>
        <mxCell id="-j06Ovp1fmt5AjjepnFO-422" value="" style="endArrow=none;html=1;rounded=0;strokeColor=light-dark(#82b366, #ebd9ff);strokeWidth=3;" edge="1" parent="1">
          <mxGeometry width="50" height="50" relative="1" as="geometry">
            <mxPoint x="1179" y="411.71000000000004" as="sourcePoint" />
            <mxPoint x="1159" y="371.71000000000004" as="targetPoint" />
          </mxGeometry>
        </mxCell>
        <mxCell id="-j06Ovp1fmt5AjjepnFO-423" value="CRC0" style="text;html=1;align=center;verticalAlign=middle;whiteSpace=wrap;rounded=0;fontColor=#0a0a0a;fontStyle=1;strokeColor=light-dark(#82b366, #ebd9ff);" vertex="1" parent="1">
          <mxGeometry x="1121" y="382" width="40" height="20" as="geometry" />
        </mxCell>
        <mxCell id="-j06Ovp1fmt5AjjepnFO-424" value="" style="endArrow=none;html=1;rounded=0;strokeColor=light-dark(#82b366, #ebd9ff);strokeWidth=3;" edge="1" parent="1">
          <mxGeometry width="50" height="50" relative="1" as="geometry">
            <mxPoint x="1177" y="411.71000000000004" as="sourcePoint" />
            <mxPoint x="1217" y="411.71000000000004" as="targetPoint" />
          </mxGeometry>
        </mxCell>
        <mxCell id="-j06Ovp1fmt5AjjepnFO-425" value="" style="endArrow=none;html=1;rounded=0;strokeColor=light-dark(#82b366, #ebd9ff);strokeWidth=3;" edge="1" parent="1">
          <mxGeometry width="50" height="50" relative="1" as="geometry">
            <mxPoint x="1217" y="411.71000000000004" as="sourcePoint" />
            <mxPoint x="1237" y="371.71000000000004" as="targetPoint" />
          </mxGeometry>
        </mxCell>
        <mxCell id="-j06Ovp1fmt5AjjepnFO-426" value="" style="endArrow=none;html=1;rounded=0;strokeColor=light-dark(#82b366, #ebd9ff);strokeWidth=3;" edge="1" parent="1">
          <mxGeometry width="50" height="50" relative="1" as="geometry">
            <mxPoint x="1178" y="371.71000000000004" as="sourcePoint" />
            <mxPoint x="1218" y="371.71000000000004" as="targetPoint" />
          </mxGeometry>
        </mxCell>
        <mxCell id="-j06Ovp1fmt5AjjepnFO-427" value="" style="endArrow=none;html=1;rounded=0;strokeColor=light-dark(#82b366, #ebd9ff);strokeWidth=3;" edge="1" parent="1">
          <mxGeometry width="50" height="50" relative="1" as="geometry">
            <mxPoint x="1238" y="411.71000000000004" as="sourcePoint" />
            <mxPoint x="1218" y="371.71000000000004" as="targetPoint" />
          </mxGeometry>
        </mxCell>
        <mxCell id="-j06Ovp1fmt5AjjepnFO-428" value="CRC4" style="text;html=1;align=center;verticalAlign=middle;whiteSpace=wrap;rounded=0;fontColor=#0a0a0a;fontStyle=1;strokeColor=light-dark(#82b366, #ebd9ff);" vertex="1" parent="1">
          <mxGeometry x="1180" y="382" width="40" height="20" as="geometry" />
        </mxCell>
        <mxCell id="-j06Ovp1fmt5AjjepnFO-429" value="" style="endArrow=none;html=1;rounded=0;strokeColor=light-dark(#6c8ebf, #ebd9ff);strokeWidth=3;" edge="1" parent="1">
          <mxGeometry width="50" height="50" relative="1" as="geometry">
            <mxPoint x="164" y="470" as="sourcePoint" />
            <mxPoint x="144" y="430" as="targetPoint" />
          </mxGeometry>
        </mxCell>
        <mxCell id="-j06Ovp1fmt5AjjepnFO-430" value="" style="endArrow=none;html=1;rounded=0;strokeColor=light-dark(#6c8ebf, #ebd9ff);strokeWidth=3;" edge="1" parent="1">
          <mxGeometry width="50" height="50" relative="1" as="geometry">
            <mxPoint x="164" y="470" as="sourcePoint" />
            <mxPoint x="204" y="470" as="targetPoint" />
          </mxGeometry>
        </mxCell>
        <mxCell id="-j06Ovp1fmt5AjjepnFO-431" value="" style="endArrow=none;html=1;rounded=0;strokeColor=light-dark(#6c8ebf, #ebd9ff);strokeWidth=3;" edge="1" parent="1">
          <mxGeometry width="50" height="50" relative="1" as="geometry">
            <mxPoint x="204" y="470" as="sourcePoint" />
            <mxPoint x="224" y="430" as="targetPoint" />
          </mxGeometry>
        </mxCell>
        <mxCell id="-j06Ovp1fmt5AjjepnFO-432" value="" style="endArrow=none;html=1;rounded=0;strokeColor=light-dark(#6c8ebf, #ebd9ff);strokeWidth=3;" edge="1" parent="1">
          <mxGeometry width="50" height="50" relative="1" as="geometry">
            <mxPoint x="224" y="430" as="sourcePoint" />
            <mxPoint x="264" y="430" as="targetPoint" />
          </mxGeometry>
        </mxCell>
        <mxCell id="-j06Ovp1fmt5AjjepnFO-433" value="" style="endArrow=none;html=1;rounded=0;strokeColor=light-dark(#6c8ebf, #ebd9ff);strokeWidth=3;" edge="1" parent="1">
          <mxGeometry width="50" height="50" relative="1" as="geometry">
            <mxPoint x="284" y="470" as="sourcePoint" />
            <mxPoint x="264" y="430" as="targetPoint" />
          </mxGeometry>
        </mxCell>
        <mxCell id="-j06Ovp1fmt5AjjepnFO-434" value="" style="endArrow=none;html=1;rounded=0;strokeColor=light-dark(#6c8ebf, #ebd9ff);strokeWidth=3;" edge="1" parent="1">
          <mxGeometry width="50" height="50" relative="1" as="geometry">
            <mxPoint x="284" y="470" as="sourcePoint" />
            <mxPoint x="324" y="470" as="targetPoint" />
          </mxGeometry>
        </mxCell>
        <mxCell id="-j06Ovp1fmt5AjjepnFO-435" value="" style="endArrow=none;html=1;rounded=0;strokeColor=light-dark(#6c8ebf, #ebd9ff);strokeWidth=3;" edge="1" parent="1">
          <mxGeometry width="50" height="50" relative="1" as="geometry">
            <mxPoint x="324" y="470" as="sourcePoint" />
            <mxPoint x="344" y="430" as="targetPoint" />
          </mxGeometry>
        </mxCell>
        <mxCell id="-j06Ovp1fmt5AjjepnFO-436" value="" style="endArrow=none;html=1;rounded=0;strokeColor=light-dark(#6c8ebf, #ebd9ff);strokeWidth=3;" edge="1" parent="1">
          <mxGeometry width="50" height="50" relative="1" as="geometry">
            <mxPoint x="344" y="430" as="sourcePoint" />
            <mxPoint x="384" y="430" as="targetPoint" />
          </mxGeometry>
        </mxCell>
        <mxCell id="-j06Ovp1fmt5AjjepnFO-437" value="" style="endArrow=none;html=1;rounded=0;strokeColor=light-dark(#6c8ebf, #ebd9ff);strokeWidth=3;" edge="1" parent="1">
          <mxGeometry width="50" height="50" relative="1" as="geometry">
            <mxPoint x="404" y="470" as="sourcePoint" />
            <mxPoint x="384" y="430" as="targetPoint" />
          </mxGeometry>
        </mxCell>
        <mxCell id="-j06Ovp1fmt5AjjepnFO-438" value="" style="endArrow=none;html=1;rounded=0;strokeColor=light-dark(#6c8ebf, #ebd9ff);strokeWidth=3;" edge="1" parent="1">
          <mxGeometry width="50" height="50" relative="1" as="geometry">
            <mxPoint x="404" y="470" as="sourcePoint" />
            <mxPoint x="444" y="470" as="targetPoint" />
          </mxGeometry>
        </mxCell>
        <mxCell id="-j06Ovp1fmt5AjjepnFO-439" value="" style="endArrow=none;html=1;rounded=0;strokeColor=light-dark(#6c8ebf, #ebd9ff);strokeWidth=3;" edge="1" parent="1">
          <mxGeometry width="50" height="50" relative="1" as="geometry">
            <mxPoint x="444" y="470" as="sourcePoint" />
            <mxPoint x="464" y="430" as="targetPoint" />
          </mxGeometry>
        </mxCell>
        <mxCell id="-j06Ovp1fmt5AjjepnFO-440" value="" style="endArrow=none;html=1;rounded=0;strokeColor=light-dark(#6c8ebf, #ebd9ff);strokeWidth=3;" edge="1" parent="1">
          <mxGeometry width="50" height="50" relative="1" as="geometry">
            <mxPoint x="464" y="430" as="sourcePoint" />
            <mxPoint x="504" y="430" as="targetPoint" />
          </mxGeometry>
        </mxCell>
        <mxCell id="-j06Ovp1fmt5AjjepnFO-441" value="" style="endArrow=none;html=1;rounded=0;strokeColor=light-dark(#6c8ebf, #ebd9ff);strokeWidth=3;" edge="1" parent="1">
          <mxGeometry width="50" height="50" relative="1" as="geometry">
            <mxPoint x="145" y="470" as="sourcePoint" />
            <mxPoint x="165" y="430" as="targetPoint" />
          </mxGeometry>
        </mxCell>
        <mxCell id="-j06Ovp1fmt5AjjepnFO-442" value="" style="endArrow=none;html=1;rounded=0;strokeColor=light-dark(#6c8ebf, #ebd9ff);strokeWidth=3;" edge="1" parent="1">
          <mxGeometry width="50" height="50" relative="1" as="geometry">
            <mxPoint x="165" y="430" as="sourcePoint" />
            <mxPoint x="205" y="430" as="targetPoint" />
          </mxGeometry>
        </mxCell>
        <mxCell id="-j06Ovp1fmt5AjjepnFO-443" value="" style="endArrow=none;html=1;rounded=0;strokeColor=light-dark(#6c8ebf, #ebd9ff);strokeWidth=3;" edge="1" parent="1">
          <mxGeometry width="50" height="50" relative="1" as="geometry">
            <mxPoint x="225" y="470" as="sourcePoint" />
            <mxPoint x="205" y="430" as="targetPoint" />
          </mxGeometry>
        </mxCell>
        <mxCell id="-j06Ovp1fmt5AjjepnFO-444" value="" style="endArrow=none;html=1;rounded=0;strokeColor=light-dark(#6c8ebf, #ebd9ff);strokeWidth=3;" edge="1" parent="1">
          <mxGeometry width="50" height="50" relative="1" as="geometry">
            <mxPoint x="225" y="470" as="sourcePoint" />
            <mxPoint x="265" y="470" as="targetPoint" />
          </mxGeometry>
        </mxCell>
        <mxCell id="-j06Ovp1fmt5AjjepnFO-445" value="" style="endArrow=none;html=1;rounded=0;strokeColor=light-dark(#6c8ebf, #ebd9ff);strokeWidth=3;" edge="1" parent="1">
          <mxGeometry width="50" height="50" relative="1" as="geometry">
            <mxPoint x="265" y="470" as="sourcePoint" />
            <mxPoint x="285" y="430" as="targetPoint" />
          </mxGeometry>
        </mxCell>
        <mxCell id="-j06Ovp1fmt5AjjepnFO-446" value="" style="endArrow=none;html=1;rounded=0;strokeColor=light-dark(#6c8ebf, #ebd9ff);strokeWidth=3;" edge="1" parent="1">
          <mxGeometry width="50" height="50" relative="1" as="geometry">
            <mxPoint x="285" y="430" as="sourcePoint" />
            <mxPoint x="325" y="430" as="targetPoint" />
          </mxGeometry>
        </mxCell>
        <mxCell id="-j06Ovp1fmt5AjjepnFO-447" value="" style="endArrow=none;html=1;rounded=0;strokeColor=light-dark(#6c8ebf, #ebd9ff);strokeWidth=3;" edge="1" parent="1">
          <mxGeometry width="50" height="50" relative="1" as="geometry">
            <mxPoint x="345" y="470" as="sourcePoint" />
            <mxPoint x="325" y="430" as="targetPoint" />
          </mxGeometry>
        </mxCell>
        <mxCell id="-j06Ovp1fmt5AjjepnFO-448" value="" style="endArrow=none;html=1;rounded=0;strokeColor=light-dark(#6c8ebf, #ebd9ff);strokeWidth=3;" edge="1" parent="1">
          <mxGeometry width="50" height="50" relative="1" as="geometry">
            <mxPoint x="345" y="470" as="sourcePoint" />
            <mxPoint x="385" y="470" as="targetPoint" />
          </mxGeometry>
        </mxCell>
        <mxCell id="-j06Ovp1fmt5AjjepnFO-449" value="" style="endArrow=none;html=1;rounded=0;strokeColor=light-dark(#6c8ebf, #ebd9ff);strokeWidth=3;" edge="1" parent="1">
          <mxGeometry width="50" height="50" relative="1" as="geometry">
            <mxPoint x="385" y="470" as="sourcePoint" />
            <mxPoint x="405" y="430" as="targetPoint" />
          </mxGeometry>
        </mxCell>
        <mxCell id="-j06Ovp1fmt5AjjepnFO-450" value="" style="endArrow=none;html=1;rounded=0;strokeColor=light-dark(#6c8ebf, #ebd9ff);strokeWidth=3;" edge="1" parent="1">
          <mxGeometry width="50" height="50" relative="1" as="geometry">
            <mxPoint x="405" y="430" as="sourcePoint" />
            <mxPoint x="445" y="430" as="targetPoint" />
          </mxGeometry>
        </mxCell>
        <mxCell id="-j06Ovp1fmt5AjjepnFO-451" value="" style="endArrow=none;html=1;rounded=0;strokeColor=light-dark(#6c8ebf, #ebd9ff);strokeWidth=3;" edge="1" parent="1">
          <mxGeometry width="50" height="50" relative="1" as="geometry">
            <mxPoint x="465" y="470" as="sourcePoint" />
            <mxPoint x="445" y="430" as="targetPoint" />
          </mxGeometry>
        </mxCell>
        <mxCell id="-j06Ovp1fmt5AjjepnFO-452" value="" style="endArrow=none;html=1;rounded=0;strokeColor=light-dark(#6c8ebf, #ebd9ff);strokeWidth=3;" edge="1" parent="1">
          <mxGeometry width="50" height="50" relative="1" as="geometry">
            <mxPoint x="465" y="470" as="sourcePoint" />
            <mxPoint x="505" y="470" as="targetPoint" />
          </mxGeometry>
        </mxCell>
        <mxCell id="-j06Ovp1fmt5AjjepnFO-453" value="" style="endArrow=none;html=1;rounded=0;strokeColor=light-dark(#6c8ebf, #ebd9ff);strokeWidth=3;" edge="1" parent="1">
          <mxGeometry width="50" height="50" relative="1" as="geometry">
            <mxPoint x="523" y="470" as="sourcePoint" />
            <mxPoint x="503" y="430" as="targetPoint" />
          </mxGeometry>
        </mxCell>
        <mxCell id="-j06Ovp1fmt5AjjepnFO-454" value="" style="endArrow=none;html=1;rounded=0;strokeColor=light-dark(#6c8ebf, #ebd9ff);strokeWidth=3;" edge="1" parent="1">
          <mxGeometry width="50" height="50" relative="1" as="geometry">
            <mxPoint x="523" y="470" as="sourcePoint" />
            <mxPoint x="563" y="470" as="targetPoint" />
          </mxGeometry>
        </mxCell>
        <mxCell id="-j06Ovp1fmt5AjjepnFO-455" value="" style="endArrow=none;html=1;rounded=0;strokeColor=light-dark(#6c8ebf, #ebd9ff);strokeWidth=3;" edge="1" parent="1">
          <mxGeometry width="50" height="50" relative="1" as="geometry">
            <mxPoint x="563" y="470" as="sourcePoint" />
            <mxPoint x="583" y="430" as="targetPoint" />
          </mxGeometry>
        </mxCell>
        <mxCell id="-j06Ovp1fmt5AjjepnFO-456" value="" style="endArrow=none;html=1;rounded=0;strokeColor=light-dark(#6c8ebf, #ebd9ff);strokeWidth=3;" edge="1" parent="1">
          <mxGeometry width="50" height="50" relative="1" as="geometry">
            <mxPoint x="583" y="430" as="sourcePoint" />
            <mxPoint x="623" y="430" as="targetPoint" />
          </mxGeometry>
        </mxCell>
        <mxCell id="-j06Ovp1fmt5AjjepnFO-457" value="" style="endArrow=none;html=1;rounded=0;strokeColor=light-dark(#6c8ebf, #ebd9ff);strokeWidth=3;" edge="1" parent="1">
          <mxGeometry width="50" height="50" relative="1" as="geometry">
            <mxPoint x="643" y="470" as="sourcePoint" />
            <mxPoint x="623" y="430" as="targetPoint" />
          </mxGeometry>
        </mxCell>
        <mxCell id="-j06Ovp1fmt5AjjepnFO-458" value="" style="endArrow=none;html=1;rounded=0;strokeColor=light-dark(#6c8ebf, #ebd9ff);strokeWidth=3;" edge="1" parent="1">
          <mxGeometry width="50" height="50" relative="1" as="geometry">
            <mxPoint x="643" y="470" as="sourcePoint" />
            <mxPoint x="683" y="470" as="targetPoint" />
          </mxGeometry>
        </mxCell>
        <mxCell id="-j06Ovp1fmt5AjjepnFO-459" value="" style="endArrow=none;html=1;rounded=0;strokeColor=light-dark(#6c8ebf, #ebd9ff);strokeWidth=3;" edge="1" parent="1">
          <mxGeometry width="50" height="50" relative="1" as="geometry">
            <mxPoint x="683" y="470" as="sourcePoint" />
            <mxPoint x="703" y="430" as="targetPoint" />
          </mxGeometry>
        </mxCell>
        <mxCell id="-j06Ovp1fmt5AjjepnFO-460" value="" style="endArrow=none;html=1;rounded=0;strokeColor=light-dark(#6c8ebf, #ebd9ff);strokeWidth=3;" edge="1" parent="1">
          <mxGeometry width="50" height="50" relative="1" as="geometry">
            <mxPoint x="703" y="430" as="sourcePoint" />
            <mxPoint x="743" y="430" as="targetPoint" />
          </mxGeometry>
        </mxCell>
        <mxCell id="-j06Ovp1fmt5AjjepnFO-461" value="" style="endArrow=none;html=1;rounded=0;strokeColor=light-dark(#6c8ebf, #ebd9ff);strokeWidth=3;" edge="1" parent="1">
          <mxGeometry width="50" height="50" relative="1" as="geometry">
            <mxPoint x="763" y="470" as="sourcePoint" />
            <mxPoint x="743" y="430" as="targetPoint" />
          </mxGeometry>
        </mxCell>
        <mxCell id="-j06Ovp1fmt5AjjepnFO-462" value="" style="endArrow=none;html=1;rounded=0;strokeColor=light-dark(#6c8ebf, #ebd9ff);strokeWidth=3;" edge="1" parent="1">
          <mxGeometry width="50" height="50" relative="1" as="geometry">
            <mxPoint x="763" y="470" as="sourcePoint" />
            <mxPoint x="803" y="470" as="targetPoint" />
          </mxGeometry>
        </mxCell>
        <mxCell id="-j06Ovp1fmt5AjjepnFO-463" value="" style="endArrow=none;html=1;rounded=0;strokeColor=light-dark(#6c8ebf, #ebd9ff);strokeWidth=3;" edge="1" parent="1">
          <mxGeometry width="50" height="50" relative="1" as="geometry">
            <mxPoint x="803" y="470" as="sourcePoint" />
            <mxPoint x="823" y="430" as="targetPoint" />
          </mxGeometry>
        </mxCell>
        <mxCell id="-j06Ovp1fmt5AjjepnFO-464" value="" style="endArrow=none;html=1;rounded=0;strokeColor=light-dark(#6c8ebf, #ebd9ff);strokeWidth=3;" edge="1" parent="1">
          <mxGeometry width="50" height="50" relative="1" as="geometry">
            <mxPoint x="823" y="430" as="sourcePoint" />
            <mxPoint x="863" y="430" as="targetPoint" />
          </mxGeometry>
        </mxCell>
        <mxCell id="-j06Ovp1fmt5AjjepnFO-465" value="" style="endArrow=none;html=1;rounded=0;strokeColor=light-dark(#6c8ebf, #ebd9ff);strokeWidth=3;" edge="1" parent="1">
          <mxGeometry width="50" height="50" relative="1" as="geometry">
            <mxPoint x="504" y="470" as="sourcePoint" />
            <mxPoint x="524" y="430" as="targetPoint" />
          </mxGeometry>
        </mxCell>
        <mxCell id="-j06Ovp1fmt5AjjepnFO-466" value="" style="endArrow=none;html=1;rounded=0;strokeColor=light-dark(#6c8ebf, #ebd9ff);strokeWidth=3;" edge="1" parent="1">
          <mxGeometry width="50" height="50" relative="1" as="geometry">
            <mxPoint x="524" y="430" as="sourcePoint" />
            <mxPoint x="564" y="430" as="targetPoint" />
          </mxGeometry>
        </mxCell>
        <mxCell id="-j06Ovp1fmt5AjjepnFO-467" value="" style="endArrow=none;html=1;rounded=0;strokeColor=light-dark(#6c8ebf, #ebd9ff);strokeWidth=3;" edge="1" parent="1">
          <mxGeometry width="50" height="50" relative="1" as="geometry">
            <mxPoint x="584" y="470" as="sourcePoint" />
            <mxPoint x="564" y="430" as="targetPoint" />
          </mxGeometry>
        </mxCell>
        <mxCell id="-j06Ovp1fmt5AjjepnFO-468" value="" style="endArrow=none;html=1;rounded=0;strokeColor=light-dark(#6c8ebf, #ebd9ff);strokeWidth=3;" edge="1" parent="1">
          <mxGeometry width="50" height="50" relative="1" as="geometry">
            <mxPoint x="584" y="470" as="sourcePoint" />
            <mxPoint x="624" y="470" as="targetPoint" />
          </mxGeometry>
        </mxCell>
        <mxCell id="-j06Ovp1fmt5AjjepnFO-469" value="" style="endArrow=none;html=1;rounded=0;strokeColor=light-dark(#6c8ebf, #ebd9ff);strokeWidth=3;" edge="1" parent="1">
          <mxGeometry width="50" height="50" relative="1" as="geometry">
            <mxPoint x="624" y="470" as="sourcePoint" />
            <mxPoint x="644" y="430" as="targetPoint" />
          </mxGeometry>
        </mxCell>
        <mxCell id="-j06Ovp1fmt5AjjepnFO-470" value="" style="endArrow=none;html=1;rounded=0;strokeColor=light-dark(#6c8ebf, #ebd9ff);strokeWidth=3;" edge="1" parent="1">
          <mxGeometry width="50" height="50" relative="1" as="geometry">
            <mxPoint x="644" y="430" as="sourcePoint" />
            <mxPoint x="684" y="430" as="targetPoint" />
          </mxGeometry>
        </mxCell>
        <mxCell id="-j06Ovp1fmt5AjjepnFO-471" value="" style="endArrow=none;html=1;rounded=0;strokeColor=light-dark(#6c8ebf, #ebd9ff);strokeWidth=3;" edge="1" parent="1">
          <mxGeometry width="50" height="50" relative="1" as="geometry">
            <mxPoint x="704" y="470" as="sourcePoint" />
            <mxPoint x="684" y="430" as="targetPoint" />
          </mxGeometry>
        </mxCell>
        <mxCell id="-j06Ovp1fmt5AjjepnFO-472" value="" style="endArrow=none;html=1;rounded=0;strokeColor=light-dark(#6c8ebf, #ebd9ff);strokeWidth=3;" edge="1" parent="1">
          <mxGeometry width="50" height="50" relative="1" as="geometry">
            <mxPoint x="704" y="470" as="sourcePoint" />
            <mxPoint x="744" y="470" as="targetPoint" />
          </mxGeometry>
        </mxCell>
        <mxCell id="-j06Ovp1fmt5AjjepnFO-473" value="" style="endArrow=none;html=1;rounded=0;strokeColor=light-dark(#6c8ebf, #ebd9ff);strokeWidth=3;" edge="1" parent="1">
          <mxGeometry width="50" height="50" relative="1" as="geometry">
            <mxPoint x="744" y="470" as="sourcePoint" />
            <mxPoint x="764" y="430" as="targetPoint" />
          </mxGeometry>
        </mxCell>
        <mxCell id="-j06Ovp1fmt5AjjepnFO-474" value="" style="endArrow=none;html=1;rounded=0;strokeColor=light-dark(#6c8ebf, #ebd9ff);strokeWidth=3;" edge="1" parent="1">
          <mxGeometry width="50" height="50" relative="1" as="geometry">
            <mxPoint x="764" y="430" as="sourcePoint" />
            <mxPoint x="804" y="430" as="targetPoint" />
          </mxGeometry>
        </mxCell>
        <mxCell id="-j06Ovp1fmt5AjjepnFO-475" value="" style="endArrow=none;html=1;rounded=0;strokeColor=light-dark(#6c8ebf, #ebd9ff);strokeWidth=3;" edge="1" parent="1">
          <mxGeometry width="50" height="50" relative="1" as="geometry">
            <mxPoint x="824" y="470" as="sourcePoint" />
            <mxPoint x="804" y="430" as="targetPoint" />
          </mxGeometry>
        </mxCell>
        <mxCell id="-j06Ovp1fmt5AjjepnFO-476" value="" style="endArrow=none;html=1;rounded=0;strokeColor=light-dark(#6c8ebf, #ebd9ff);strokeWidth=3;" edge="1" parent="1">
          <mxGeometry width="50" height="50" relative="1" as="geometry">
            <mxPoint x="824" y="470" as="sourcePoint" />
            <mxPoint x="864" y="470" as="targetPoint" />
          </mxGeometry>
        </mxCell>
        <mxCell id="-j06Ovp1fmt5AjjepnFO-477" value="DQ0" style="text;html=1;align=center;verticalAlign=middle;whiteSpace=wrap;rounded=0;fontColor=light-dark(#29b6f2, #ebd9ff);fontStyle=1" vertex="1" parent="1">
          <mxGeometry x="75" y="440" width="60" height="20" as="geometry" />
        </mxCell>
        <mxCell id="-j06Ovp1fmt5AjjepnFO-478" value="" style="endArrow=none;html=1;rounded=0;strokeColor=light-dark(#6c8ebf, #ebd9ff);strokeWidth=3;" edge="1" parent="1">
          <mxGeometry width="50" height="50" relative="1" as="geometry">
            <mxPoint x="862" y="469.71000000000004" as="sourcePoint" />
            <mxPoint x="882" y="429.71000000000004" as="targetPoint" />
          </mxGeometry>
        </mxCell>
        <mxCell id="-j06Ovp1fmt5AjjepnFO-479" value="" style="endArrow=none;html=1;rounded=0;strokeColor=light-dark(#6c8ebf, #ebd9ff);strokeWidth=3;" edge="1" parent="1">
          <mxGeometry width="50" height="50" relative="1" as="geometry">
            <mxPoint x="882" y="429.71000000000004" as="sourcePoint" />
            <mxPoint x="922" y="429.71000000000004" as="targetPoint" />
          </mxGeometry>
        </mxCell>
        <mxCell id="-j06Ovp1fmt5AjjepnFO-480" value="" style="endArrow=none;html=1;rounded=0;strokeColor=light-dark(#6c8ebf, #ebd9ff);strokeWidth=3;" edge="1" parent="1">
          <mxGeometry width="50" height="50" relative="1" as="geometry">
            <mxPoint x="942" y="469.71000000000004" as="sourcePoint" />
            <mxPoint x="922" y="429.71000000000004" as="targetPoint" />
          </mxGeometry>
        </mxCell>
        <mxCell id="-j06Ovp1fmt5AjjepnFO-481" value="" style="endArrow=none;html=1;rounded=0;strokeColor=light-dark(#6c8ebf, #ebd9ff);strokeWidth=3;" edge="1" parent="1">
          <mxGeometry width="50" height="50" relative="1" as="geometry">
            <mxPoint x="942" y="469.71000000000004" as="sourcePoint" />
            <mxPoint x="982" y="469.71000000000004" as="targetPoint" />
          </mxGeometry>
        </mxCell>
        <mxCell id="-j06Ovp1fmt5AjjepnFO-482" value="" style="endArrow=none;html=1;rounded=0;strokeColor=light-dark(#6c8ebf, #ebd9ff);strokeWidth=3;" edge="1" parent="1">
          <mxGeometry width="50" height="50" relative="1" as="geometry">
            <mxPoint x="982" y="469.71000000000004" as="sourcePoint" />
            <mxPoint x="1002" y="429.71000000000004" as="targetPoint" />
          </mxGeometry>
        </mxCell>
        <mxCell id="-j06Ovp1fmt5AjjepnFO-483" value="" style="endArrow=none;html=1;rounded=0;strokeColor=light-dark(#6c8ebf, #ebd9ff);strokeWidth=3;" edge="1" parent="1">
          <mxGeometry width="50" height="50" relative="1" as="geometry">
            <mxPoint x="883" y="469.71000000000004" as="sourcePoint" />
            <mxPoint x="863" y="429.71000000000004" as="targetPoint" />
          </mxGeometry>
        </mxCell>
        <mxCell id="-j06Ovp1fmt5AjjepnFO-484" value="" style="endArrow=none;html=1;rounded=0;strokeColor=light-dark(#6c8ebf, #ebd9ff);strokeWidth=3;" edge="1" parent="1">
          <mxGeometry width="50" height="50" relative="1" as="geometry">
            <mxPoint x="883" y="469.71000000000004" as="sourcePoint" />
            <mxPoint x="923" y="469.71000000000004" as="targetPoint" />
          </mxGeometry>
        </mxCell>
        <mxCell id="-j06Ovp1fmt5AjjepnFO-485" value="" style="endArrow=none;html=1;rounded=0;strokeColor=light-dark(#6c8ebf, #ebd9ff);strokeWidth=3;" edge="1" parent="1">
          <mxGeometry width="50" height="50" relative="1" as="geometry">
            <mxPoint x="923" y="469.71000000000004" as="sourcePoint" />
            <mxPoint x="943" y="429.71000000000004" as="targetPoint" />
          </mxGeometry>
        </mxCell>
        <mxCell id="-j06Ovp1fmt5AjjepnFO-486" value="" style="endArrow=none;html=1;rounded=0;strokeColor=light-dark(#6c8ebf, #ebd9ff);strokeWidth=3;" edge="1" parent="1">
          <mxGeometry width="50" height="50" relative="1" as="geometry">
            <mxPoint x="943" y="429.71000000000004" as="sourcePoint" />
            <mxPoint x="983" y="429.71000000000004" as="targetPoint" />
          </mxGeometry>
        </mxCell>
        <mxCell id="-j06Ovp1fmt5AjjepnFO-487" value="" style="endArrow=none;html=1;rounded=0;strokeColor=light-dark(#6c8ebf, #ebd9ff);strokeWidth=3;" edge="1" parent="1">
          <mxGeometry width="50" height="50" relative="1" as="geometry">
            <mxPoint x="1003" y="469.71000000000004" as="sourcePoint" />
            <mxPoint x="983" y="429.71000000000004" as="targetPoint" />
          </mxGeometry>
        </mxCell>
        <mxCell id="-j06Ovp1fmt5AjjepnFO-488" value="" style="endArrow=none;html=1;rounded=0;strokeColor=light-dark(#6c8ebf, #ebd9ff);strokeWidth=3;" edge="1" parent="1">
          <mxGeometry width="50" height="50" relative="1" as="geometry">
            <mxPoint x="1120" y="469.58000000000004" as="sourcePoint" />
            <mxPoint x="1160" y="470" as="targetPoint" />
          </mxGeometry>
        </mxCell>
        <mxCell id="-j06Ovp1fmt5AjjepnFO-489" value="" style="endArrow=none;html=1;rounded=0;strokeColor=light-dark(#6c8ebf, #ebd9ff);strokeWidth=3;" edge="1" parent="1">
          <mxGeometry width="50" height="50" relative="1" as="geometry">
            <mxPoint x="1121" y="429.58000000000004" as="sourcePoint" />
            <mxPoint x="1145" y="430" as="targetPoint" />
          </mxGeometry>
        </mxCell>
        <mxCell id="-j06Ovp1fmt5AjjepnFO-490" value="D0" style="text;html=1;align=center;verticalAlign=middle;whiteSpace=wrap;rounded=0;fontColor=#0a0a0a;fontStyle=1;strokeColor=light-dark(#6c8ebf, #ebd9ff);" vertex="1" parent="1">
          <mxGeometry x="165" y="440" width="40" height="20" as="geometry" />
        </mxCell>
        <mxCell id="-j06Ovp1fmt5AjjepnFO-491" value="D4" style="text;html=1;align=center;verticalAlign=middle;whiteSpace=wrap;rounded=0;fontColor=#0a0a0a;fontStyle=1;strokeColor=light-dark(#6c8ebf, #ebd9ff);" vertex="1" parent="1">
          <mxGeometry x="225" y="440" width="40" height="20" as="geometry" />
        </mxCell>
        <mxCell id="-j06Ovp1fmt5AjjepnFO-492" value="D8" style="text;html=1;align=center;verticalAlign=middle;whiteSpace=wrap;rounded=0;fontColor=#0a0a0a;fontStyle=1;strokeColor=light-dark(#6c8ebf, #ebd9ff);" vertex="1" parent="1">
          <mxGeometry x="285" y="440" width="40" height="20" as="geometry" />
        </mxCell>
        <mxCell id="-j06Ovp1fmt5AjjepnFO-493" value="D12" style="text;html=1;align=center;verticalAlign=middle;whiteSpace=wrap;rounded=0;fontColor=#0a0a0a;fontStyle=1;strokeColor=light-dark(#6c8ebf, #ebd9ff);" vertex="1" parent="1">
          <mxGeometry x="345" y="440" width="40" height="20" as="geometry" />
        </mxCell>
        <mxCell id="-j06Ovp1fmt5AjjepnFO-494" value="D16" style="text;html=1;align=center;verticalAlign=middle;whiteSpace=wrap;rounded=0;fontColor=#0a0a0a;fontStyle=1;strokeColor=light-dark(#6c8ebf, #ebd9ff);" vertex="1" parent="1">
          <mxGeometry x="405" y="440" width="40" height="20" as="geometry" />
        </mxCell>
        <mxCell id="-j06Ovp1fmt5AjjepnFO-495" value="D20" style="text;html=1;align=center;verticalAlign=middle;whiteSpace=wrap;rounded=0;fontColor=#0a0a0a;fontStyle=1;strokeColor=light-dark(#6c8ebf, #ebd9ff);" vertex="1" parent="1">
          <mxGeometry x="465" y="440" width="40" height="20" as="geometry" />
        </mxCell>
        <mxCell id="-j06Ovp1fmt5AjjepnFO-496" value="D24" style="text;html=1;align=center;verticalAlign=middle;whiteSpace=wrap;rounded=0;fontColor=#0a0a0a;fontStyle=1;strokeColor=light-dark(#6c8ebf, #ebd9ff);" vertex="1" parent="1">
          <mxGeometry x="525" y="440" width="40" height="20" as="geometry" />
        </mxCell>
        <mxCell id="-j06Ovp1fmt5AjjepnFO-497" value="D28" style="text;html=1;align=center;verticalAlign=middle;whiteSpace=wrap;rounded=0;fontColor=#0a0a0a;fontStyle=1;strokeColor=light-dark(#6c8ebf, #ebd9ff);" vertex="1" parent="1">
          <mxGeometry x="585" y="440" width="40" height="20" as="geometry" />
        </mxCell>
        <mxCell id="-j06Ovp1fmt5AjjepnFO-498" value="D32" style="text;html=1;align=center;verticalAlign=middle;whiteSpace=wrap;rounded=0;fontColor=#0a0a0a;fontStyle=1;strokeColor=light-dark(#6c8ebf, #ebd9ff);" vertex="1" parent="1">
          <mxGeometry x="645" y="440" width="40" height="20" as="geometry" />
        </mxCell>
        <mxCell id="-j06Ovp1fmt5AjjepnFO-499" value="D36" style="text;html=1;align=center;verticalAlign=middle;whiteSpace=wrap;rounded=0;fontColor=#0a0a0a;fontStyle=1;strokeColor=light-dark(#6c8ebf, #ebd9ff);" vertex="1" parent="1">
          <mxGeometry x="705" y="440" width="40" height="20" as="geometry" />
        </mxCell>
        <mxCell id="-j06Ovp1fmt5AjjepnFO-500" value="D40" style="text;html=1;align=center;verticalAlign=middle;whiteSpace=wrap;rounded=0;fontColor=#0a0a0a;fontStyle=1;strokeColor=light-dark(#6c8ebf, #ebd9ff);" vertex="1" parent="1">
          <mxGeometry x="765" y="440" width="40" height="20" as="geometry" />
        </mxCell>
        <mxCell id="-j06Ovp1fmt5AjjepnFO-501" value="D44" style="text;html=1;align=center;verticalAlign=middle;whiteSpace=wrap;rounded=0;fontColor=#0a0a0a;fontStyle=1;strokeColor=light-dark(#6c8ebf, #ebd9ff);" vertex="1" parent="1">
          <mxGeometry x="825" y="440" width="40" height="20" as="geometry" />
        </mxCell>
        <mxCell id="-j06Ovp1fmt5AjjepnFO-502" value="D48" style="text;html=1;align=center;verticalAlign=middle;whiteSpace=wrap;rounded=0;fontColor=#0a0a0a;fontStyle=1;strokeColor=light-dark(#6c8ebf, #ebd9ff);" vertex="1" parent="1">
          <mxGeometry x="885" y="440" width="40" height="20" as="geometry" />
        </mxCell>
        <mxCell id="-j06Ovp1fmt5AjjepnFO-503" value="D52" style="text;html=1;align=center;verticalAlign=middle;whiteSpace=wrap;rounded=0;fontColor=#0a0a0a;fontStyle=1;strokeColor=light-dark(#6c8ebf, #ebd9ff);" vertex="1" parent="1">
          <mxGeometry x="945" y="440" width="40" height="20" as="geometry" />
        </mxCell>
        <mxCell id="-j06Ovp1fmt5AjjepnFO-504" value="" style="endArrow=none;html=1;rounded=0;strokeColor=light-dark(#6c8ebf, #ebd9ff);strokeWidth=3;" edge="1" parent="1">
          <mxGeometry width="50" height="50" relative="1" as="geometry">
            <mxPoint x="1001" y="469.71000000000004" as="sourcePoint" />
            <mxPoint x="1041" y="469.71000000000004" as="targetPoint" />
          </mxGeometry>
        </mxCell>
        <mxCell id="-j06Ovp1fmt5AjjepnFO-505" value="" style="endArrow=none;html=1;rounded=0;strokeColor=light-dark(#6c8ebf, #ebd9ff);strokeWidth=3;" edge="1" parent="1">
          <mxGeometry width="50" height="50" relative="1" as="geometry">
            <mxPoint x="1041" y="469.71000000000004" as="sourcePoint" />
            <mxPoint x="1061" y="429.71000000000004" as="targetPoint" />
          </mxGeometry>
        </mxCell>
        <mxCell id="-j06Ovp1fmt5AjjepnFO-506" value="" style="endArrow=none;html=1;rounded=0;strokeColor=light-dark(#6c8ebf, #ebd9ff);strokeWidth=3;" edge="1" parent="1">
          <mxGeometry width="50" height="50" relative="1" as="geometry">
            <mxPoint x="1002" y="429.71000000000004" as="sourcePoint" />
            <mxPoint x="1042" y="429.71000000000004" as="targetPoint" />
          </mxGeometry>
        </mxCell>
        <mxCell id="-j06Ovp1fmt5AjjepnFO-507" value="" style="endArrow=none;html=1;rounded=0;strokeColor=light-dark(#6c8ebf, #ebd9ff);strokeWidth=3;" edge="1" parent="1">
          <mxGeometry width="50" height="50" relative="1" as="geometry">
            <mxPoint x="1062" y="469.71000000000004" as="sourcePoint" />
            <mxPoint x="1042" y="429.71000000000004" as="targetPoint" />
          </mxGeometry>
        </mxCell>
        <mxCell id="-j06Ovp1fmt5AjjepnFO-508" value="D56" style="text;html=1;align=center;verticalAlign=middle;whiteSpace=wrap;rounded=0;fontColor=#0a0a0a;fontStyle=1;strokeColor=light-dark(#6c8ebf, #ebd9ff);" vertex="1" parent="1">
          <mxGeometry x="1004" y="440" width="40" height="20" as="geometry" />
        </mxCell>
        <mxCell id="-j06Ovp1fmt5AjjepnFO-509" value="" style="endArrow=none;html=1;rounded=0;strokeColor=light-dark(#6c8ebf, #ebd9ff);strokeWidth=3;" edge="1" parent="1">
          <mxGeometry width="50" height="50" relative="1" as="geometry">
            <mxPoint x="1060" y="469.71000000000004" as="sourcePoint" />
            <mxPoint x="1100" y="469.71000000000004" as="targetPoint" />
          </mxGeometry>
        </mxCell>
        <mxCell id="-j06Ovp1fmt5AjjepnFO-510" value="" style="endArrow=none;html=1;rounded=0;strokeColor=light-dark(#6c8ebf, #ebd9ff);strokeWidth=3;" edge="1" parent="1">
          <mxGeometry width="50" height="50" relative="1" as="geometry">
            <mxPoint x="1100" y="469.71000000000004" as="sourcePoint" />
            <mxPoint x="1120" y="429.71000000000004" as="targetPoint" />
          </mxGeometry>
        </mxCell>
        <mxCell id="-j06Ovp1fmt5AjjepnFO-511" value="" style="endArrow=none;html=1;rounded=0;strokeColor=light-dark(#6c8ebf, #ebd9ff);strokeWidth=3;" edge="1" parent="1">
          <mxGeometry width="50" height="50" relative="1" as="geometry">
            <mxPoint x="1061" y="429.71000000000004" as="sourcePoint" />
            <mxPoint x="1101" y="429.71000000000004" as="targetPoint" />
          </mxGeometry>
        </mxCell>
        <mxCell id="-j06Ovp1fmt5AjjepnFO-512" value="" style="endArrow=none;html=1;rounded=0;strokeColor=light-dark(#6c8ebf, #ebd9ff);strokeWidth=3;" edge="1" parent="1">
          <mxGeometry width="50" height="50" relative="1" as="geometry">
            <mxPoint x="1121" y="469.71000000000004" as="sourcePoint" />
            <mxPoint x="1101" y="429.71000000000004" as="targetPoint" />
          </mxGeometry>
        </mxCell>
        <mxCell id="-j06Ovp1fmt5AjjepnFO-513" value="D60" style="text;html=1;align=center;verticalAlign=middle;whiteSpace=wrap;rounded=0;fontColor=#0a0a0a;fontStyle=1;strokeColor=light-dark(#6c8ebf, #ebd9ff);" vertex="1" parent="1">
          <mxGeometry x="1063" y="440" width="40" height="20" as="geometry" />
        </mxCell>
        <mxCell id="-j06Ovp1fmt5AjjepnFO-514" value="" style="endArrow=none;html=1;rounded=0;strokeColor=light-dark(#6c8ebf, #ebd9ff);strokeWidth=3;" edge="1" parent="1">
          <mxGeometry width="50" height="50" relative="1" as="geometry">
            <mxPoint x="1237" y="469.58000000000004" as="sourcePoint" />
            <mxPoint x="1262" y="470" as="targetPoint" />
          </mxGeometry>
        </mxCell>
        <mxCell id="-j06Ovp1fmt5AjjepnFO-515" value="" style="endArrow=none;html=1;rounded=0;strokeColor=light-dark(#6c8ebf, #ebd9ff);strokeWidth=3;" edge="1" parent="1">
          <mxGeometry width="50" height="50" relative="1" as="geometry">
            <mxPoint x="1238" y="429.58000000000004" as="sourcePoint" />
            <mxPoint x="1262" y="430" as="targetPoint" />
          </mxGeometry>
        </mxCell>
        <mxCell id="-j06Ovp1fmt5AjjepnFO-516" value="" style="endArrow=none;html=1;rounded=0;strokeColor=light-dark(#6c8ebf, #ebd9ff);strokeWidth=3;" edge="1" parent="1">
          <mxGeometry width="50" height="50" relative="1" as="geometry">
            <mxPoint x="1158" y="469.71000000000004" as="sourcePoint" />
            <mxPoint x="1178" y="429.71000000000004" as="targetPoint" />
          </mxGeometry>
        </mxCell>
        <mxCell id="-j06Ovp1fmt5AjjepnFO-517" value="" style="endArrow=none;html=1;rounded=0;strokeColor=light-dark(#6c8ebf, #ebd9ff);strokeWidth=3;" edge="1" parent="1">
          <mxGeometry width="50" height="50" relative="1" as="geometry">
            <mxPoint x="1119" y="429.71000000000004" as="sourcePoint" />
            <mxPoint x="1159" y="429.71000000000004" as="targetPoint" />
          </mxGeometry>
        </mxCell>
        <mxCell id="-j06Ovp1fmt5AjjepnFO-518" value="" style="endArrow=none;html=1;rounded=0;strokeColor=light-dark(#6c8ebf, #ebd9ff);strokeWidth=3;" edge="1" parent="1">
          <mxGeometry width="50" height="50" relative="1" as="geometry">
            <mxPoint x="1179" y="469.71000000000004" as="sourcePoint" />
            <mxPoint x="1159" y="429.71000000000004" as="targetPoint" />
          </mxGeometry>
        </mxCell>
        <mxCell id="-j06Ovp1fmt5AjjepnFO-519" value="CRC0" style="text;html=1;align=center;verticalAlign=middle;whiteSpace=wrap;rounded=0;fontColor=#0a0a0a;fontStyle=1;strokeColor=light-dark(#6c8ebf, #ebd9ff);" vertex="1" parent="1">
          <mxGeometry x="1121" y="440" width="40" height="20" as="geometry" />
        </mxCell>
        <mxCell id="-j06Ovp1fmt5AjjepnFO-520" value="" style="endArrow=none;html=1;rounded=0;strokeColor=light-dark(#6c8ebf, #ebd9ff);strokeWidth=3;" edge="1" parent="1">
          <mxGeometry width="50" height="50" relative="1" as="geometry">
            <mxPoint x="1177" y="469.71000000000004" as="sourcePoint" />
            <mxPoint x="1217" y="469.71000000000004" as="targetPoint" />
          </mxGeometry>
        </mxCell>
        <mxCell id="-j06Ovp1fmt5AjjepnFO-521" value="" style="endArrow=none;html=1;rounded=0;strokeColor=light-dark(#6c8ebf, #ebd9ff);strokeWidth=3;" edge="1" parent="1">
          <mxGeometry width="50" height="50" relative="1" as="geometry">
            <mxPoint x="1217" y="469.71000000000004" as="sourcePoint" />
            <mxPoint x="1237" y="429.71000000000004" as="targetPoint" />
          </mxGeometry>
        </mxCell>
        <mxCell id="-j06Ovp1fmt5AjjepnFO-522" value="" style="endArrow=none;html=1;rounded=0;strokeColor=light-dark(#6c8ebf, #ebd9ff);strokeWidth=3;" edge="1" parent="1">
          <mxGeometry width="50" height="50" relative="1" as="geometry">
            <mxPoint x="1178" y="429.71000000000004" as="sourcePoint" />
            <mxPoint x="1218" y="429.71000000000004" as="targetPoint" />
          </mxGeometry>
        </mxCell>
        <mxCell id="-j06Ovp1fmt5AjjepnFO-523" value="" style="endArrow=none;html=1;rounded=0;strokeColor=light-dark(#6c8ebf, #ebd9ff);strokeWidth=3;" edge="1" parent="1">
          <mxGeometry width="50" height="50" relative="1" as="geometry">
            <mxPoint x="1238" y="469.71000000000004" as="sourcePoint" />
            <mxPoint x="1218" y="429.71000000000004" as="targetPoint" />
          </mxGeometry>
        </mxCell>
        <mxCell id="-j06Ovp1fmt5AjjepnFO-524" value="CRC4" style="text;html=1;align=center;verticalAlign=middle;whiteSpace=wrap;rounded=0;fontColor=#0a0a0a;fontStyle=1;strokeColor=light-dark(#6c8ebf, #ebd9ff);" vertex="1" parent="1">
          <mxGeometry x="1180" y="440" width="40" height="20" as="geometry" />
        </mxCell>
        <mxCell id="-j06Ovp1fmt5AjjepnFO-525" value="" style="endArrow=none;html=1;rounded=0;strokeColor=light-dark(#b85450, #ebd9ff);strokeWidth=3;" edge="1" parent="1">
          <mxGeometry width="50" height="50" relative="1" as="geometry">
            <mxPoint x="164" y="532" as="sourcePoint" />
            <mxPoint x="144" y="492" as="targetPoint" />
          </mxGeometry>
        </mxCell>
        <mxCell id="-j06Ovp1fmt5AjjepnFO-526" value="" style="endArrow=none;html=1;rounded=0;strokeColor=light-dark(#b85450, #ebd9ff);strokeWidth=3;" edge="1" parent="1">
          <mxGeometry width="50" height="50" relative="1" as="geometry">
            <mxPoint x="164" y="532" as="sourcePoint" />
            <mxPoint x="204" y="532" as="targetPoint" />
          </mxGeometry>
        </mxCell>
        <mxCell id="-j06Ovp1fmt5AjjepnFO-527" value="" style="endArrow=none;html=1;rounded=0;strokeColor=light-dark(#b85450, #ebd9ff);strokeWidth=3;" edge="1" parent="1">
          <mxGeometry width="50" height="50" relative="1" as="geometry">
            <mxPoint x="204" y="532" as="sourcePoint" />
            <mxPoint x="224" y="492" as="targetPoint" />
          </mxGeometry>
        </mxCell>
        <mxCell id="-j06Ovp1fmt5AjjepnFO-528" value="" style="endArrow=none;html=1;rounded=0;strokeColor=light-dark(#b85450, #ebd9ff);strokeWidth=3;" edge="1" parent="1">
          <mxGeometry width="50" height="50" relative="1" as="geometry">
            <mxPoint x="224" y="492" as="sourcePoint" />
            <mxPoint x="264" y="492" as="targetPoint" />
          </mxGeometry>
        </mxCell>
        <mxCell id="-j06Ovp1fmt5AjjepnFO-529" value="" style="endArrow=none;html=1;rounded=0;strokeColor=light-dark(#b85450, #ebd9ff);strokeWidth=3;" edge="1" parent="1">
          <mxGeometry width="50" height="50" relative="1" as="geometry">
            <mxPoint x="284" y="532" as="sourcePoint" />
            <mxPoint x="264" y="492" as="targetPoint" />
          </mxGeometry>
        </mxCell>
        <mxCell id="-j06Ovp1fmt5AjjepnFO-530" value="" style="endArrow=none;html=1;rounded=0;strokeColor=light-dark(#b85450, #ebd9ff);strokeWidth=3;" edge="1" parent="1">
          <mxGeometry width="50" height="50" relative="1" as="geometry">
            <mxPoint x="284" y="532" as="sourcePoint" />
            <mxPoint x="324" y="532" as="targetPoint" />
          </mxGeometry>
        </mxCell>
        <mxCell id="-j06Ovp1fmt5AjjepnFO-531" value="" style="endArrow=none;html=1;rounded=0;strokeColor=light-dark(#b85450, #ebd9ff);strokeWidth=3;" edge="1" parent="1">
          <mxGeometry width="50" height="50" relative="1" as="geometry">
            <mxPoint x="324" y="532" as="sourcePoint" />
            <mxPoint x="344" y="492" as="targetPoint" />
          </mxGeometry>
        </mxCell>
        <mxCell id="-j06Ovp1fmt5AjjepnFO-532" value="" style="endArrow=none;html=1;rounded=0;strokeColor=light-dark(#b85450, #ebd9ff);strokeWidth=3;" edge="1" parent="1">
          <mxGeometry width="50" height="50" relative="1" as="geometry">
            <mxPoint x="344" y="492" as="sourcePoint" />
            <mxPoint x="384" y="492" as="targetPoint" />
          </mxGeometry>
        </mxCell>
        <mxCell id="-j06Ovp1fmt5AjjepnFO-533" value="" style="endArrow=none;html=1;rounded=0;strokeColor=light-dark(#b85450, #ebd9ff);strokeWidth=3;" edge="1" parent="1">
          <mxGeometry width="50" height="50" relative="1" as="geometry">
            <mxPoint x="404" y="532" as="sourcePoint" />
            <mxPoint x="384" y="492" as="targetPoint" />
          </mxGeometry>
        </mxCell>
        <mxCell id="-j06Ovp1fmt5AjjepnFO-534" value="" style="endArrow=none;html=1;rounded=0;strokeColor=light-dark(#b85450, #ebd9ff);strokeWidth=3;" edge="1" parent="1">
          <mxGeometry width="50" height="50" relative="1" as="geometry">
            <mxPoint x="404" y="532" as="sourcePoint" />
            <mxPoint x="444" y="532" as="targetPoint" />
          </mxGeometry>
        </mxCell>
        <mxCell id="-j06Ovp1fmt5AjjepnFO-535" value="" style="endArrow=none;html=1;rounded=0;strokeColor=light-dark(#b85450, #ebd9ff);strokeWidth=3;" edge="1" parent="1">
          <mxGeometry width="50" height="50" relative="1" as="geometry">
            <mxPoint x="444" y="532" as="sourcePoint" />
            <mxPoint x="464" y="492" as="targetPoint" />
          </mxGeometry>
        </mxCell>
        <mxCell id="-j06Ovp1fmt5AjjepnFO-536" value="" style="endArrow=none;html=1;rounded=0;strokeColor=light-dark(#b85450, #ebd9ff);strokeWidth=3;" edge="1" parent="1">
          <mxGeometry width="50" height="50" relative="1" as="geometry">
            <mxPoint x="464" y="492" as="sourcePoint" />
            <mxPoint x="504" y="492" as="targetPoint" />
          </mxGeometry>
        </mxCell>
        <mxCell id="-j06Ovp1fmt5AjjepnFO-537" value="" style="endArrow=none;html=1;rounded=0;strokeColor=light-dark(#b85450, #ebd9ff);strokeWidth=3;" edge="1" parent="1">
          <mxGeometry width="50" height="50" relative="1" as="geometry">
            <mxPoint x="145" y="532" as="sourcePoint" />
            <mxPoint x="165" y="492" as="targetPoint" />
          </mxGeometry>
        </mxCell>
        <mxCell id="-j06Ovp1fmt5AjjepnFO-538" value="" style="endArrow=none;html=1;rounded=0;strokeColor=light-dark(#b85450, #ebd9ff);strokeWidth=3;" edge="1" parent="1">
          <mxGeometry width="50" height="50" relative="1" as="geometry">
            <mxPoint x="165" y="492" as="sourcePoint" />
            <mxPoint x="205" y="492" as="targetPoint" />
          </mxGeometry>
        </mxCell>
        <mxCell id="-j06Ovp1fmt5AjjepnFO-539" value="" style="endArrow=none;html=1;rounded=0;strokeColor=light-dark(#b85450, #ebd9ff);strokeWidth=3;" edge="1" parent="1">
          <mxGeometry width="50" height="50" relative="1" as="geometry">
            <mxPoint x="225" y="532" as="sourcePoint" />
            <mxPoint x="205" y="492" as="targetPoint" />
          </mxGeometry>
        </mxCell>
        <mxCell id="-j06Ovp1fmt5AjjepnFO-540" value="" style="endArrow=none;html=1;rounded=0;strokeColor=light-dark(#b85450, #ebd9ff);strokeWidth=3;" edge="1" parent="1">
          <mxGeometry width="50" height="50" relative="1" as="geometry">
            <mxPoint x="225" y="532" as="sourcePoint" />
            <mxPoint x="265" y="532" as="targetPoint" />
          </mxGeometry>
        </mxCell>
        <mxCell id="-j06Ovp1fmt5AjjepnFO-541" value="" style="endArrow=none;html=1;rounded=0;strokeColor=light-dark(#b85450, #ebd9ff);strokeWidth=3;" edge="1" parent="1">
          <mxGeometry width="50" height="50" relative="1" as="geometry">
            <mxPoint x="265" y="532" as="sourcePoint" />
            <mxPoint x="285" y="492" as="targetPoint" />
          </mxGeometry>
        </mxCell>
        <mxCell id="-j06Ovp1fmt5AjjepnFO-542" value="" style="endArrow=none;html=1;rounded=0;strokeColor=light-dark(#b85450, #ebd9ff);strokeWidth=3;" edge="1" parent="1">
          <mxGeometry width="50" height="50" relative="1" as="geometry">
            <mxPoint x="285" y="492" as="sourcePoint" />
            <mxPoint x="325" y="492" as="targetPoint" />
          </mxGeometry>
        </mxCell>
        <mxCell id="-j06Ovp1fmt5AjjepnFO-543" value="" style="endArrow=none;html=1;rounded=0;strokeColor=light-dark(#b85450, #ebd9ff);strokeWidth=3;" edge="1" parent="1">
          <mxGeometry width="50" height="50" relative="1" as="geometry">
            <mxPoint x="345" y="532" as="sourcePoint" />
            <mxPoint x="325" y="492" as="targetPoint" />
          </mxGeometry>
        </mxCell>
        <mxCell id="-j06Ovp1fmt5AjjepnFO-544" value="" style="endArrow=none;html=1;rounded=0;strokeColor=light-dark(#b85450, #ebd9ff);strokeWidth=3;" edge="1" parent="1">
          <mxGeometry width="50" height="50" relative="1" as="geometry">
            <mxPoint x="345" y="532" as="sourcePoint" />
            <mxPoint x="385" y="532" as="targetPoint" />
          </mxGeometry>
        </mxCell>
        <mxCell id="-j06Ovp1fmt5AjjepnFO-545" value="" style="endArrow=none;html=1;rounded=0;strokeColor=light-dark(#b85450, #ebd9ff);strokeWidth=3;" edge="1" parent="1">
          <mxGeometry width="50" height="50" relative="1" as="geometry">
            <mxPoint x="385" y="532" as="sourcePoint" />
            <mxPoint x="405" y="492" as="targetPoint" />
          </mxGeometry>
        </mxCell>
        <mxCell id="-j06Ovp1fmt5AjjepnFO-546" value="" style="endArrow=none;html=1;rounded=0;strokeColor=light-dark(#b85450, #ebd9ff);strokeWidth=3;" edge="1" parent="1">
          <mxGeometry width="50" height="50" relative="1" as="geometry">
            <mxPoint x="405" y="492" as="sourcePoint" />
            <mxPoint x="445" y="492" as="targetPoint" />
          </mxGeometry>
        </mxCell>
        <mxCell id="-j06Ovp1fmt5AjjepnFO-547" value="" style="endArrow=none;html=1;rounded=0;strokeColor=light-dark(#b85450, #ebd9ff);strokeWidth=3;" edge="1" parent="1">
          <mxGeometry width="50" height="50" relative="1" as="geometry">
            <mxPoint x="465" y="532" as="sourcePoint" />
            <mxPoint x="445" y="492" as="targetPoint" />
          </mxGeometry>
        </mxCell>
        <mxCell id="-j06Ovp1fmt5AjjepnFO-548" value="" style="endArrow=none;html=1;rounded=0;strokeColor=light-dark(#b85450, #ebd9ff);strokeWidth=3;" edge="1" parent="1">
          <mxGeometry width="50" height="50" relative="1" as="geometry">
            <mxPoint x="465" y="532" as="sourcePoint" />
            <mxPoint x="505" y="532" as="targetPoint" />
          </mxGeometry>
        </mxCell>
        <mxCell id="-j06Ovp1fmt5AjjepnFO-549" value="" style="endArrow=none;html=1;rounded=0;strokeColor=light-dark(#b85450, #ebd9ff);strokeWidth=3;" edge="1" parent="1">
          <mxGeometry width="50" height="50" relative="1" as="geometry">
            <mxPoint x="523" y="532" as="sourcePoint" />
            <mxPoint x="503" y="492" as="targetPoint" />
          </mxGeometry>
        </mxCell>
        <mxCell id="-j06Ovp1fmt5AjjepnFO-550" value="" style="endArrow=none;html=1;rounded=0;strokeColor=light-dark(#b85450, #ebd9ff);strokeWidth=3;" edge="1" parent="1">
          <mxGeometry width="50" height="50" relative="1" as="geometry">
            <mxPoint x="523" y="532" as="sourcePoint" />
            <mxPoint x="563" y="532" as="targetPoint" />
          </mxGeometry>
        </mxCell>
        <mxCell id="-j06Ovp1fmt5AjjepnFO-551" value="" style="endArrow=none;html=1;rounded=0;strokeColor=light-dark(#b85450, #ebd9ff);strokeWidth=3;" edge="1" parent="1">
          <mxGeometry width="50" height="50" relative="1" as="geometry">
            <mxPoint x="563" y="532" as="sourcePoint" />
            <mxPoint x="583" y="492" as="targetPoint" />
          </mxGeometry>
        </mxCell>
        <mxCell id="-j06Ovp1fmt5AjjepnFO-552" value="" style="endArrow=none;html=1;rounded=0;strokeColor=light-dark(#b85450, #ebd9ff);strokeWidth=3;" edge="1" parent="1">
          <mxGeometry width="50" height="50" relative="1" as="geometry">
            <mxPoint x="583" y="492" as="sourcePoint" />
            <mxPoint x="623" y="492" as="targetPoint" />
          </mxGeometry>
        </mxCell>
        <mxCell id="-j06Ovp1fmt5AjjepnFO-553" value="" style="endArrow=none;html=1;rounded=0;strokeColor=light-dark(#b85450, #ebd9ff);strokeWidth=3;" edge="1" parent="1">
          <mxGeometry width="50" height="50" relative="1" as="geometry">
            <mxPoint x="643" y="532" as="sourcePoint" />
            <mxPoint x="623" y="492" as="targetPoint" />
          </mxGeometry>
        </mxCell>
        <mxCell id="-j06Ovp1fmt5AjjepnFO-554" value="" style="endArrow=none;html=1;rounded=0;strokeColor=light-dark(#b85450, #ebd9ff);strokeWidth=3;" edge="1" parent="1">
          <mxGeometry width="50" height="50" relative="1" as="geometry">
            <mxPoint x="643" y="532" as="sourcePoint" />
            <mxPoint x="683" y="532" as="targetPoint" />
          </mxGeometry>
        </mxCell>
        <mxCell id="-j06Ovp1fmt5AjjepnFO-555" value="" style="endArrow=none;html=1;rounded=0;strokeColor=light-dark(#b85450, #ebd9ff);strokeWidth=3;" edge="1" parent="1">
          <mxGeometry width="50" height="50" relative="1" as="geometry">
            <mxPoint x="683" y="532" as="sourcePoint" />
            <mxPoint x="703" y="492" as="targetPoint" />
          </mxGeometry>
        </mxCell>
        <mxCell id="-j06Ovp1fmt5AjjepnFO-556" value="" style="endArrow=none;html=1;rounded=0;strokeColor=light-dark(#b85450, #ebd9ff);strokeWidth=3;" edge="1" parent="1">
          <mxGeometry width="50" height="50" relative="1" as="geometry">
            <mxPoint x="703" y="492" as="sourcePoint" />
            <mxPoint x="743" y="492" as="targetPoint" />
          </mxGeometry>
        </mxCell>
        <mxCell id="-j06Ovp1fmt5AjjepnFO-557" value="" style="endArrow=none;html=1;rounded=0;strokeColor=light-dark(#b85450, #ebd9ff);strokeWidth=3;" edge="1" parent="1">
          <mxGeometry width="50" height="50" relative="1" as="geometry">
            <mxPoint x="763" y="532" as="sourcePoint" />
            <mxPoint x="743" y="492" as="targetPoint" />
          </mxGeometry>
        </mxCell>
        <mxCell id="-j06Ovp1fmt5AjjepnFO-558" value="" style="endArrow=none;html=1;rounded=0;strokeColor=light-dark(#b85450, #ebd9ff);strokeWidth=3;" edge="1" parent="1">
          <mxGeometry width="50" height="50" relative="1" as="geometry">
            <mxPoint x="763" y="532" as="sourcePoint" />
            <mxPoint x="803" y="532" as="targetPoint" />
          </mxGeometry>
        </mxCell>
        <mxCell id="-j06Ovp1fmt5AjjepnFO-559" value="" style="endArrow=none;html=1;rounded=0;strokeColor=light-dark(#b85450, #ebd9ff);strokeWidth=3;" edge="1" parent="1">
          <mxGeometry width="50" height="50" relative="1" as="geometry">
            <mxPoint x="803" y="532" as="sourcePoint" />
            <mxPoint x="823" y="492" as="targetPoint" />
          </mxGeometry>
        </mxCell>
        <mxCell id="-j06Ovp1fmt5AjjepnFO-560" value="" style="endArrow=none;html=1;rounded=0;strokeColor=light-dark(#b85450, #ebd9ff);strokeWidth=3;" edge="1" parent="1">
          <mxGeometry width="50" height="50" relative="1" as="geometry">
            <mxPoint x="823" y="492" as="sourcePoint" />
            <mxPoint x="863" y="492" as="targetPoint" />
          </mxGeometry>
        </mxCell>
        <mxCell id="-j06Ovp1fmt5AjjepnFO-561" value="" style="endArrow=none;html=1;rounded=0;strokeColor=light-dark(#b85450, #ebd9ff);strokeWidth=3;" edge="1" parent="1">
          <mxGeometry width="50" height="50" relative="1" as="geometry">
            <mxPoint x="504" y="532" as="sourcePoint" />
            <mxPoint x="524" y="492" as="targetPoint" />
          </mxGeometry>
        </mxCell>
        <mxCell id="-j06Ovp1fmt5AjjepnFO-562" value="" style="endArrow=none;html=1;rounded=0;strokeColor=light-dark(#b85450, #ebd9ff);strokeWidth=3;" edge="1" parent="1">
          <mxGeometry width="50" height="50" relative="1" as="geometry">
            <mxPoint x="524" y="492" as="sourcePoint" />
            <mxPoint x="564" y="492" as="targetPoint" />
          </mxGeometry>
        </mxCell>
        <mxCell id="-j06Ovp1fmt5AjjepnFO-563" value="" style="endArrow=none;html=1;rounded=0;strokeColor=light-dark(#b85450, #ebd9ff);strokeWidth=3;" edge="1" parent="1">
          <mxGeometry width="50" height="50" relative="1" as="geometry">
            <mxPoint x="584" y="532" as="sourcePoint" />
            <mxPoint x="564" y="492" as="targetPoint" />
          </mxGeometry>
        </mxCell>
        <mxCell id="-j06Ovp1fmt5AjjepnFO-564" value="" style="endArrow=none;html=1;rounded=0;strokeColor=light-dark(#b85450, #ebd9ff);strokeWidth=3;" edge="1" parent="1">
          <mxGeometry width="50" height="50" relative="1" as="geometry">
            <mxPoint x="584" y="532" as="sourcePoint" />
            <mxPoint x="624" y="532" as="targetPoint" />
          </mxGeometry>
        </mxCell>
        <mxCell id="-j06Ovp1fmt5AjjepnFO-565" value="" style="endArrow=none;html=1;rounded=0;strokeColor=light-dark(#b85450, #ebd9ff);strokeWidth=3;" edge="1" parent="1">
          <mxGeometry width="50" height="50" relative="1" as="geometry">
            <mxPoint x="624" y="532" as="sourcePoint" />
            <mxPoint x="644" y="492" as="targetPoint" />
          </mxGeometry>
        </mxCell>
        <mxCell id="-j06Ovp1fmt5AjjepnFO-566" value="" style="endArrow=none;html=1;rounded=0;strokeColor=light-dark(#b85450, #ebd9ff);strokeWidth=3;" edge="1" parent="1">
          <mxGeometry width="50" height="50" relative="1" as="geometry">
            <mxPoint x="644" y="492" as="sourcePoint" />
            <mxPoint x="684" y="492" as="targetPoint" />
          </mxGeometry>
        </mxCell>
        <mxCell id="-j06Ovp1fmt5AjjepnFO-567" value="" style="endArrow=none;html=1;rounded=0;strokeColor=light-dark(#b85450, #ebd9ff);strokeWidth=3;" edge="1" parent="1">
          <mxGeometry width="50" height="50" relative="1" as="geometry">
            <mxPoint x="704" y="532" as="sourcePoint" />
            <mxPoint x="684" y="492" as="targetPoint" />
          </mxGeometry>
        </mxCell>
        <mxCell id="-j06Ovp1fmt5AjjepnFO-568" value="" style="endArrow=none;html=1;rounded=0;strokeColor=light-dark(#b85450, #ebd9ff);strokeWidth=3;" edge="1" parent="1">
          <mxGeometry width="50" height="50" relative="1" as="geometry">
            <mxPoint x="704" y="532" as="sourcePoint" />
            <mxPoint x="744" y="532" as="targetPoint" />
          </mxGeometry>
        </mxCell>
        <mxCell id="-j06Ovp1fmt5AjjepnFO-569" value="" style="endArrow=none;html=1;rounded=0;strokeColor=light-dark(#b85450, #ebd9ff);strokeWidth=3;" edge="1" parent="1">
          <mxGeometry width="50" height="50" relative="1" as="geometry">
            <mxPoint x="744" y="532" as="sourcePoint" />
            <mxPoint x="764" y="492" as="targetPoint" />
          </mxGeometry>
        </mxCell>
        <mxCell id="-j06Ovp1fmt5AjjepnFO-570" value="" style="endArrow=none;html=1;rounded=0;strokeColor=light-dark(#b85450, #ebd9ff);strokeWidth=3;" edge="1" parent="1">
          <mxGeometry width="50" height="50" relative="1" as="geometry">
            <mxPoint x="764" y="492" as="sourcePoint" />
            <mxPoint x="804" y="492" as="targetPoint" />
          </mxGeometry>
        </mxCell>
        <mxCell id="-j06Ovp1fmt5AjjepnFO-571" value="" style="endArrow=none;html=1;rounded=0;strokeColor=light-dark(#b85450, #ebd9ff);strokeWidth=3;" edge="1" parent="1">
          <mxGeometry width="50" height="50" relative="1" as="geometry">
            <mxPoint x="824" y="532" as="sourcePoint" />
            <mxPoint x="804" y="492" as="targetPoint" />
          </mxGeometry>
        </mxCell>
        <mxCell id="-j06Ovp1fmt5AjjepnFO-572" value="" style="endArrow=none;html=1;rounded=0;strokeColor=light-dark(#b85450, #ebd9ff);strokeWidth=3;" edge="1" parent="1">
          <mxGeometry width="50" height="50" relative="1" as="geometry">
            <mxPoint x="824" y="532" as="sourcePoint" />
            <mxPoint x="864" y="532" as="targetPoint" />
          </mxGeometry>
        </mxCell>
        <mxCell id="-j06Ovp1fmt5AjjepnFO-573" value="DQ0" style="text;html=1;align=center;verticalAlign=middle;whiteSpace=wrap;rounded=0;fontColor=light-dark(#b85450, #ebd9ff);fontStyle=1" vertex="1" parent="1">
          <mxGeometry x="75" y="502" width="60" height="20" as="geometry" />
        </mxCell>
        <mxCell id="-j06Ovp1fmt5AjjepnFO-574" value="" style="endArrow=none;html=1;rounded=0;strokeColor=light-dark(#b85450, #ebd9ff);strokeWidth=3;" edge="1" parent="1">
          <mxGeometry width="50" height="50" relative="1" as="geometry">
            <mxPoint x="862" y="531.71" as="sourcePoint" />
            <mxPoint x="882" y="491.71000000000004" as="targetPoint" />
          </mxGeometry>
        </mxCell>
        <mxCell id="-j06Ovp1fmt5AjjepnFO-575" value="" style="endArrow=none;html=1;rounded=0;strokeColor=light-dark(#b85450, #ebd9ff);strokeWidth=3;" edge="1" parent="1">
          <mxGeometry width="50" height="50" relative="1" as="geometry">
            <mxPoint x="882" y="491.71000000000004" as="sourcePoint" />
            <mxPoint x="922" y="491.71000000000004" as="targetPoint" />
          </mxGeometry>
        </mxCell>
        <mxCell id="-j06Ovp1fmt5AjjepnFO-576" value="" style="endArrow=none;html=1;rounded=0;strokeColor=light-dark(#b85450, #ebd9ff);strokeWidth=3;" edge="1" parent="1">
          <mxGeometry width="50" height="50" relative="1" as="geometry">
            <mxPoint x="942" y="531.71" as="sourcePoint" />
            <mxPoint x="922" y="491.71000000000004" as="targetPoint" />
          </mxGeometry>
        </mxCell>
        <mxCell id="-j06Ovp1fmt5AjjepnFO-577" value="" style="endArrow=none;html=1;rounded=0;strokeColor=light-dark(#b85450, #ebd9ff);strokeWidth=3;" edge="1" parent="1">
          <mxGeometry width="50" height="50" relative="1" as="geometry">
            <mxPoint x="942" y="531.71" as="sourcePoint" />
            <mxPoint x="982" y="531.71" as="targetPoint" />
          </mxGeometry>
        </mxCell>
        <mxCell id="-j06Ovp1fmt5AjjepnFO-578" value="" style="endArrow=none;html=1;rounded=0;strokeColor=light-dark(#b85450, #ebd9ff);strokeWidth=3;" edge="1" parent="1">
          <mxGeometry width="50" height="50" relative="1" as="geometry">
            <mxPoint x="982" y="531.71" as="sourcePoint" />
            <mxPoint x="1002" y="491.71000000000004" as="targetPoint" />
          </mxGeometry>
        </mxCell>
        <mxCell id="-j06Ovp1fmt5AjjepnFO-579" value="" style="endArrow=none;html=1;rounded=0;strokeColor=light-dark(#b85450, #ebd9ff);strokeWidth=3;" edge="1" parent="1">
          <mxGeometry width="50" height="50" relative="1" as="geometry">
            <mxPoint x="883" y="531.71" as="sourcePoint" />
            <mxPoint x="863" y="491.71000000000004" as="targetPoint" />
          </mxGeometry>
        </mxCell>
        <mxCell id="-j06Ovp1fmt5AjjepnFO-580" value="" style="endArrow=none;html=1;rounded=0;strokeColor=light-dark(#b85450, #ebd9ff);strokeWidth=3;" edge="1" parent="1">
          <mxGeometry width="50" height="50" relative="1" as="geometry">
            <mxPoint x="883" y="531.71" as="sourcePoint" />
            <mxPoint x="923" y="531.71" as="targetPoint" />
          </mxGeometry>
        </mxCell>
        <mxCell id="-j06Ovp1fmt5AjjepnFO-581" value="" style="endArrow=none;html=1;rounded=0;strokeColor=light-dark(#b85450, #ebd9ff);strokeWidth=3;" edge="1" parent="1">
          <mxGeometry width="50" height="50" relative="1" as="geometry">
            <mxPoint x="923" y="531.71" as="sourcePoint" />
            <mxPoint x="943" y="491.71000000000004" as="targetPoint" />
          </mxGeometry>
        </mxCell>
        <mxCell id="-j06Ovp1fmt5AjjepnFO-582" value="" style="endArrow=none;html=1;rounded=0;strokeColor=light-dark(#b85450, #ebd9ff);strokeWidth=3;" edge="1" parent="1">
          <mxGeometry width="50" height="50" relative="1" as="geometry">
            <mxPoint x="943" y="491.71000000000004" as="sourcePoint" />
            <mxPoint x="983" y="491.71000000000004" as="targetPoint" />
          </mxGeometry>
        </mxCell>
        <mxCell id="-j06Ovp1fmt5AjjepnFO-583" value="" style="endArrow=none;html=1;rounded=0;strokeColor=light-dark(#b85450, #ebd9ff);strokeWidth=3;" edge="1" parent="1">
          <mxGeometry width="50" height="50" relative="1" as="geometry">
            <mxPoint x="1003" y="531.71" as="sourcePoint" />
            <mxPoint x="983" y="491.71000000000004" as="targetPoint" />
          </mxGeometry>
        </mxCell>
        <mxCell id="-j06Ovp1fmt5AjjepnFO-584" value="" style="endArrow=none;html=1;rounded=0;strokeColor=light-dark(#b85450, #ebd9ff);strokeWidth=3;" edge="1" parent="1">
          <mxGeometry width="50" height="50" relative="1" as="geometry">
            <mxPoint x="1120" y="531.58" as="sourcePoint" />
            <mxPoint x="1160" y="532" as="targetPoint" />
          </mxGeometry>
        </mxCell>
        <mxCell id="-j06Ovp1fmt5AjjepnFO-585" value="" style="endArrow=none;html=1;rounded=0;strokeColor=light-dark(#b85450, #ebd9ff);strokeWidth=3;" edge="1" parent="1">
          <mxGeometry width="50" height="50" relative="1" as="geometry">
            <mxPoint x="1121" y="491.58000000000004" as="sourcePoint" />
            <mxPoint x="1145" y="492" as="targetPoint" />
          </mxGeometry>
        </mxCell>
        <mxCell id="-j06Ovp1fmt5AjjepnFO-586" value="D0" style="text;html=1;align=center;verticalAlign=middle;whiteSpace=wrap;rounded=0;fontColor=#0a0a0a;fontStyle=1;strokeColor=light-dark(#b85450, #ebd9ff);" vertex="1" parent="1">
          <mxGeometry x="165" y="502" width="40" height="20" as="geometry" />
        </mxCell>
        <mxCell id="-j06Ovp1fmt5AjjepnFO-587" value="D4" style="text;html=1;align=center;verticalAlign=middle;whiteSpace=wrap;rounded=0;fontColor=#0a0a0a;fontStyle=1;strokeColor=light-dark(#b85450, #ebd9ff);" vertex="1" parent="1">
          <mxGeometry x="225" y="502" width="40" height="20" as="geometry" />
        </mxCell>
        <mxCell id="-j06Ovp1fmt5AjjepnFO-588" value="D8" style="text;html=1;align=center;verticalAlign=middle;whiteSpace=wrap;rounded=0;fontColor=#0a0a0a;fontStyle=1;strokeColor=light-dark(#b85450, #ebd9ff);" vertex="1" parent="1">
          <mxGeometry x="285" y="502" width="40" height="20" as="geometry" />
        </mxCell>
        <mxCell id="-j06Ovp1fmt5AjjepnFO-589" value="D12" style="text;html=1;align=center;verticalAlign=middle;whiteSpace=wrap;rounded=0;fontColor=#0a0a0a;fontStyle=1;strokeColor=light-dark(#b85450, #ebd9ff);" vertex="1" parent="1">
          <mxGeometry x="345" y="502" width="40" height="20" as="geometry" />
        </mxCell>
        <mxCell id="-j06Ovp1fmt5AjjepnFO-590" value="D16" style="text;html=1;align=center;verticalAlign=middle;whiteSpace=wrap;rounded=0;fontColor=#0a0a0a;fontStyle=1;strokeColor=light-dark(#b85450, #ebd9ff);" vertex="1" parent="1">
          <mxGeometry x="405" y="502" width="40" height="20" as="geometry" />
        </mxCell>
        <mxCell id="-j06Ovp1fmt5AjjepnFO-591" value="D20" style="text;html=1;align=center;verticalAlign=middle;whiteSpace=wrap;rounded=0;fontColor=#0a0a0a;fontStyle=1;strokeColor=light-dark(#b85450, #ebd9ff);" vertex="1" parent="1">
          <mxGeometry x="465" y="502" width="40" height="20" as="geometry" />
        </mxCell>
        <mxCell id="-j06Ovp1fmt5AjjepnFO-592" value="D24" style="text;html=1;align=center;verticalAlign=middle;whiteSpace=wrap;rounded=0;fontColor=#0a0a0a;fontStyle=1;strokeColor=light-dark(#b85450, #ebd9ff);" vertex="1" parent="1">
          <mxGeometry x="525" y="502" width="40" height="20" as="geometry" />
        </mxCell>
        <mxCell id="-j06Ovp1fmt5AjjepnFO-593" value="D28" style="text;html=1;align=center;verticalAlign=middle;whiteSpace=wrap;rounded=0;fontColor=#0a0a0a;fontStyle=1;strokeColor=light-dark(#b85450, #ebd9ff);" vertex="1" parent="1">
          <mxGeometry x="585" y="502" width="40" height="20" as="geometry" />
        </mxCell>
        <mxCell id="-j06Ovp1fmt5AjjepnFO-594" value="D32" style="text;html=1;align=center;verticalAlign=middle;whiteSpace=wrap;rounded=0;fontColor=#0a0a0a;fontStyle=1;strokeColor=light-dark(#b85450, #ebd9ff);" vertex="1" parent="1">
          <mxGeometry x="645" y="502" width="40" height="20" as="geometry" />
        </mxCell>
        <mxCell id="-j06Ovp1fmt5AjjepnFO-595" value="D36" style="text;html=1;align=center;verticalAlign=middle;whiteSpace=wrap;rounded=0;fontColor=#0a0a0a;fontStyle=1;strokeColor=light-dark(#b85450, #ebd9ff);" vertex="1" parent="1">
          <mxGeometry x="705" y="502" width="40" height="20" as="geometry" />
        </mxCell>
        <mxCell id="-j06Ovp1fmt5AjjepnFO-596" value="D40" style="text;html=1;align=center;verticalAlign=middle;whiteSpace=wrap;rounded=0;fontColor=#0a0a0a;fontStyle=1;strokeColor=light-dark(#b85450, #ebd9ff);" vertex="1" parent="1">
          <mxGeometry x="765" y="502" width="40" height="20" as="geometry" />
        </mxCell>
        <mxCell id="-j06Ovp1fmt5AjjepnFO-597" value="D44" style="text;html=1;align=center;verticalAlign=middle;whiteSpace=wrap;rounded=0;fontColor=#0a0a0a;fontStyle=1;strokeColor=light-dark(#b85450, #ebd9ff);" vertex="1" parent="1">
          <mxGeometry x="825" y="502" width="40" height="20" as="geometry" />
        </mxCell>
        <mxCell id="-j06Ovp1fmt5AjjepnFO-598" value="D48" style="text;html=1;align=center;verticalAlign=middle;whiteSpace=wrap;rounded=0;fontColor=#0a0a0a;fontStyle=1;strokeColor=light-dark(#b85450, #ebd9ff);" vertex="1" parent="1">
          <mxGeometry x="885" y="502" width="40" height="20" as="geometry" />
        </mxCell>
        <mxCell id="-j06Ovp1fmt5AjjepnFO-599" value="D52" style="text;html=1;align=center;verticalAlign=middle;whiteSpace=wrap;rounded=0;fontColor=#0a0a0a;fontStyle=1;strokeColor=light-dark(#b85450, #ebd9ff);" vertex="1" parent="1">
          <mxGeometry x="945" y="502" width="40" height="20" as="geometry" />
        </mxCell>
        <mxCell id="-j06Ovp1fmt5AjjepnFO-600" value="" style="endArrow=none;html=1;rounded=0;strokeColor=light-dark(#b85450, #ebd9ff);strokeWidth=3;" edge="1" parent="1">
          <mxGeometry width="50" height="50" relative="1" as="geometry">
            <mxPoint x="1001" y="531.71" as="sourcePoint" />
            <mxPoint x="1041" y="531.71" as="targetPoint" />
          </mxGeometry>
        </mxCell>
        <mxCell id="-j06Ovp1fmt5AjjepnFO-601" value="" style="endArrow=none;html=1;rounded=0;strokeColor=light-dark(#b85450, #ebd9ff);strokeWidth=3;" edge="1" parent="1">
          <mxGeometry width="50" height="50" relative="1" as="geometry">
            <mxPoint x="1041" y="531.71" as="sourcePoint" />
            <mxPoint x="1061" y="491.71000000000004" as="targetPoint" />
          </mxGeometry>
        </mxCell>
        <mxCell id="-j06Ovp1fmt5AjjepnFO-602" value="" style="endArrow=none;html=1;rounded=0;strokeColor=light-dark(#b85450, #ebd9ff);strokeWidth=3;" edge="1" parent="1">
          <mxGeometry width="50" height="50" relative="1" as="geometry">
            <mxPoint x="1002" y="491.71000000000004" as="sourcePoint" />
            <mxPoint x="1042" y="491.71000000000004" as="targetPoint" />
          </mxGeometry>
        </mxCell>
        <mxCell id="-j06Ovp1fmt5AjjepnFO-603" value="" style="endArrow=none;html=1;rounded=0;strokeColor=light-dark(#b85450, #ebd9ff);strokeWidth=3;" edge="1" parent="1">
          <mxGeometry width="50" height="50" relative="1" as="geometry">
            <mxPoint x="1062" y="531.71" as="sourcePoint" />
            <mxPoint x="1042" y="491.71000000000004" as="targetPoint" />
          </mxGeometry>
        </mxCell>
        <mxCell id="-j06Ovp1fmt5AjjepnFO-604" value="D56" style="text;html=1;align=center;verticalAlign=middle;whiteSpace=wrap;rounded=0;fontColor=#0a0a0a;fontStyle=1;strokeColor=light-dark(#b85450, #ebd9ff);" vertex="1" parent="1">
          <mxGeometry x="1004" y="502" width="40" height="20" as="geometry" />
        </mxCell>
        <mxCell id="-j06Ovp1fmt5AjjepnFO-605" value="" style="endArrow=none;html=1;rounded=0;strokeColor=light-dark(#b85450, #ebd9ff);strokeWidth=3;" edge="1" parent="1">
          <mxGeometry width="50" height="50" relative="1" as="geometry">
            <mxPoint x="1060" y="531.71" as="sourcePoint" />
            <mxPoint x="1100" y="531.71" as="targetPoint" />
          </mxGeometry>
        </mxCell>
        <mxCell id="-j06Ovp1fmt5AjjepnFO-606" value="" style="endArrow=none;html=1;rounded=0;strokeColor=light-dark(#b85450, #ebd9ff);strokeWidth=3;" edge="1" parent="1">
          <mxGeometry width="50" height="50" relative="1" as="geometry">
            <mxPoint x="1100" y="531.71" as="sourcePoint" />
            <mxPoint x="1120" y="491.71000000000004" as="targetPoint" />
          </mxGeometry>
        </mxCell>
        <mxCell id="-j06Ovp1fmt5AjjepnFO-607" value="" style="endArrow=none;html=1;rounded=0;strokeColor=light-dark(#b85450, #ebd9ff);strokeWidth=3;" edge="1" parent="1">
          <mxGeometry width="50" height="50" relative="1" as="geometry">
            <mxPoint x="1061" y="491.71000000000004" as="sourcePoint" />
            <mxPoint x="1101" y="491.71000000000004" as="targetPoint" />
          </mxGeometry>
        </mxCell>
        <mxCell id="-j06Ovp1fmt5AjjepnFO-608" value="" style="endArrow=none;html=1;rounded=0;strokeColor=light-dark(#b85450, #ebd9ff);strokeWidth=3;" edge="1" parent="1">
          <mxGeometry width="50" height="50" relative="1" as="geometry">
            <mxPoint x="1121" y="531.71" as="sourcePoint" />
            <mxPoint x="1101" y="491.71000000000004" as="targetPoint" />
          </mxGeometry>
        </mxCell>
        <mxCell id="-j06Ovp1fmt5AjjepnFO-609" value="D60" style="text;html=1;align=center;verticalAlign=middle;whiteSpace=wrap;rounded=0;fontColor=#0a0a0a;fontStyle=1;strokeColor=light-dark(#b85450, #ebd9ff);" vertex="1" parent="1">
          <mxGeometry x="1063" y="502" width="40" height="20" as="geometry" />
        </mxCell>
        <mxCell id="-j06Ovp1fmt5AjjepnFO-610" value="" style="endArrow=none;html=1;rounded=0;strokeColor=light-dark(#b85450, #ebd9ff);strokeWidth=3;" edge="1" parent="1">
          <mxGeometry width="50" height="50" relative="1" as="geometry">
            <mxPoint x="1237" y="531.58" as="sourcePoint" />
            <mxPoint x="1262" y="532" as="targetPoint" />
          </mxGeometry>
        </mxCell>
        <mxCell id="-j06Ovp1fmt5AjjepnFO-611" value="" style="endArrow=none;html=1;rounded=0;strokeColor=light-dark(#b85450, #ebd9ff);strokeWidth=3;" edge="1" parent="1">
          <mxGeometry width="50" height="50" relative="1" as="geometry">
            <mxPoint x="1238" y="491.58000000000004" as="sourcePoint" />
            <mxPoint x="1262" y="492" as="targetPoint" />
          </mxGeometry>
        </mxCell>
        <mxCell id="-j06Ovp1fmt5AjjepnFO-612" value="" style="endArrow=none;html=1;rounded=0;strokeColor=light-dark(#b85450, #ebd9ff);strokeWidth=3;" edge="1" parent="1">
          <mxGeometry width="50" height="50" relative="1" as="geometry">
            <mxPoint x="1158" y="531.71" as="sourcePoint" />
            <mxPoint x="1178" y="491.71000000000004" as="targetPoint" />
          </mxGeometry>
        </mxCell>
        <mxCell id="-j06Ovp1fmt5AjjepnFO-613" value="" style="endArrow=none;html=1;rounded=0;strokeColor=light-dark(#b85450, #ebd9ff);strokeWidth=3;" edge="1" parent="1">
          <mxGeometry width="50" height="50" relative="1" as="geometry">
            <mxPoint x="1119" y="491.71000000000004" as="sourcePoint" />
            <mxPoint x="1159" y="491.71000000000004" as="targetPoint" />
          </mxGeometry>
        </mxCell>
        <mxCell id="-j06Ovp1fmt5AjjepnFO-614" value="" style="endArrow=none;html=1;rounded=0;strokeColor=light-dark(#b85450, #ebd9ff);strokeWidth=3;" edge="1" parent="1">
          <mxGeometry width="50" height="50" relative="1" as="geometry">
            <mxPoint x="1179" y="531.71" as="sourcePoint" />
            <mxPoint x="1159" y="491.71000000000004" as="targetPoint" />
          </mxGeometry>
        </mxCell>
        <mxCell id="-j06Ovp1fmt5AjjepnFO-615" value="CRC0" style="text;html=1;align=center;verticalAlign=middle;whiteSpace=wrap;rounded=0;fontColor=#0a0a0a;fontStyle=1;strokeColor=light-dark(#b85450, #ebd9ff);" vertex="1" parent="1">
          <mxGeometry x="1121" y="502" width="40" height="20" as="geometry" />
        </mxCell>
        <mxCell id="-j06Ovp1fmt5AjjepnFO-616" value="" style="endArrow=none;html=1;rounded=0;strokeColor=light-dark(#b85450, #ebd9ff);strokeWidth=3;" edge="1" parent="1">
          <mxGeometry width="50" height="50" relative="1" as="geometry">
            <mxPoint x="1177" y="531.71" as="sourcePoint" />
            <mxPoint x="1217" y="531.71" as="targetPoint" />
          </mxGeometry>
        </mxCell>
        <mxCell id="-j06Ovp1fmt5AjjepnFO-617" value="" style="endArrow=none;html=1;rounded=0;strokeColor=light-dark(#b85450, #ebd9ff);strokeWidth=3;" edge="1" parent="1">
          <mxGeometry width="50" height="50" relative="1" as="geometry">
            <mxPoint x="1217" y="531.71" as="sourcePoint" />
            <mxPoint x="1237" y="491.71000000000004" as="targetPoint" />
          </mxGeometry>
        </mxCell>
        <mxCell id="-j06Ovp1fmt5AjjepnFO-618" value="" style="endArrow=none;html=1;rounded=0;strokeColor=light-dark(#b85450, #ebd9ff);strokeWidth=3;" edge="1" parent="1">
          <mxGeometry width="50" height="50" relative="1" as="geometry">
            <mxPoint x="1178" y="491.71000000000004" as="sourcePoint" />
            <mxPoint x="1218" y="491.71000000000004" as="targetPoint" />
          </mxGeometry>
        </mxCell>
        <mxCell id="-j06Ovp1fmt5AjjepnFO-619" value="" style="endArrow=none;html=1;rounded=0;strokeColor=light-dark(#b85450, #ebd9ff);strokeWidth=3;" edge="1" parent="1">
          <mxGeometry width="50" height="50" relative="1" as="geometry">
            <mxPoint x="1238" y="531.71" as="sourcePoint" />
            <mxPoint x="1218" y="491.71000000000004" as="targetPoint" />
          </mxGeometry>
        </mxCell>
        <mxCell id="-j06Ovp1fmt5AjjepnFO-620" value="CRC4" style="text;html=1;align=center;verticalAlign=middle;whiteSpace=wrap;rounded=0;fontColor=#0a0a0a;fontStyle=1;strokeColor=light-dark(#b85450, #ebd9ff);" vertex="1" parent="1">
          <mxGeometry x="1180" y="502" width="40" height="20" as="geometry" />
        </mxCell>
      </root>
    </mxGraphModel>
  </diagram>
</mxfile>
